<mxfile host="app.diagrams.net" agent="Mozilla/5.0 (Windows NT 10.0; Win64; x64) AppleWebKit/537.36 (KHTML, like Gecko) Chrome/131.0.0.0 Safari/537.36" version="25.0.1">
  <diagram name="PÃ¡gina-1" id="9VEo6zLNWhmD9UgKVS89">
    <mxGraphModel dx="1674" dy="738" grid="0" gridSize="10" guides="1" tooltips="1" connect="1" arrows="1" fold="1" page="1" pageScale="1" pageWidth="827" pageHeight="1169" math="0" shadow="0">
      <root>
        <mxCell id="0" />
        <mxCell id="1" parent="0" />
        <mxCell id="qf8H7uu1fr9ZUR_qYf2k-4" value="&lt;b&gt;Sistema Mantis&lt;/b&gt;" style="text;html=1;align=center;verticalAlign=middle;whiteSpace=wrap;rounded=0;" parent="1" vertex="1">
          <mxGeometry x="1261" y="601" width="60" height="30" as="geometry" />
        </mxCell>
        <mxCell id="qf8H7uu1fr9ZUR_qYf2k-8" value="" style="shape=image;verticalLabelPosition=bottom;labelBackgroundColor=default;verticalAlign=top;aspect=fixed;imageAspect=0;image=data:image/png,iVBORw0KGgoAAAANSUhEUgAAAgAAAAIACAYAAAD0eNT6AAAAAXNSR0IArs4c6QAAIABJREFUeAHsvQl4VMl16M/EdhzbWRzHSez8k5fYf+cleUmekziOE8cvwU7CRFKduuoWLYQkhBBC7Puu0YBAgxgQoF3dLRBIag2LWrGdsZ/tzNhGiB0GBgYGmGGAgYGBYRES+ybxOKSFm6aX21X3dt/l8H186r59q27Vr6rOObeWcwYNon9EwOAEnn/++c9xzucAwM845+8AwAkD/98DAJVpaWl/YXCsVDwiQASIABEgAsYlAADZjLEeAHhosv/9nPO6lJSUTxqXLpWMCBABIkAEiIABCXDOpwJAv8kUf6ih8uOioqJPGBAvFYkIEAEiQASIgPEIKIryTQB4YHLl/9gYYIyVG48wlYgIEAEiQASIgAEJAMAOKyj/QB3upqSk/L4BMVORiAARIAJEgAgYhwAA/KmFlP/AksBc4xCmkhABIkAEiAARMCCBwNr/gOK0yt//MiBqKhIRIAJEgAgQAeMQ4Jz7LTgDcH3w4MEfNw5lKgkRIAJEgAgQAYMRAIAPLWgA4EzG1w2GmopDBIgAESACRMAYBDjnX7Go8n/IGJthDMpUCiJABIgAESACBiMAAPlWNQAA4HsGw03FIQJEgAgQASJgDAIAsMbCBsCV0tLSXzIGaSoFESACRIAIEAEDEQCAYxY2AHAfwJ8bCDcVhQgQASJABIhA8gkAwOct4Po36rFFxti45JOmEhABIkAEiAARMBABxphD9O2/aMLkfZNnzt6RiP+Zw7LOi5YTANYbCDkVhQgQASJABIhA8glwzleKKFauKPe9Pv8Nb1vHw0T8X1hesVmknIE0Z5NPmkpABIgAESACRMBABABgt4hiHVlQeCQRin/gGbVNvn0i5QxK8yUDYaeiEAEiQASIABFIHgEA+DQA3A1SklHX0oPvm7+grHNAOSfo701FUYTKiuVmjOUljzQ9mQgQASJABIiAgQgAwHeClXo8nys9zTsSpPifLDEUFI49FE8ZQ+5dbSD0VBQiQASIABEgAskj8Gj3/4IQJal6BsDj859PtAFQUra0U7S8nPN3kkeankwEiAARIAJEwEAEAOA1EYWaNTz7TKKVPz6vanXrXpHyDqRxOp1fNBB+KgoRIAJEgAgQgcQTcLlcHwOAawPKMZ6/02bP35YMA8DT5r+Opw/iKWvwvYyxoYknTU8kAkSACBABImAgAmlpaV8LVo7xfF5W7dmSDAMAn4mnD+Ipa8i91QZqAioKESACRIAIEIHEE+CcTw1RjqrX/xuaN76bLAOgeFG5zD6ANxNPmp5IBIgAESACRMBABDjnfhEDwOF0XvO2dTxIlgFQ3dgi5LcgUNe+9PT0zxqoGagoRIAIEAEiQAQSSwAAPhQxAMZOnLo3Wcofn+vx+Xs55w9Eyo5pGGOpiSVNTyMCRIAIEAEiYBACnPOviCrQxS+v2pxMAwCfnTeqQCZ64VKDNAMVgwgQASJABIhAYgkAQL6oAVC39pU3k20AoBdC0fIzxrYnljY9jQgQASJABIiAQQgAwBoRBZroAECRDI1K77pdIuUPpEF3wp82SFNQMYgAESACRIAIJI4AAAhNoecXjHk7klJO5HWPz98NAH2iRgBjbHDiaNOTiAARIAJEgAgYgAAAfP6RC+B+EeU5v3RJogMAPYkDEGpg5OaNOi5Sh0CaBQZoCioCESACRIAIEIHEEWCMOUQV5yr32p2hijhZ3+cuWLRFtB6MsdcTR5yeRASIABEgAkTAAAQ45ytFFWcyAgBFMjAwGqFoPQDgRlFR0ScM0BxUBCJABIgAESACiSEAAEKOdLKyc5ISACiSAeBt81/inAstZaDhwBj7u8QQp6cQASJABIiAZgRKS0t/iXPOGWMbAhvaTgMAvhG+xBj7H5o9yGIZDRky5DMAcE/kzXn6nOLtkZVxR8S1ej3T5I7IPyFSl0CaWRZrXqoOESACRMDaBBRF+QPOeVcUwX+PMbYMlZ21ScRfOwD4ThRuUWMBLKvxdOmpzEXynlNSKrwPAABejZ8gpSACRIAIEIGkEEhNTf1DADilUonhrEB6Ugpq0Ic+2v2/QCW7Z4yBhpaNx0WUtJ5pVjas3S5aHwC4gjNJBm0qKhYRIAJEgAgMEMCpfQAQmfL9IQB8aSAfO/8FgNdEFKbTmdHjbevo01OZi+XtvyBSn4E0aWlpf2Hn/kB1JwJEgAgYnkDgzf/kgOAW+Hvz0dp3scvl+mXDV1anAg4ePPjjAHBNgN3DcROnvCGmoPXfGzA8Z4TaGaFnZjUAYIJOuE2b7fPPP/+5wFJROm6UHDx48K+YtjJUcCJABMxNQAPlHyz4j6JwMzcRsdKnpaV9TUT5Y5pFy1YZxgFQqCEyu3hBtP0gwW0f7vNGMZrWS4WzZACwEQDuh/STa4yxBs7571qv1lQjIkAEDEtAY+X/RAE8iobXlpqa+gXDVlyHgnHOp4YI9ic8Yl03QgCgUMU/8H1lw5ptscof5fdzOqA2VZaBmaFZAICzZNH6xCXG2LdMVTkqLBEgAuYkILHmH02IPfmNMdaDStHlcn3MnITiKzXn3B9DwD9hE3yfoij3vG0dNwcUrtH+enz+D4PLG+/ntLS0L8dH0jp3M8a+CgB74mB2izH2L9YhQDUhAkTAcAT0Vv7BAo9z/iYA/L3hIGhcIAAQUpT5hWMOG03ph5Yna3j2meA2jfNzvsaoDZ+dy+X6FOe8VNAnxE0yAgzfxFRAImBOAolU/kGKAj3KtWKgHHNSi17qR0seXwmqa9g3/Ui/Fy8yTgCgUMU/8H3mvJKtkcof6zpjrCk6PWv9CgD/zDl/JxaXGL/jcoEt99JYqzdQbYiAgQgkSfkHK8Qrj96UiwYNGvScgbBIFwUA8mMI9GAGT31e5VlnmABAAwo/9G9FXaOwAQAA70oDNkEGaWlpvwkAXtFIkGH6DxkBJmh3KiIRMAUBAyj/J4ov4Gnwz00BTkUhAWBNGAH+pL7RfvO2+S+EKlyjfXe3tsssATzknP+eCoymvYVz7np05PFitHYW/I2MANP2Cio4ETAIASMp/yBBiD7zq10u168aBJNwMQLxElQp/KD6PzReAKDIfgWGZQ0/F1z2OD9nCsM1cEI82sc5/0mcLOLtJzc55982MAYqGhEgAkYlYFDlHywEzzLG8ozKL1a5cF+D6LTv9DnF24z2th+pPNNmzxc+DsgYq43F0Uy/49G+wLHP6zor/4FxQkaAmToIlZUIGIGACZT/gIDDvz9IT0//IyNwi6cMjDGHqBIwYgCgSAbA8tpGGYdAB+JhauR7BY72Bfdxmc9kBBi5Y1DZiICRCJhM+Q8Ixlt4fColJeWTRmIZrSyc85WiBkBDyybDBQCKZAB4WttlXAL3oQvcaByN/hse7QOAl8N48hvou4n4i0cEBxudFZWPCBCBJBLQ2sMfV5T7eBTM4XDcFlV2caY7YhZBBwC746zbY0Vh3ABAkfcBZA7LkgkOxJI4JKQenZaW9jwAyMTK0NI4uE4eA6WakxITAesS0PrNn3P+YGVD0+O1ak9r++nxU6bF49lMVvC1G9lHOgB8GgDuihgAyDHS27ZRr0+dNVc4PDBjbJnZRp0OR/tkx8NA+hvob8BsPKm8RIAI6EhA8zd/zu+vqG/aGqqQKr0te7OGZwt5vhNQllcxqpxRYsuja2NFUb4JAEsYY28J1OexEF+8vNKwAYBC23vg+7JqzxbR+gLATh27vuZZ48ZUALgkUd8BZa3X32vYDzWvOGVIBIiA+QgkSvkPKAP0X79gyfJtipKOx/n0EnLB+e7FiHvJaBl8E+ScZ2GQI62UQm3T+gNBLB+a4XND68YTEm2N/eTTyWi/eJ6JsQsA4DWJegb3Wb0/9zLG/iGe+tG9RIAIWIxAEpT/E4Xlbt10qmj85AMJEpgPOOd16enpn9W7CXEjIu7w55x/FwDuaFk/owcAimKM9Lsyh8k4vPm/AJAxePDgX9G7/eLNH4/2McZmq4jap7dSjzd/MgLibWy6nwhYhYDmyl9R7q/yrN0RRQk8Uf5B9/Rj2NihrsyPtFSUUfI6zxjL0cGl8HO4wQoAPADQHeX58Qrpp+43QwCgoLZ9qr0nz5y9Q5YLRooEgHWc838zQrRInFkCgP2y9VKTPntE3ns1a3z7x0/WdC9Nrx0CbllFZlM9iIAmBDRX/hHW/CMpg9DrHp+/t3jhS1tw46AaYajBPT8HgD+VhYlH1DjnMwHguAZlekrZh8uvuHTJllB2Zvm+tLqhM1ydJK6hMbcM+7JsO8abfsiQIZ8JHOPUvb8qinL7xfLl/+X1ddwJtPXdCZOn75Xg9lQ/Q6NKUZRvxMuA7icCRMCEBPTc7S+rjBpaNh0rKBp7SCvhFiMfYZfCjLG/CQRwwV3VTwlUPb9XeZoNHwAoUh9oaN74rk5s+hhjrzPGQIeZnWdGOB4z1SBqn6o+M3rs+APu1vYTYZjenThlhtAx0nBtQEbAM81MF4iA9QgY7c0/jGDDaeP+5bWNO4e6XLpNpYcIwVMB5RG1wXGt91GEumzclR6SXpUw1yKNGQIARWjTx+2aMXQoRnXUjReermCMjUHnO1EbU+DHlJSU3w5s5tSt/ANsnBkZlytqGzfjWIjCU/OZAMbY3wmgoSREgAgYnYDmyl9szf+pdeEowu2hp9V/ZVbxgi7Oef+AYNT57/dxdiS0HTHoUMB/+/s6Pz+qYhmeM+JUNF5m+G3StFm7EsTwPABM1+j0AO7vwKN9l/UuO/Z1jPOAfV9Ve/o67mi8JwCPzn49dAzQdyJABExMwMjT/rEEXX3zxiP5BWPe1lv4BvJHv+mPXQoH3vhKEyH41dRtYXkFvhGqNqCMeG/5qlqt9wFENZow1G6gPX9dZPhi1D4A+C817SN7T1ZO7unaJt8+gXbTfDmAZgJEegulIQIGJGC2N/8IAvD+0sr6LY6MDNy1HEvoa/E7um+9laBnxSyvw+G87vH5z0dgYxqjoKFl4ztJYoqGwBzcvKdmiAai9s1JxNE+RVHuLly6Ao2728Ltq8NMAOf8b9WwonuIABEwKAGLKP8gBee/MHXWPGG3sklSPjEVfIxy9eFRSWHlYLBZA3zTjVFfWV7R0p/lnBdE8w6Jio9z/mYiyji6aNxBd8um9zRpW+2NgO5kOdAyqDilYhEB8xCwnvL/xfR3TZNvf+6IfBnvctGUhGF+wxkPAd8KQQbTL5hpomQ0MCbKKqo2J0K5xnjGAfQlEDyacXYAAFYBgO5H+5wZGVeXVbu7Ymzyi78ddTAC8MRLMCf6TASIgMEJOByO3wEAzRQkRvUzoCK6i8rE6XQm9CheDMWiifGAEf+KFy1Bn/8fGUVxa1iO+wWFCTvqGas9fpyWlvYXnPN/BwCZsMWxnvPkdwyMpGu7am8EXCEjwOACn4pHBIIJ4LlorRSVQZX/k7cjt6/93MSpMxO1u/yJINeK70A+6Cp3xtwXtlZ6mtGbovh6sAZv6Roq+yftFJynu9V/uXDshIRMsw/wjfJX9zd+fHbW8OwzVatb9wZz0O2zDkYA5/yvg2UMfSYCRMCABAIxyDVRVEZX/sECtHp1656s7JwzUQS9Jky0yh83f6ESXLy8cnN984Yj3raOvuD62ODzvfJV9Z1Z2TkfaMXUiPngGCpZvBRnc24mtE21NwIup6am/pUBRR4ViQgQgQECWjkrMZPyDxKst0qXrtisKOmaBuHRSrFk5444WbyovLNmzeM3wRtB5Q77pmyT3+/XNrXtm1tSuiVzWBae3zeUoSZTHozdgN4tk9aOZAQMiEX6SwTsQQAAjskILUzLJX37J03gBaa/Pa3tp8dPnvqGLAcN0vePyB/1dunSFT9raGk/nGwuZnh+Q8umkxguOmfEyISsyWvQxs8YLA6H49pLFTWve9s6HhiAuaYeA9EvhqIo/8se0pRqSQRMRgCdn8gKNdxcZwDBJf1WvMq9dmdm1vAPZXnEmz5vVMGxJStrO3F/ghU4JqsODS2bjuP0+VCXS3cvfPG2caT7cT+K4Xw2aD8TcOpRMKRfM5lopOISAesT0CJQyYiRBe942zruJ0vwa/pcn/9GyeLyTkVRMPjPM29rWl3DI3vzS8s60dmNpuU3waY+3evr67izsmHtdtwzkUDX0HH1FTQ0q7wtu3RnIdofNDYCGGPl1pemVEMiYDICALBeC6WGblsNK8wEhGBD68b3iyZMeksLNsF5ZOeOOFG+sva/PG3+HivxMmpd3K3t75eULe1KYLCoWIbAg9klpT/z+jquGZVZULm0XA646HK5PmYy8UjFJQLWJgAASrCCEv2c7nTe8FpvCru/om71NjxyJ8plIB1u8KpsbN6tuTMXAeMmSMBLL5uYKK/bL1e5t2QNzzk70CaJ/otLPXXr1r9tImYPvRrOBCiK8pfWlqZUOyJgMgLo5hQA9mshDDF6m6mEm0rliW/rcxcs2sI5j/sMOLpvrVnT9oYVuZi0Tvcq6hq3YrRELfq8mjzQ+VRZRQ3OkJlzmUwjIyDUm6LJRCUVlwhYk4CiKN8AgD41wizWPVWNrXtMqhhivg0/jjRYOOZwLAb4e27eyOPVjS34xh8zX7onKYwerGxo2p6bN+q4mvYUvWf8lGl7PK3tH5i9jfEoqiiDgXQoZ6wpQalWRMDkBDjn7oGBKvMXHbUk3IlJYpVs37JqT8RIg5lZw89V1Dai33YjHOki4yN23+ir9K7bhQabTL8PTTvUlfnRKncTemm0QhvczRkxUtZV+C210RVNLkqp+ETAfATS0tJ+EwAuhAoyke8vvrTcEscCowtv/5WlVfVb0B0vvuXNLl7QFXDLa85pXmsoKhllex/3CGhwhLAP+4KVNnlqFJBprfmkIpWYCNiIAGMsR0Thh6bhinKvvpmOt0U3ICzxZiijcI2Z1ue/sXBJxfb09Pi9Q2bn5L1bt/aVfVZqd/RN4XA4boaO8Ti/X09JSfl9G4lSqioRMCcBAPhpnIM77LEn3PxGO95JyZtWGfraz02fU7xNjR8Bh8Nxu7S8ohN3zJu2vhFmgCZO0yRw1ixzSkMqNRGwGQHO+Z8AgCa+8XG3tdUEItXHXkZNTdMrB9HRVTijGI2DidNm7Hb7/O9bsV9gwKxw9Y7z2uGioqJP2EyMUnWJgHkJAMCiOAd52FmAjKFDr3jb/FesKBypTrYyBO6hPwh8G0ZjoKBo7KG5C8q2NLRsPG7hfnBLg2iZ/QDwz+aVhFRyImBDAikpKZ/UIkgQGhG4IcrCQtKY69gRpnOpHWxltEj1zYXlFZs1eAlotaH4pCoTAfMTQKcdGggAjBTYX7f2lTdJ+ZDyoT5gjj6ASxq4r0Fy/Pc6nc4vml8SUg2IgE0JMMY2SAqBx0sDeMba29ZxjxSAORQAtZO92wmPtcqOe8bYRJuKTao2EbAGgdTU1C8AwFVZYYDpyyqqLRUsiJSkvZWkVdsffVloMN73UeAfa+gAqoXNCXDOJ2kgEB6mpztuulvbz1hVcFK9yCAwex/wtPmvY5hiyfGOLsX/3uZik6pPBKxBAIMFMcZ2SQqFx0sB4yZN3Wt2IUnlJ0Vv1T5QvKi8U4Nx7rWG5KNaEAEi8JhAWlra1wAg7kh44YRJlbfFkhEDraoUqF72MHgaWjYdVxTlXrgxG8e1ywDweRKbRIAIWIwAANTEIQjC+gXA9Bgsx+vz3yDFYg/FQu1sinbuLxw74U3Z8c05L7CY2KPqEAEigARSUlJ+HQDOygoJTF+yeCltCKSz+lLn1Mmw0M6wWFG/ZqsG43o3LheStCQCRMCiBBhjwzQQFA+5otxvaKFgQaTEtFNixFKQpa/jmitzmGwU0Aepqal/ZVGxR9UiAkRggAAA/FALIyB/9JjD3raOPhLcgoKbZhBoBkGDPjC3pHSLBuO5ckA+0F8iQAQsTCA9Pf3/B4BbGgiNh8trG8lNsAZCnIwoMqJE+kB988YjnHPZzb3nXS7Xb1hY5FHViAARCCbAOX9RCwNgqMvV7W3zXxIRXpSGlB71Aak+0FdQOPaQBuN4eLBsoM9EgAhYnIDL5fplADiigfB4OHNeCYUMplkAms5PcB94ucqtxdT/lkGDBj1ncXFH1SMCRCCUAOf8nwAAw31GPPKn5jcMFlS7po2CBSVYAdDbs9Tbs8kNFv+VjKGuK2rGZ5R77qalpf1ZqFyg70SACNiEAAC0RhEQqg2D7NwRJ72+jjuklOyslKjuier/OOsmO24ZY+U2EXNUTSJABMIRQK9fAHBJVphg+rKKqs2JEoD0HFK2du0DdWtfeQtn3STH7JkhQ4Z8JpxMoGtEgAjYiAAAjJUUJo9nCpT09Fvulk0ULIiWAkw+vW5o4+r+iJEF72gwXtNtJOKoqkSACEQiEAgWtF0DofJw7EQKFmTXN1Oqt/6Gw5KVNdLBfjjnP4kkC+g6ESACNiSgKMpfAoBsIJHHMwFVnuadpAz0VwbE2HaMP3JkZPRKGuq30tLSvmxDEUdVJgJEIBoBAFghKVweGwDoltTj8/eSgrKdgqKpfx2Xf6bOnLNDdnyi/49oMoB+IwJEwKYEAODTAHBKVshgeoxLTgYAGQDUB7TpA7VNbfs0GJfHBw8e/Cs2FW9UbSJABGIR4Jw7NRA0j4MFuZs3HiUFoI0CII625ng3Z8TIE7LjkjGWGmv80+9EgAjYnAAAvCorbDB9fsGYtylYkK0VFy0JaLAksPjlVZtlxyPn3G9zsUbVJwJEQA0Bxtj/AIAbskIH0y+r8VCwIA2UAM0A2NOQcvvazzmdTtmxeDM1NfUP1Yx9uocIEAEiMIgxNk8LA8CZkXGVggXZU3mR0SLf7hOnzditwTicRSKNCBABIqCawODBgz8OAAc0ED4Pp88p3kbKQF4ZEEN7MaxsbNZC+R8uKir6hOqBTzcSASJABJAAY+xbWgULqlv7CgULoqUA2hOgvg/czMrO+UDSAEd3wf9M0owIEAEiIESAMdYkKYQe+wbIHz3mML3B2usNltpbvL0XlldIb/zDQF9Cg54SEQEiQASQwPPPP/85ALiohRHgaW0/RUpBXCkQO3uww3GiKOl3JMdcr9Pp/CJJMSJABIiAFAHG2ChJYfR4FqDS07yDlJg9lBi1s3g7F02YJO30hzE2UWrQU2IiQASIQIDAc5zzLlkjYGVD03ZSDOKKgdhZn90qd5O0u18A2OdyuT5G0osIEAEioAkBxthXZQ0AjGNOSsz6SozaWKyNPW3+65nDsi5IjrM+RVG+ocmgp0yIABEgAkiAMTZGRjAp6em3vG0d+J92ghMD6gNh+kDxoiXSoX4BwEMSiwgQASKgGYGUlJRPAsBpGQNg8vTZFCI4jNAng4gMQuwD7pZNZ7ii3JcZYwBwCTftajbwKSMiQASIAG4okhRMD2vWtO4lZZcoZee/5G7Z9F5N0ysHqxpbduHei2XV7q7g/xV1q7fhpsyaNb79DS0b3/H4/B962zruUxslqo2efk7p0hXSx/445wUkrYgAESACmhFwuVyfAoBzMgZAbt6o4xQU6GmBr4GifdDQsvE4KveSsqWdE6ZM25M9Iu+99HTHTdG2wjfQrOHZZwrHTnhzTknplmXVni2P9234/Dc0KC9N+0eZAcovHHNYtN0wHWNs+6BBg57TbOBTRkSACBABxtgMGcGEaVc2rKXd/1GEv0rl+gCVMb4pjps45Q2H03lNtl3UpkfDYNTowiNzF5RtWeVZt9Pj8/eqLDMpfZXtPtTluqy2PcLcdx836ZK0IgJEgAhoRiDw9v9RGIHz+Fy/muvZuSNOets6HpDCEJoBuIHHwqbOmrcDgyqp4Z2Ie9AgGDNu/IGyippOd2v7WWpbobZ9yjhyZGT0irYd5/y7mg16yogIEAEigAQ455NEhdJAOlxrJgURl4Loq1rdunfqzDk7ZKbzB/jr/Zdz3l9QNPbQ0qr6LZ42fw+1dVxt/cQIyMsveEe0rRhjPS6X6zdIahEBIkAENCGAEcQA4H1RoYTpcvNG4to/vf2rmgb2X1q8vHLzsKzhUvstZNpLNi0e9cTIj/XNGyjug6o2/4WxMLdk0RZJ/nM1GfiUCREgAkSAMZYnKZAeVnrX7aI3wl8I+XAsGlo3nphdvKDL4XDcluVtpPSji8YdDLR/X7h607Wn+wUaTZLt9yEe1yXJRQSIABGQJfAcABySEUj5BWPe9rZ19JOgf1rQD/Bwt7afmV1S2sU5fyDD2ehp8WRCIAYE9YUYswK4r0KyPYtkBz6lJwJEwOYEAECRFEQP8Xz5gLKjv8FGgP/KY8Uv7/RF9UZM2bbUIj2eIqhfu+EQ9YXgvvD059qm9bIGwLsUA8DmwpuqTwRkCQCA1Hrk6KLxb5Kgf1q442xIRd3qHUNdrm4tFKoZ88ANgzPmlXS6W/2XqX880z8ebwgcM26ibCTAdNnxT+mJABGwKYHU1NS/klUu9Pb/tHBvaNl0DHfKy3K1SvqMoa4ry2o8XeQc6ul+gkYRzpJItvNrNhVdVG0iQARkCTDGmmQEEG7+ore7J4L9NgZ40cDHu6mm+9X2n/zRYw67W9tPUH950l8ezwKgJ0a1DMPc188Y+2NZOUDpiQARsBkBAPg8ANwKI1RUK6DaJt8+EugdDz2t7R+ggpNhaYe0eHQwMBvw5Ey83fsPxs2QaXvO+UqbiS6qLhEgArIEOOfzZQRPQeFY2uTV1vH4+KPTmdEjw9JuadF/gLetg2IOBE4K5I0qOCrRB9Br5Kdl5QGlJwJEwCYEBg8e/HHZkL/VjS27bf72dhuD6EgIbtUzLWqekZ6efn/48OFXCwsLz0ydOvX43LlzD5eUlBycMWPG0aKiojO5ubmXMzIyhIMHqSlDPPfk5o18D6MY2rwPPZ4JQQ+a8bALc2++TUQXVZMIEAFZAgDAwggR1QopKyf3tL03dfkvjSwoPCLDUDRtdnb2leXLl+/53ve+13ngwIGuc+fOHejp6bnU29v7UOX/GxcvXjx67Nix7a/NbFJPAAAgAElEQVS//vrmhoaG7RMnTjwhWh6ZdOj+mAzJx3sCbuNmSQmW22RlAqUnAkTAJgQA4D8khM3D8lW1nXZ9c8P1/uycvFMy/OJJ63K5bpSVle3r6urqvHjx4pHe3t4+lYperUHw+L6enp6Lx48f3+Hz+bpwFiGeMsrci86RaF9Ax8P5pUs6JTj2p6en/5FNxBdVkwgQAVECDofjtwDgjqiwSXc6b9g1RGxDy6bjmVnDPxRlpzadoigPUOkfPnx4W09Pzy09FH6sPC9duvTeq6++2pmXl3dRbblF70OfAaXlFbY1KtGYxhMSyEGUIQBQfABRoUjpiIBdCADANAkh83DugkVb7Pj2X7du/eGMoS5dN/tNmjTpvd27d3devXr1ciwFncDf7504cWL3ypUrd3PO+2T6Tqy08xa+tNnOS0ujxox9KxajSL9zzt+0iwyjehIBIiBIAAAORhIisa7jGwoGtLGbAVDb1LYPj7DF4iP6+9SpU48ePXq0s7e390ECFXtcSwRYrkuXLh1fs2bNjvT0dN1iGsycV7LVrnElNNgM+KeCYoGSEQEiYHUCnPO/FVVSmK5owmTbnfuvb95wxOFwXpfhFikt7tQ/derUnt7e3n4jK/7QsnV3d7/f3Ny8FZcqItVN5nrxonK7LgfckjlSyjkvtboMo/oRASKgkkBRUdEnFEX5Jp7555z/BACkFNnKhrXb7fT2727ddGqoy3VZRpmFS5uVlXVl7969P9VrQ1+owtbr+8WLF9+ZN2+eLqchyipqbGkEYLjocH1G5bUjKkUD3UYEiIDVCOD5/rS0tK/hhiAA+AFjTLM1a4fTec3b1nHTLgaAx9d+ISs75wOVglfVEUpcQlmzZs02g63xx70UEGJQ9ONmRTyeqDWrirpGXA6wldfA6tW+NyQ5fslqco3qQwSIQBgCgwcP/hXO+T8BwAIA+Jmsa99oggffTOwijD1t/p7ckfnvRuMR72/5+fkfnj179kCI8pRVvoZJj8cIy8vLpdzahjJVFOVedWPrHrv0u0A97zkzMtC7nyqjMvQ+xtiYMKKCLhEBImB2Ai6X61Oc82/jWh8A4Lnh26ECQK/vdWvXH7CJIO6fOGXGbi05lpWV7enp6fnIqso/qF7927dv3+FwOO5rxQ/3X9ht4ym6Spbg1252OUflJwJEYNCgQejjmzH2LZzSZ4y9nkiFHyyAhroyP/K2dTywgwGwZGWNjEOWp97acJPca6+9hrv7dXHeE6R4DTMTgGVC74SjRo06H9yHZD6j4yU7+Z6obGyWMUC7XS7Xx0iAEgEiYDICQ4YM+QwADAGAJQCAbwF3ZQSnVmnR570dlH9984bDiqJowhw9+J05c+YNoyppvcuFMx4Yh0CrPjh55uwdduiDgTreRodbEuy+bjLRR8UlAvYjgApfUZR/xSn9wBu+sIc+CWHx1FtruHxqmnz7rS58cd0/a3i2Ji5ws7Ozu8+fP39IbyVr9Px7enpuvPTSS/vC9SmRa3baFDhx6sxdIowCaYrtJ02pxkTA4ARSUlJ+nXOexjlfDgA4zafZWqmEsIhqAGQOy7rgbeu4b3UDYNK0WTIC9wnD/Pz8c5cuXXrH6Mo5geW7U1NTIzOl/YQtvhW7ff73rd4XsX4YH0FiTF8LnAKah0uIuFnY4KKRikcErEcgPT39s4wx4JyvBADcIa2L4xQJQfFEuEbK46UVtZaf/l/lXrs9Uv3juV5YWHi2u7v7XAKVq6HW/qPU+4Hb7daE8Zhx43Ezar/VjQCPz/8h5zzm+FTZP3FmEZcUX8ZIoM8///znrCdtqUZEIMkEcGABgAIAlQCwHwB09Z2ucvALC5G8UQVHrX7239Pmv545LEt6wxqeg79y5cqJKErQLMpar3LeKy8v12Q5wC7RA7U+ihokLzDo0GHOuZtznkuRBJOsOOjx5iQAAJ/nnDsBoBoADphd4QcJiIfZuSNOojMcq79podvZ4HqLfM7IyLh+4cKFg6T8e2MZDzfnzZsnvTEQ3eV62/yXrN43X3xp+WaR/iiY5ixjbAPnfBJj7Kt0ksCcOolKrSMBh8PxO4yxoYyxWgA49MgBj0z4TuE3c8EBrup56HwlsOv/htUFbEPzxne5okjtw3A4HPdOnz5t293+8Ro9PT09l8aNG/e+bB+2g2Oq+uYNKGNUjVsd7usFgB8zxkoA4J/RB4mOopWyJgLGJIDuddG7VmAN33IKHwWHoqTfwVCkpUtXbMa1R6sr/kD9+kcXjROOjDggcLdu3Yrn/GO9+dLvQYwuXrx4PCMjQyq6Iuf8QUPLpmMW76t9rsxhFwb6WpL/3nt0RHkHAKzAZc6UlJTfNqbEplIRAY0IOJ3OLwLAziQPPM3fANC72riJU95Y/PKqzQEPf7ctLkif8Se/yrMWhZkU22XLlu02WyQ/oxgr+/fvl9nl/rjd7BCdUjI4kFT/VjE+MBDUas75SM75VzQSu5QNEUg+gYBTHlzX13sQ6Z7/UFfmpQlTp+9YsqLmpwGFf9duCj+kvg9yR+SfkGlb9O1/9erVK0ZRqGYsh8fjkTbCate88mZI2z5j7Jn599qmNjPJIDy54OecT8WgZDh7mnxJTiUgAgIEGGPLZBREMtOiQxv0J768trHL3dp+wswCUI+yr2xYI+Nr/SHnvO/s2bO06S9oWl/EAOnp6blWVFQk5XwpcCzQUko/tM+PGFnwTjLlicSzr6ODM8bYQsbYv+BLlYAopiREILEEXC7XrwIAOtPQ/e1cg2f05eaNOj63pHTLyoam7R6f/3yoAKHvT4WU7c/NG3lchvv69eu7RBQepXl2r8Tp06eljwbWrVv/lpX7eFVj6x6Z/mqgtLjhFuuCx6QzUlNTv5BYyU5PIwIqCDDGUg00aJ4yQnCXfkHR2EMli5d2Vje27Pb4/N1WFn5a161mTatUyNqcnJzLPT09NPUv+fYfbAxVVVVJ7bNBL45a9xOj5TdzXslWo8okyXJh2O11nPMC2kegQjnRLfoTAIBpkp36KaUtk5fT6bxRNH7SftyhX7umDdc7bxpNOJmpPLhxTKY9Dh06tDVYedHnZ9/q42Vy9erVcy6X66ZEu/TZwEXw3Wmz50stXUnw1UyeqSjDG/xRcBT9pTw9gQhEIBA4+5rITv/kWRlDXVcmTpu5C8PSYnQ6O/jhT5QB4WltP8U5Fz7K+cILL7xFu/7lFX44A6Grq0vK6Q3OiCWqHyXzOdWNrXvGTpy6V9Z/hQpF/EQmJene1eSMKIKCosv6Eni0yevFRHV6V+awc1NmzekqX1X/84bmTW972zr6kilgrPzskrKXpZTM2bNn3wynvOiaJkbBzREjRlwWHXdDXa5LXl/HHSv33+C6eXwdN+vWvnJ48bLKbeOnTD/gdGbIhA9OtrIP+3zGWKO+kp5yJwJhCOhlAODbJx4/m11S2oU70d2t7WeDBzV9fmqzntY7u++7ModdFFUw8+bNw7d/cuijI4POzk4pA22VZ91OG4+h+/XNG46UV9Z3Tp4xZ6eBHAiFVe5qxyFGTw0joukSEdCPgFYGAOf8/oiRow7NfXHx66vc67a7W/2XbSygtFboceVXs8Yntfnv1KlTe8gA0NcAwmOBw4YN61GrHELvmzx9tp0NgGfGg8fn/2hlQ9PueS8u3jFyVAH6vRBe/gplnajvjLHt+kl6ypkIhCEgYwBgEJ2F5RWba5t8+7w+v+X96ZvFoJHZRT1t2rRjtPavr/IfMK5+/OMfC88CKOnpt2jMRZtF81/Bk0O4XwJdf6ML8EQpconnYETVz4cR03SJCOhDQMYAQOVvFqVoo3LeG+pydYsKoYMHD9LOfx2n/geUP/7t6em5oCjKA9G2WtmwdruN+vUzb/1x1v12XdP6g2UVVZsnTJm2x5mRcVWUu57pGGN/p4+kp1yJQBgCZABEe4sw32/o/lhUQGHQmp6ent5gJUWf9Z0NKC8vf0O0vfCoXJxKUFaJWiq9u2XTmYq61dtwn1Ju3sj3RNtBy3Sc82+HEdN0iQjoQ4AMAPMp+WhCXyauutvt3k4KX1+FH8r36NGjwufdM4YOvUInaTQdvx+hJ8KSsqWdBUW4bKDc1VK5q8mLDAB99BzlGoEAGQCaCpCkvyHljSo4pkbQhLvn/ffffyNUQdF33Q2Cmy6X63q49lBzDXfDRzMI6Tfx8e1p81/H/U3omAwdlKGjMjVtInMPGQARFBVd1ocAGQDiAsJowtXT5sdd5biRKO7jSLm5uZd6e3vvk8LXXeE/c7xyzRrxgE3oRMto/dDC5XnQ0LLp5LIq945ps+fvHZY1XPiobaQxSgaAPnqOco1AgAwA6xgAMr7/Gxsbt5HyT7zyR+YyywB2iA1gZIMCjx9Wepp3FC98acuo0YVHRA3wAYOADIAIioou60OADADrGAA4VTkgSOL9e+DAAdr9n6Dd/6GGFp4GiLe9Bu5Hh09GVpB2K5un1X8FTxoMtE+8f8kA0EfPUa4RCJABYB0DYPzkacKhVK9cuXImVDHR98TNCEycOBGd18S9dINpKCy2scZwzZo24ZMdZABEUFR0WR8CZAAYS3jIvDENyxp+TkSJFBQUnCNlnzhlH471+vXrt4i0HabBpR+ZfkNptZUBZADoo6soVx0IkAGg7eBPljDFDYCi0f9o/T+5yh8NgqNHj24XNQDKKqppI2CbccYxGQA6KCrKUh8CZAAYR3DIGA/16zYcFlUgmzdv3hzurZSuJc4wuHTp0lHR9ptdvKBLpu9QWm1lABkA+ugqylUHAmQAaDv4kyVMV3nW7hBVIMePH99Jyj5xyj4C6xuiMzhFEybtS1a/o+c+Kz/IANBBUVGW+hAgA+DZAWxGoYbTwKIGwMWLF49HUErPnFmn+/QzFEaNGiW0hyMrJ/e0GfusVctMBoA+uopy1YEAGQDWMADmLygTMgAetX9fb2/vbVLs+il2tWzLysqEdo9jpDurKlMz1osMAB0UFWWpDwEyAKxhAGBgGJEZgJEjR15Qq6DoPn2NBJ/P1yXShpiGQgMbZxyTAaCPrqJcdSBABoBxBIfM2864iVOE3h4nTJhwkhS7vopdLd/vfve7QrM4aAC4W9vPyvQfSqudHCADQAdFRVnqQ4AMAO0GfjKFaP7oMUKnAGbPnn1ErYKi+/Q1FF577TVhD3Lu5o1Hk9n/6Nm/kCNkAOijqyhXHQiQAfCLgWtmITZiZME7ItPHCxcufJMUu76KXS3frVu3Cs8A1DdvOGTm/mulspMBoIOioiz1IUAGgDUMgNwR+UKuZFeuXLlbrYKi+/Q1FPbv3y/sDbC2af0BKylRM9eFDAB9dBXlqgMBMgCsYQBk5+S+LzIDUFVVRT4AkhQEKNSgOnjw4FaRNsQ0qHTMrDStVHYyAHRQVJSlPgTIALCKAZB3SkR5lJeXvxGqiOi7vm/6kfju3r1beAmgdk3bm1ZSomauCxkA+ugqylUHAmQAWMMAyB2Z/66IAfDCCy+8FUkh0fXEGgLoklmkDTFN3br1b5lZaVqp7GQA6KCoKEt9CJABYA0DYNTowiMiymPq1KnvkqJPrKKPxPvVV18VngGob954xEpK1Mx1IQNAH11FuepAgAwAaxgAhWMnvCliABQWFn4QSSHR9cQaBjIhgd2tm06ZWWlaqexkAOigqChLfQiQAWANA2DyjDk7RQwAl8t1o7e3t5+UfWKVfTjedXV1wgGdvG3+K1ZSomauCxkA+ugqylUHAmQAWMMAwJCwIgYApunu7j4fTiHRtcQaBdOmTRPy5QAAfd62Dvz/kP4nnwEZADooKspSHwIyBsCcktIt3raOeyR0ki90SpeuEN5A9sEHH+wnZZ9YZR+Gd39GRsZNESPOlTnsIo3B5I/BgTYgA0AfXUW56kBAxgBAYaUoyj3cgFa88KUtFXWrt5FP8uQIooq6RuEz5Hv27NkSRiFRKOAE+gfo7u4WCgWMYxDdQA8oH/qbnPEXzJ0MAB0UFWWpDwFZAyDcG4srM+ujCVNn7ClbXt1Zt/aVt7y+DgpXqvP0bE2Tb3+4tlBzbdOmTWQAJFDZhzO2zpw5IxTMCdt36qy524MVEH1OrhFABoA+uopy1YGAHgZAqNJJT3fcLCwaf7Bk8dLOKm/LLq/PT1OWGhsEOPMSyl3td/IFkPTp/4ddXV3CRwAXlldsJqWfXKUfzJ8MAB0UFWWpD4FEGADhFBHOEkyeOXvH0sr6LTRLoInw6nc6M3rCsY51LT09/X5PT8+1cG+mdC0xxgF6ZIzVTpF+X9mwlmYANDaogxV6vJ/JANBHV1GuOhBIlgEQKsxwlqCgaOxbuJeg0tO8w9vmvxTvwLP7/aOLxh0M5ar2+6lTp/aQsk+Msg/D+S4ex1TbVqH3uVs2vWf3vm+k+pMBoIOioiz1IWAUAyBUqOH3rJzc09Nmz9+GswSBeOf3jTTQjVaWuSWlwtHk/vM//7MzjGKijYAJ2Btw7ty5A+H6v5prDofjNp3E0WQGTbMjlGQA6KOrKFcdCDDGStQIGiPc43Q6b6DHuxdfWr65urFlt7vVf9loSjiZ5VnZsGabaDtNnz79GBkAyZkB+OlPfyp8hBNnfZLZ5+jZvzA+PG3+69WNrXvwpUV0HHLOv62DmKcsiUB4AgAwRbSzGiHdM3sJ2jru2lUouVvbz8i0yZUrV06SEZB4I0DCAdBDNIbt2t+TXm+f/0ZtU9u+krKlnbh8qSjKXZnxh2nJAAivp+iqTgQURflX2U5rpPTpgVkC3Bld1di6x24uUjOHZV0QbY+f/OQnm8kASKwBcOnSJVHvfw+xnatXYx//xVsofdaPhcfn70WZUryovHNkQeERzvkD0bEWKR0ZADopOso2PIGUlJRPAsD5SB3SCtezc/JOzZj7wtZl1Z4t7tb2E1YWklhP0TYrLCw829vb20dGQOKMgO9///vC0//4xun1+W9YuT8ns26eNn8PLjWiwkdnZ3oo/NCxSgZAeD1FV3UkAAATQjuilb/n5o06Xtvk25dM4aLXs1e5m4QDymCbnz179k0yABJmAPSNGjVKeMamaPyk/Xr1I1vm6+u4WtnYvHt+6ZLOvFEFRzHGQqLlIBkAOio6yjoigecAoCPRnT2Zz0NrfkX9mq1WE3Qen7+bK8p9UbZut3s7GQCJMQDw6KVoO2G6JStrOq3WfxNZHxwrVY0tu+YvKEOFfywZCj+0/ckAiKij6Ac9Cbhcrl8GAG9oh7TydzxC1dCy8XgihU4inlU0YfI+0XZTFOV+d3f3KTIC9DcCSkpK3hJtJ855P276TER/ssozPK3+K5Xedbvml5Z15uUX4N6LhL/hx2pvRVG+qaecp7yJQFQCaWlp/4cx9p8AcCdWZ7XC7+OnTLPcJqqK2kbh0MDYpi0tLVvJANDXADh79qzw2X9so/xCCgAUyzDBY8KrPOt2zl1QtiV3ZP67aDQZXWalpqb+YVQBTT8SgUQQcLlcn2KMfYtzPgcAvg8AHxl98IiWr6F1o6U2BuLUpsyRJIfDcbe7uxs3BJIjIJ0YLFmyRNj1L/Zzmv4Pt9vff2mVe+3OuSWLtuA+HzMo/BCZdToRsp2eQQSECDDG/pgxlgcAHgA4ZMQptJAB9fioVKxruMs31tuE2X7HOAux6h3t9/Xr11OEQJ2U/4ULFw5HYx/rt8e7/8lV9kMMKoZuw9EDZm7eSDMq/KfkEzplExLMlIgIJIOAy+X6Dc75vwPAIsbY6wBwLZbwMuLvWdk5lltLlXFHim2EAYIuX75M3gG1NwL6iouL0Xh+SvjH833yjDk7zWaQalNe/6VKb/O+4kVLdo4cVXCCcy7MMB7eCbr3XQD4dDLkOD2TCGhCwOVyfYwx9tXAsUIfAJxI0OCRFgQNLRvf0UZIhZuaTMq1PjRsZPgHwgT301KAdkshBw4ckNqfge2Jxp3F+moEP/z+CxjpcA6+4Y/IN40sERhz73POv6KJEKZMiICRCKSmpn6BMeYAgBWMse1G3VxYunSF5Vyqlq+qF44xPyDEDh48SBsCNZoF6OnpuZqTk3NlgK3IX9zM5m3r6LesAeDruIObWEeOKsRz+NKGvcHzuMsYawSAzxtJZlNZiIBuBNDzIB514ZzP5Jx/1yheCFHgWE6o+vw3nBkZV2WEYHZ29pWenp4rNAsgPwvg8/mk3/6t6LtiYNzhLBxu3pPpryZIi1P9qznnuc8///zndBO0lDERMAuBtLS0L+OAAIB6AMDjUZr72I4lGHDHsLfNf2FAGFnlL8ZEiFX3WL8vX758d29vLy0FSMwEvP/++2/I7krPzBp+zmvRYFcY7tvhcF6P1RdN+DvOZKB/lWzO+e+ZRSZTOYlA0ghwzn+Nc/5vjLGFnPOfMMZ6EjHwK+oaLekZ0JGR0SvLb/v27Z00CyA2C3D16tUPcSZFtg2WVbu7rGKYhtTjRuawLKvEI3mbMdbAGBuGy59JE6L0YCJgJQI4SxA4gojW9NsAoLlTDzw6FyKYImxOSsqmPuGylL68SnoWwOFw3Dt//vxbZATEbQT0LVq0aL+s8s8annPWqm//6NNAlk8S0+PmRC/KppSUlN+3ksyluhABwxJwOBy/AwAKY2wZAGAEvNuyQsDpzOjxtnXcs5wR4Ou45socJhx0ZoArRgu8evUq7QeIYynghz/8obTxhfxXNjRts1y//O8wxv2yp1UG+mcC/qLr4IMAUM05d9LmPcOqByqY3QgEYhn8PQBIbSKqbWqzapTAbVoIyDlz5hzq6em5QTMBsWcCtDjyh21WUDT2kFV3/tc3b5DyiaBFn46SByp8nL2pxJcN2rRnN61C9TUdAQBYFWVAxzxWhGeOLfqm9bBo3CTpqWhkW1ZWtqe3t/cOGQGRjYCTJ0/uQWdKMn0xkLavft2Gw1btkxiJTwNGMce1ymfg5uO9j/YgrWSMQXp6+mdNJwCpwETAzgQCngmFBYIrc9hFb1vHAysKXE9r+ylFSdckyFMgbHAfGQHPGgHo6tflct1QqXSi9lUrG6Teto6+zGFZ0ktTEpxR4WNMBpzSd6Wlpf2mnWUn1Z0ImJ4ABjECgFsSQuFhXdP6g1Y0ALBOL760XJM1aeTb2tra1dvb+4CMgF8YARcuXDiUnZ3dLdP/BtK6Moed97T5cV+K8AZQI6etWe0TDls9wCjOvzgjgzEyluKLAp42Mr3AowoQASLwNAE8OhinYHjqLWx+6RLLBQcKUgQ3s3Ny35fhE5y2srJyR09Pzy0yAnoffvDBB2+6XK6bwXxEP6PPgKrGVsuFqg7qhw9nFS+QdowUg+9dAMC9Ly89UvxDhgwZ8pmnJQV9IwJEwHIEAGB6DMHwlMIPvXfYfztc6QsWVlb6XN+84ahWSwHIrrS0dH9PT0+vnY2Ao0ePbsejkqF9SfR78SJLG6EPvb6OO7JeKsOwvcM572KMLWaM/QsF17GcaKcKEYHYBBRF+V9hhENUpR96v9UDriytqt8SWmeZ79OnTz/W3d19xoZGQH9XV9dmzjnuGI+rj0W6P3/0GNz0d9dKRmdoXaoaW3ZFqn8c1/HoL7IvZYwNxuW/2NKB7iACRMDyBADgSByC5BnBbVWnQMGCeOqseVoI4SfsMjMze44fP77dLkYAznpUVlbiJrInDGQ/O50ZV92t7ZYLTx3c7/DzuElT90qwws17QzCuiOUFGVWQCBCB+Ak88hS4QELAPFQU5a63zX8pVHBZ6bunzX89OyfvlAyncGkx6E1vb+9dKxsCFy9ePFJUVCQVbjmUHa77V3rX7bJSHwtXF3fLJuQmM2Pyo/glAqUgAkTANgQYY38cKmDj/V5WUWPlzYCPd5ZjEJZ0p1OTI2vBfGfPnv32pUuXjlrQCLjz85//fLPD4cANZpq9+WNeeEIjnMK02rWSxUtlz/5n2kaQUUWJABEQIxA44ysspLNzR5y0qge2YKVS0+Tbr+WmwAHFiOviOBvQ09NzzQqGwNmzZw9MmjQJfb8L96lIaafPmY+ufvuD28WSn30dd4a6XJcjcVBx/QpN/YvJQ0pFBGxFgHM+U4VAiSrM69ZZ1ydAsIJZ2bB2u+S0bESO+fn5F44dO7bDrCGFu7u7z6PjI9m+FCn9hMnT91oyBkUY/wUV9auljv4xxmptJcSoskSACIgRwOhcskpt6qy524MVpZU/L62s0/RkQKjCmzJlyjtHjhzZYhbnQd3d3efa29u3ZmRkaOI9MZQHfi8ofOzn/6aV+1Vw3fCEQzgOaq8xxv5GTBpQKiJABGxHAABeUytcwt3HFeW+HXZlDwjpheUVmnkKDMcTr02aNOm9o0ePbuvt7b1vxKWB7u7u07h0occ6fzCT3BH5J7xt/isD7K3+t755o9TJHM75m7YTYFRhIkAExAkEwnZGnJ4OFsiRPs8vLbP8ZsBg5VO2vFp2k5Yq3ugyFxXtxYsXk75ZEL0ZHj9+fMeKFSv2KIqCx8xU1UH0vtyR+e96fO0Xgrlb/TPOponywnSc8wJxSUApiQARsB2BwYMHfxwAzsoIHqfTecPj83dbXUAH1+/lKjcuB8gc1YpLgc6YMePo9u3bOy9evHg8UbMCPT09V0+cOLGrsbFxm1bBe9T0s6Lxk/Z7fR3Xgnlb/bO7tf0E51zGsLpEjn5sJ76pwkRAngB6ClMjmKPds6C8wlazAKiQKhubd6enaxM9MBrb0N/y8vI+wk13Bw8e3HrlypWTWi0VXL169fLp06ffePXVVzvxmGIi3vRD6zZ5+mzc7X/b6go/tH7TZs9Hn/xxGYXB9zPGyuUlAeVABIiA7QgENgNKxWZ3OJ3X3a3+y6GCzerfa5vaDjgzMq4FC+NEf8a1eNw3UFVVtfOHP/zh5v3793eh7/2TJ0/uPnfu3JvolOfSpUvvnDt37i1U8DiVf+DAga6urq7O5ubmrcXFxZpF6JOp+7wFi9GItGyMiUhjwdPafprLLavcxzFsO8FFFSYCREAbAgDwPSlBN0EAACAASURBVBnhjWlLypbabhYAhXpDy6bj2SPy3pPlZ9f0DofjNi6pRFKQVr8+c17JVsm236SNFKBciAARsCUBzvm3JYXQQ9wLYHX3wFGU0Q0NBLnwFLBs2yUr/fCcEacaWjYdi8L1sUdGq/6Obn/xJI0Mf0VRvmlLoUWVJgJEQDsCALBbRhBh2rKKKlu4a42kkFbUr9mKhpAsRzuknzpr3naMtxCJpR2uzy5eIOX4BwB+rp0EoJyIABGwLQEtjgTiG50dBHe0OrpbNr2Hx9jsoMRF6pie7ri5rNrdFY2hHX7DpSPZt38A+I5tBRZVnAgQAe0IlJaW/pJsmGBUCHZ/qwsor3voL0CPGAIiStcoacaMG3/A3brJ9kYi9pFxE6fIhkreqd3op5yIABGwPQHGWKGsssAzzXZ4g1NTR5wNKBo3ab8sU7Ond2UOu1BRtxqP+Fl6TV9t/aoaW3Zp0KYpthdYBIAIEAHtCGAkMQC4KCOcvL6Oq2oFoV3uq/S27B2eMwLjvNtqo5+iKLdfKC1/3W6OfaL2a1/HHQ36wl7tRj3lRASIABEYNGgQAHxdxsPdUFfmR1GFn73fAO8urarfkjks67zVDQFFUe7hBjevr/0c9YenZz1wo6xs+zPGgAQWESACREAzAoE9AHtlhNP80iW29AUQp5K7jZEFs7JzPpBhbcS0Snr6LVT8dgoQFU/be3z+8+mSp0Q4512aDXrKiAgQASKABDjn42WUCu5obmjdSOv/6mc57q9yN+3AkLcy3I2QFtf4S19etdmO3iDjMQCmzpq3Q7K9+hlj/0ASiwgQASKgGQGHw/E7ANAtI5yKF9HbfzzKIPjehuaN72JUxYyhrisybZDItGjwTZgybQ9uaPO2ddwPrg99fnraH3nUrPFJbwblnH9Xs0FPGREBIkAEkAAArJNRHpnDsi7Q8b9nhb6AIrxXs6Z1L3oVHOpySRlkMu0ZKS2u7WO0vmU1ni5vm/+KQP1sewpg+pxiqYA/AIAeA/+UJBYRIAJEQDMCnPN/BID+SEJfzXWcyiZloIkBEKwgH9Sv3XBoYXnF5oIxY99SFOWumrbQ+p7s3BEnZ5eUdlV61+2i3fzibZxfMOZtybbxajboKSMiQASIwODBgz8OAAdlBNPj+O3q172DFRx9jo/b7ZqmVw6WVVR34ttk3qiCY1oaBZzz/qzsnDMTp83chUYHTu3Tmr64wg81iPNHjzksM84AoJokFhEgAkRAMwIAME1GKKEC8rS2nwwVdvRdO8URg2UfHrVDwwAd7SxZWdP54kvLN+Mb++SZs3fgf1ynR69zA99xeaF4UXknHkdbXtvYhUsOj9vQ13EnxrPIYIvPYHuKlwbBoh5wzv9Ws8FPGREBImBfAk6n84sA0CtjAKCyIaWRMGX/lEIh7ubiXrW6VeqIbWCc7sNZO/tKLao5ESACmhAAgPUyyj9reM5Zb1vHTVJE5lJE1F5Ja69+LY58MsZmaCIAKBMiQATsSYBz/k+yG/+qvI+Pf9FbqcS0MCnjpCnjpPTbhpZN72gQAfAmAHzJnpKLak0EiIAUAZfL9cuyUf/GTpy6l5SXvZQXtbc27Y3eMmVm3gJpfyQlBCgxESAC9iQAAHNlBBC6e3W3bDpDCkEbhUAcbcfxhkZuoDPsKcGo1kSACAgRUBTlDwDguowBsHh5JW38o2n/pEyhW8VYQp8KMmMwkPZ8enr6Z4UEASUiAkTAfgQA4D9kBE92Tu773raO21YRxFQP2719G8ZwQX8LMmMR03LO6+wnxajGRIAIxE0AAIbICpzqxtY9pDRJaVIf0KAP+NrPyUYGxNDdFBwoblFICYiAvQikpKR8EgCOyRgAk2fM2UmCXwPBT8sHhnkLT3Z/RsdNMmMS0zLG3ioqKvqEvSQa1ZYIEAHVBB4d+VsgI2jS0x033a3teO6fhDcxoD6gXR+4nzeq4KjM2MS0nPM5qoUB3UgEiIB9CKSmpv4hAODZ4Yei/9H/PCl/Mn6oD2jfB+rWrX+bc/5AdGwG0t1KS0v7sn2kGtWUCBABVQQA4AcywiV7RN573raOeyT8tRf+xJSYYh+YW1K6RWaMYlrO+U9UCQS6iQgQAXsQAABFVrDUNPn2k6IiRUV9QMc+4Ou4ljks67zsWOWcZ9lDslEtiQARiErA5XJ9CgBOygiVabPnbyPBr6Pg124tmdblTc5ylbtph8xYDaS9kJaW9ptRBQP9SASIgPUJAMASGYHicDqveXztF8gAIAOA+kBi+gCGbpYZs4G0HutLN6ohESACEQkwxv4YAO7ICJOllXVbSPAnRvATZ+KMfQBP2jidzhsy4zbgG+BbEYUD/UAEiIC1CQDAj2SESO7I/He9bR33STGRYqI+kNg+UFZRtVlm7AbSHkPfH9aWclQ7IkAEniHwKNJfpqQA6atfu+EQCf7ECn7iTbwDfeD+iJEF70iOYTzy+8IzwoEuEAEiYF0CnPNfA4CzMsJjdvGCLlJGpIyoDySvD9Q1rT/IOe+XGce4BMg5/xPrSjuqGREgAk8RAIAVMkJjqMvV7W71XybhnzzhT+yJPfYBNMRlxnIg7eZBgwY995SQoC9EgAhYjwAA/DkA3JMRGstqPPT2b/LjZGRAWMOA8Pj83UNdmZdkxjOm5ZznWk/aUY2IABEIJvAcAPxcRljkF4x529vW0UcKxBoKhNrR/O1YUbd6m8yYDqS9DACfDxYW9JkIEAELEWCM5UkKir76dRsOk9Iwv9KgNrRWGxaNn7RfcmxjxMAmC4k7qgoRIAIDBFJSUn4dAD6UERJzSxbRmX+a+idvggbsA57W9lMOh+O2zPh+FA0UNxR+Z0Bm0F8iQAQsQoBzXicjHFyZwy562vw99OZorTdHak/rtGfp0hXSvgE45+8MHjz4Vywi9qgaRIAIMMb+BgCkQoniOiMpC+soC2pLS7bl3dwR+SdkDH1MyxhbSFKTCBABCxAoLS39JQCQCiAyumjcQW9bRz8pDUsqDZrSN+CUvuhYq21af0AD3wB309LS/swC4o+qQATsTYAxNkbmjYAryv2Glk3viAokSkdGA/WBxPaB6XOKtTgVsIV8A9hbd1DtTU7A4XD8FgDg8R50+Sn0v2RxeafFBTjObHzkbfNjREOa5bDQ27DF+23EmRt00pUx1HVFdMwPpGOMjTK5CKTiEwH7EmCMNQ4MZpG/mVnDP/T6/DesKUj9l+aXLukMdqKCGx0Xllds9rZ13LRmnRP7JkoMk8e7orZRCw+Bl1NSUn7bvhKUak4ETEpAUZRvYMhPEcU/kKbS07zDgkK8v6KucSu6Mx6oZ+jf7Jzc9ysbm3dbsO4R3xqprslT1jqx7y8sGn8wtG8LfG81qQikYhMBexIIbPzbLTDYnywTFE2YvE8nwZQ0JeT2+d8vmjBpn1ouReMm7W9o2Uj7H2hZIGl9VmYMelrbTypK+h21/T3SfYqi/Ks9JSnVmgiYkADnfFKkwazmuqIod1F4yAgfg6W9V7a8ulPQUUofbqry+vwXDVYnUyolYpjYmYYXX1ou7RsAAI67XK5PmVAUUpGJgL0IcM5/FwCuqlH0ke5ZuHQFroNbQsFgyNTsEXnvRaqr2usOp/NaWUV1p9fXcccqbGxWj/7aJt++xcsrN89dULZlycqazrp169+yAYNbWTm5p9X28yj3vWQvSUq1JQImJID+vKMM4idT/JHuyRqefcbb1nHL7IIRvRZiqFQNzkQ/xQz54B4Cb1vHPbMzskn5+1Y2rNmWnZN3KlyfHzNu/AFcGrIyi+rVvjfC1T3Oa3cxkqgJRSIVmQjYg4CiKH8g6/Gv9OVVpn/7x82LrsxhF+IUcE8p+lhp0RAIhEW+a2XlYea61azx7R85qvBorLbEpaFAv79t5vpGK/vUWXO3x+Kg4vet5BvAHrqEamlCAoyxQhWDOKqiw/X/Km/LrmjCxKi/uX3t58ZPnrZHlkE86bOG55xdVu3BIElkCBhk2ah+7YZDYydO3RtPO+K9OFVetbp1r1H7t2S5PnI6M3riZRLm/iITikYqMhGwPgHOeVmYARtV4Ye734RGwIMlK2s7053OG+Hqk4hrmVnDzy2trEdDwKJ+E4y/J6Sm6ZWDeHpFtr0nTZ+50+trPyepcA23h+blKvcWWTYA0I37jKwvTamGRMBkBACgWIMB/thgeGwENBp/JgCP6eUXjok5zasVl1j5pDscvXNeXPTThpZNx62mQAxZH1/HnZX1TXsLCscei9U28fyenu68sfjlVa9bbNNn36gxRYfj4RDuXsZYlclEIxWXCFifAGMMwg1Y0WsGNwJuLliyfIeiKPdF66dzuv7CceP3rHKv2+5t67hvSOVpkCl7ETa4ca+kbGlXxlCX1ImXWH0gO2fE8Zo1PsssCzQ0b3xXgzFzdfDgwR+3vkSlGhIBExHAs7o4RRdLqMXzuxGNAFynzcrO+SCeeiTz3mFZw8+VVVRtxj0KIsqO0jxZfrixyt20Y9zEKW9ofbojWv/AZ02fMx/DYX9khbaYNG3Wrmj1VfMb5/yvTSQaqahEwB4EOOdz1AzgeO4xjBHg81+cPqd4ZzxlN9i9/SMLRh8sX1XfGQg+ZLh1YgMquNuV3uY3ps2ev9vhcN5KZns6MjJ6/7vtOh4YkJOqvrSsxoORAvtlOeJsoz0kKtWSCJiIAE7NAcCPZAd4aPokGwH9y2sbu5wZGbpO94bWWc/vnPMH6GoY6+Xx+bvNqlD0KDf6cMA3fTy6lsyNnZHaP29UwdH65g2H9Ki7nnniJkCtZk4YY6kmEothizpkyJDPAMAQjHoIAEV6/cfTWWgwYXTWsAWhi0RASwKBjt0ZSYCJXk+GEeBubT8xeuz4A6JlNkM65DpzXslWrKueCsDIeXta20/jSQ40ihRFuWeCdutDR1PeNv8VI3MdKJuWyh/bJi0t7c+0lFmJzMvlcv0GANQAQKJnlB4AQDsAfCmR9aVn2ZCABYyAe4uXVW7TIpiJCZRJ4OSF4/aK+jXoZVDVdK7Z73O3bHqvbFnV1lFjiqRdNSerjZ0ZGZdfrnL/1NvW0WfU9tBq2j+I8YcYcMyMYjUtLe3LAHAiqC5xH5PWIO01nHkwIz8qs4kImNUIqFu7/kDOiJGJHqSGOE2AU7Sr3Gt3GlWZyJbL0+q/gjEVsnNHnNRAkCZDeId9ZkHR2EMNLZuOyfLROr3Wb/7YZoyxchOJwSdFTUlJ+XUAMIqxeZsx9jdPCkcfiIAeBExlBPg6rurhvz+GoukFgAkA8HkAWAEA0uFTYzwvrAIJToN7HSy4SfD2wvKKzUZc0w9mL/MZ93XMLy3r9Pj8vVorcpH89FD+AHDerGvZAFAp0746pD1g1pkUPXQV5akTATMYASsb1m4f6sr8SIdBFk3hfo8x9v8FY09NTf1DAGgFgL4El+WpcmIYVxGhb8Q07tb2s7l5I48nk2cin41xKFY2NKH/h6Qt5eik/K+npaX9n+DxYpbPnPNfS8Ka/1NjOlwf5Jz/u1kYUjlNTMCoRoCntf2D8VMS678fAM5xzp3RmjM1NfWvOOc/CTdoE3EtY+hQ3Fxm2HVl1crN13FNo3C0MYVpItolnmcUjp3wZkPrxoRv7NRJ+V9jjH0r2pgx8m+cc1c8bZeoex+5VXYbmRuVzUIEDGYE3MeY7M7E+u/vxwGHu4DVNisA/HOyDAF0c6xa0SbxbTNaGUsWL9X8NIqEcMZYEdUAsFaLs/BqyoEnGgKzOQmJEaGH8meM9TDG/kHtmDHifYFd/0Y0Ig8bkReVyaIEAODTAPAzNcIrnntQ0FV616mKIoibpfILxrwdT/4a3ItT0N8RbVbG2FcDSwN4lCchgmRp1ePgQkmbRo6m2FX+1qd3WGaVbXGJc14avHbNOf9bAEhY5MjMYVnnK+pWozdB3doTw1NrvXSFyl9RlG+IjhujpAOA/Sr7SkLGdlBZ+oP7pVF4UTksTEDfmYDmaDvYb75QtnQrbpYKGgB6D7i7KPxTUlI+qUWT4vlnAGh+FHhJ97PqU2fN26GnwtA7b3fzxmQHaTrJGJuIRm+4tne5XB975Dp7Ciq5RPXHsROn7PK0tr+nNXsdjvrhuLySlpb2tXDszHTN5XL9KgAY4pRPuH7GHwkoM/GkslqAQKJnAqobW/dkDc85G24A6HWNMbYdAP5cj+ZKTU39AgDM5ZzrFpMA3xq1VhSJzA/d5urVtlHy7WOMvY5rvmoD1gTaEjd+SrvIjVKuJ4aukp5+q7S8otPb1nFbi/bQ480/EFPk63qMnUTnyTn/NzXtkqx7OOfLE82EnkcEBiXICPho+pxi9D/+RADq/Rnf6DjnUxNxxMblcv0yKhtUOnrUCzdJaqEkkpHH5BlzEhm3Ad1EV6OjF9GhjTvcGWNv6dGO4fLEzZEY2EqmbXRS/hc55/9blKPR0uEMYDj+Brq202jMqDw2IaDjcsC94kVLOp3OjIRNr+KAfiS4vss5/71kNB8AfD2wwey6VsJF73VjGeUTK20CjnXitO6PASBbqyWeoqKiTzDGZgAAemtLiNGKhpLH5/8wFs/Q3/XY8AcAF/SaNUvGmMRnAsBriWpLwefgcmLYZapkMaPn2oiAXjMBgoNBVOieZ4zlGaHZMCxz0KyA1LTyf/ub12/jWKhS0eq7u3XTKR3bHzeQzsWpe73a2+l0fjGw6VOq/dQySE933AwsC9xV0wY6vflbTvkH9nkkzJhT296h93HOv61XX6Z8iUBMAnrNBIR2dB2+45pvQzxH+2LC0PAGfJt65IRkpeimwewReZpvGFOjYGTvqahtxB3posZcaDpUwnsfbeR6IdGBVBhj/wIACdvMmJ2T925tky/qsoBOG/7Opqam/k8Nu74hsuKc/7WG/TC0X2r5fYEhgFEh7EvAhEbA25zzfzRDiz0K/rFDRBBhbAB3q/+yrEJOdPoZc1/YKlLfgTSBfRx+DNX6yHfD7yazjXGfB844AAD6EdBS6EfKq3/qrLlbvD7/xdB200n5n+GcfyWZjPV6Nud8kkybVdQ1bnW3bDqj9n9JmbDfi9f0YkD5EgHVBExiBNxhjC1Eway6Ykm+kTG2TFQQVTY27w5VBEb/npWdc1qwvh/hdCiuxSe5yZ55vKIofwAAHYL1iqTsI17H/TNLKxvQJfQDbG+dlP/7Mhsnn4FksAuMsQ2i7SVifNetXf+m4POuqz21YjDEVByrETC4EbDVjLHIAYAJCoaHJYvL8ciYbg5ktM7b4/OfF60r59xv9PGUlpb2/KONh++K1jHedCNHFR7FQEqokOJNG+P+kxj7wui8ZcoHAGdiMIhogGXnjHhfYGzcUhRFNKCYJY5dyrQXpTUIAaNtDEzk0T49miAtLe03Rb20FRSOPSQgiJJmMGAgHFGhi8c39eCvdZ44Q4FlBQDNTnyIMhNMh5s0v6Q1FyPlFwjsFVHBx+I2c17JVpFxh6GhY+Ud4ffpRuJHZbE5AQMZAT/A6VezNwcAHIww8KMKKXSz7G3ruCkijJKRZk5J6RaRemIas3meS0lJ+f3AaYGobSjKQ490nPN3QqNgmn1shSs/Hg+V4bes2t0lMn4k4l/8R7h60DUikDQCSTYCPmSMDU1a5TV+MOe8TlQg1a5pe1NEGCUjTW7eKNHQv6ZdBw0s8ZwQbd8EpjuWLD8ZGg+nmNkBQL0M14bmje+KjB/csyP43IuDBg16LmbF6AYikEgCSTACcK2z9fnnn/9cIuup97MYY8MEBcPDxcsrcTNY0qb11T7b4/N3iy51oMMWvdtAz/wD/h/Q69xt0XbWOd1R9G+gJwMj5Q0AB0R5OpzOawObL9X2/YH7ZMYA5/xPjMSQykIEHhNI4MZA0xzti7dr4JuXqEAaN3HKGwMCxsh/Jd5+HuLJjniZGvF+PFIHAD8SbWud0h1MSUn57Xh5YQRNAPDhsgEGBwKAQxhSG8/Xx5tXIu9PSUn5dQAQDjpWNGHyPplxhv47RNqRMTYmkZzoWURANQGdjQDcObvATEf7VIMLuhEAhKbHHU7ndW9bx30ZoZSItHhiQUTwYRp0uhOEyvQfGWMOABA9DqnZngLOOR5N+3w8QNPT0z8LAN+L1pZ4xM6oewke+d0YEq3ssX4rXbpS6uTN7JJSIUdYnPOWeNqJ7iUCCSWghxHAOcfB8qcJrUiSHhaIFSAk3OubNx5JhBKXeUb+6DGHYwnXCL/fw76VpGbR7bG4fMYYKweAuxHqLdQX4sjrjXiX0tDxEr7pq3zGNc75TKP5bQCARSrLH5Z/9Wqf1IwbxvAQfP5J3TqjXMbPAUAKAKwJeOXE/S77AvKMJSLwmlzxKbVmBDQ0AjCC21g7bXxBz3aCguHhksq6LTLKOQFpb+KJBcH67dasgxowI1zb1StiZBTeu/FNPh4cAeWPsRbCKsYo1w8zxgbH8yw97wWAn0Ypa9S6cc77vL6OqzLjBT0Hij7faLMqgSBnqOyjcTtothM8evY/y+etwcbAH+ARKsuDCqlgYH042kCK+BtGjZMRSnqnrVnj2x9DSESsGwCsCEFlya+MoT+ohCwL7EXfE/FAdDgcvxPHm3+ktkz6kV30qCfjnyE3b+RxLcZKZtbwD0XGA24Wjqfd9Lo38KL3chx7Ke5i/9arPJSvwQgIGgGWOton0iQAcE5EMLgyhz3jG14LQaVVHqUvr9osUi9Mg+vlIizNmAbHTSBGvV7LAttwE1w8bDRS/gNGwQ2sX7L283DO/1a0H2I6rSJwTp05RzT+R108bafHvQFDVWQWg4wAPRrEqHkGrMRXVQy4PjwHH69gMmq9ZcoFAJtU8BoQpk/99bS2n9JKYWudT9G4SaIzAP2ogGSYmjEtRooEAGGjKUIf6nS5XL8aD4/AtL/o3o2n+mdwmRhjb3HO/ymesmhxb8BDY8RyBZcx3GcMAKTF2ChfVS+6IfagFhxE8gh4T/xBOC5xXLvNOf93kedTGnMSwA0iwx85Q3kjTCfBt5zvM8b+zpxV077UMhHKtBJOWgi4kDzuYUz7MO2vRhAf056yaXJ8jjGWAwBC08UhvH8W70ZKvZR/ULke+/RITU39QqJaRMbAxnK7W9tPhPRtIf8b9c0bRMNI98W7fCPLFpdNcDOnhhEvyQiQbRQzpsez7oqi/Ct68FMU5Zvxvo2Ysc7xlpkx9tUgAalGQT65Z1bxAk3eTrQQcMF51DdvULtr/EldghisiZeh1e7HmTHGWBUA3A/iEo5VpGuvoSOieLgkQPk/KSvG8gCAKYmIeAcAZwUZPnRmZODmv77gvi3x+YEzI+OaSFk452nxtKXMvfhyFjgq+qS9RMocJg0ZATINQ2mtSQCPzAScqsQ94IbnjDDkEkBZRbXodCcyyLdmS8dfK875/waAeI+Q/The5a/xmn88/fggY+xb8ZNRlwIDHIVRRKrLN37KtD0SCv+ZmQJ04CVYnqXqaix+l8vl+g0AqI5jk59qjkF1pj0B4k1EKa1KAAB+GDRI4hpY3jb/BS2FlBZ5TZwyXdT/+UM8GWHVdhasFy6p5QPARyr6yPqUlJRPxvOcRL75Ryg/Lgs0YzniKbeaeznnuRGeqWqMLZJ0ABQ6liQ2xm5TU1/Re3CGVnQzsgBfmgkQbShKZ00CnPM5AgPpsRBb5VlntOOA/UNdLowBoErIhtx33potLF+rQAjpGgAI51vhFOd8ZLw+NAyg/IP7yFXcD+NyuT4mSwtn1dAPAQBsDelfwc+L+bl6jU/ToFs1TcJHY+/EO6ujhmF6evofybx8SLAlI0BNA9E99iDAGPsH0cE0b+FLhnIIhFHTROvCOffbo8XFaxmYrh8eMBon494aEc9rBlP+wcp4P44HEUKKonwDACq1eJvlnD/w+jowCNAzU/kS14SdY+GeEK3CoAd8I8zScJNfcPup/UxGgEgnpzTWI4BnpAFAaNf8qNGFhnIJvLSyQWb9f5r1Wtd4NQoYEZof9RM1/MKk62eMNakJWJSamvo/AWAJAGgafjkvv+AdCUUf0WgYObpQhjsGNPo+HqsTMfqwJwaMJOHIiGHaSq3CD3cfGQHGEw9UomQQAICfiwwuzvl9T5sfgwNFFDqJ/G3KzLnbReqBach9qP49zwTKP1hRdHPOx4cuC+B0OGMsDwC2PAoahnsIgtNo8nnOi4u69Bg380vLtfL18F5gFkhVYKfAJr96ifDcmnAN01ZkBOg/7OkJRicgE7CktsknFa5US0GXOSzrfJhBrkZ4XEvEsTCj9wM9y6eH8s/KyU1EhMM38M2VMfY3jLGGwDFCNX1K+J6VDU3btRwXA3lVetftEhwfkeqCM4fVjLH/EanvcM5dGvmWiFQG2etkBERqPLpuDwLoL0FUMJSWV0iFKx0QTrJ/3S2bZJTBa/Zo6eTUUg/l/+JLy37qbevoX1G/evtQV6aaUwqyiiIh6Tnn/d62jo9kx0OE9Fcwf9GxHiUdbg5dGxxJNbDJ7/9GSZMQniqfT0ZAckQDPdUIBAJulMPt8I45SAvHTtB0t3IEwRVziQE9E6oc7M/UiTG20AjtYMUy6Kj8n/QJj6/j5oIly3dIRIB8pk+I9iXZdHkFo4+JjgE16bJzR5yULWOU9H0A0IHjSXRfUZS89W4jMgKsKICoTuoIPIqxLXR+XklPv+lt67irRvjoec/MeSXCBgAAfEcdJborHgJ6KP+FS1dsjtSP3C2b3isaLxwHQm8Foyp/PK8fqX5aXJ9VvKAriUpWFYMklo+MgHgGON1rHQIYBld04NU3bzishXCSyQM9EwqW/168fuut0+r61SRw3EvGKHtGWURT/sF9Z5V77c5hWcOFIl0K9qFnyiqaj6e1/WRwXbT+LDNTJlonPdIpSvodXH5E/wYOh/O6hs8gI0A/sUA5G5UAACiig6isoibZ+wBk1oB3G7VNzFwuABgt2p/CpVOr/IMU5k1M43A4bofLz4jXiiZM0n1Drcfn79VYYWpmh4SQgQAAIABJREFU/Khtk8Ki8QcbWjc+CZRUt/aVtzSuE/aZIWYef1R2IhAXAYfD8Vuix5omTpu5K0jwPlmbTdS1Sk+zULxzFDic85VxgaKbVREAAM3Oewso/yd90NPafnritBlCy1tqFZIW9+EbLUbtS8SYKV5ULuMvI+EKf4Cv05nRs6zajUckcaPkkzbGzzoYAb2c8z9R1dnpJiJgBQIAIOQoJGPo0CvhBmXoINXr+9wFZXgmW0gwMcYcVmg7I9Uh4OlPqD1C21FG+Qf3t+rG1j0Sy0Sa1CW0bgPfMfJflac5kW61bxiVxQCT0L+TZ87eESv2iA5GwH8ZaVxRWYiArgTwnHPowFP7PXhKLljwJuJz3qiCY2rLGXJfP25U0xWqDTPnnP9jCGchBaqV8n/SB30dd8oqqjY7nc4bWpRPJg80mnFmYlm1Z4vH5+9+UsaQN1u9ruOGyUwT7JPAMlY1tqqOjKi1EUCzADYUYHatMgAMFxVqgam5p6bl9BJewfnimib6Thcs9zG7trWe9Q4EwxFS+gPtmF84RreNpR6f/8Ops+YJLxsNlDGev67MYRenzZ6/DTfhuVvbcf36mWns4H6diM/IYfKMOTsN6KEPl+YeFC98aYuIp1EtjQDG2EQ9xwrlTQQMQyAlJeX34xFqwfdOn1O8LRFCK/QZOLUbXI44P68xDHwLFYQx9sdxtkNYY6F6tfo3v9B+oeZ73dpX3szNG3Vci7KGyyNreM7ZkrKlnYG1/aQr/EhMcDbgxZeWb87OyRM9SRO2/cIxUXNtxMiCd+rXyZ0s0tAIqLDQ0KSqEIHoBABAyFFI1vDsDyIJGD2vo+BSI1Qi3JMfnQb9KkjgOS2i4uH0rw5R8UJnqe6XV9Z34gazCH0kLuWmKMrdqbPmba9rWn/QCG/58Y69hpZN7ywsr9icM2KkpgGO1LBV0tNv4RKNt63jXrzlDne/FkYA53y54BigZETAfAQ45y1qBmu4e7y+9nPhBqKe10aPGXcwXFnUXOOcf8V8LWSOEnPOy9S0Qax75pSUJijktP9SwJkUerOLS+nj/eiOOODERy83vqGGi+7f69atfwuZJGLPBHoU9bS2n9JaVtStXX9A0v3xWHOMOColEdCAAGOsUEQAYpoV9U07tB7AMfK7hcenBMt7XgNclEUEAunp6Z8FANHgTE8UMApvFOIx+oFmyhCdWo0sKDyitk/h2v6SlbXoB+NWosqY6OfgPpulVfVbsnNy31fLRe19eAKiorYx7NE+LeqJ5VZbljD39WFMgwhdnC4TAesRwF2vYQbCE4Ec7be5CxYl6G3tv88A4xputPJE+41z7rde6xmrRgCQGa0N1P6Ga9MJVrB9y2o8XdGCDOEu/rKKalT8N7RQVCbJow+9LMZjIEVrY9yAqGPgIzQKP3JkZPRGK0OM3/7DWCOKSkME9CeA67cXYgyMsAYBbt5JpCDDKVeRcmIazvlU/VHSEwDgB6JtFJwON9Mlsm8FnnUL3yDHT562B42BzGFZF/JGFRzFdWqR3elJKL9mMyOhZa/ytuzKzRsptIEyM2v4h5g+NE+tv0+fM39bcB+K8/OttLS0L9MIJgK2I4ARveIcLAMGQV9D88Z33S2bziTiP64bCpbzYVpa2tds17BJqDDGigcAaV/tXFHu1zdvPKK1kqD8nvaoFyePBzh9H22mJHh84gbJksVLO70+v+6zJrVr2t6UWftnjM1LwnChRxKB5BMAgCnBA9eCn69hsJrkk7ZHCXC2RYs+hA6ftNohHqei0+1N2grlwNkQPI0TKe4CKmKc7tc70FEQy7u5I/JlTjEcKioq+oQ9RifVkgiEEOCc/7UWAtvAebwWUmX6qiMBl8v1MdFw06F9KHBMjBRygjwGBinVmMzdre1nixct6UT/B+hcCI9x4r4gPFoYTz6y92IfCe03cXzvUxTlmzoOB8qaCBibAApsxpgm56LjGHgDywiJ+LvA2C1gvdIpivKXAHBPtj/gqQ90XCOrJCi91NR/TGMgWXzdvvZzMscWH8WxcFtv9FGNiECcBADgR7LC2sDpvxMnDrpdAwIA8LIWfWLUmLFveds6+pKlZOi5xjUeJk6duUuij53H46sadHXKggiYm8Cjt7ViiYGUiLd40Wfcd7lcv2ru1jFn6V0u16cAQGjneGhfRO99pIiNq4iT0TY1a1r3hvaTeL5zzrPMObKo1ERAYwKMsf/X3pkAR3Wd+R4nkzcvk2QmM/MmyZupN1V5mZqq2bdkZjJJXvnVm2c/pPOdXqQGbUiAhYTZJCN2y1hYNmBkkNDazSIktczWSlzlSU1mnDiIfTMYAzabDTaGGCQkJCyzSzx/RE01TXfr3nNv3+7b+lNFqfvec8493++c/r7vnuU7P9Tz47FLWiHEPpNRoTgdBIYPChoy2l+cTtdnTf7Ah4kwNHhmUjoe17Nycs+r9isp5X/o6MZICgKpTWDs2LG/SUQ3VH9QSZzvldRuueSXzki46dB+xdtA7RhvHw6E+Q4EHx0d2jd0fr7udDq/k/y/HNQQBCwkQERGwmiqDtHHNZ8QwmUhQjwqAgGXy/X7RHRZp5KO2C9eXu21NPokjLf5xtsoUz5DINoWRC19DHv+I/xIcQkEiOhFLT8gG6UZcrlc30DLJp6AlDLPjH7jcruv8cpvo0YE+ZPPsGttk6kzZh020Jew5z/x6gA1SEYCDofjnwz8sCK+sSW4vHeTkfNorRMR/acZ/aFo2swDmAqwrwHXaugjpVvZ2LzbQB/Cnv/RqnwgtzYCRPRLAz+wpHIChBBztUmNVFYQ4FjrRPSZGf2rqn7trkgGAtdS2DHwd1zj8xkM9B+vFf0czwAB2xIYVtJXDPzIksUJOMHb0GzbEClacXbKzOhb7kxPt9ffcQUGP4UNflj0w4UVL3Ua6DufpKen/26K/qwgFgiYRyAtLe1viYjDeyaLMddbj4+wyte8/mBmSXwmg5RS+VCn0D45d9FiPlc+aaPUoW7mtU1j6+ZTfEBUaPvr/JxtZj9GWSCQ0gTYWyaiWrOGbHX+WPUa/GD6W0Tke/LJJ38vpRvH5sJJKb9LRHeN9gkp5V2ECTbPyCaxwzI0eUrxUdX+gj3/NlcYqH7iCPAwupTyfwsh8omoKEn/TySiJ6SUX0scKTxZDwEiWqWq0EPzzXimbG8SGy6MTpgwQsNHEIe2uc7P13laU0/fRFoQAAEQAIE4EiCi3yKiszqVeXCkJ/TvoNcf+BWcgNQcCfD6A72ZHo/ymiTs+Y/jjxhFgwAIgIAqASFEmgkOwL3lNU0IDmTCm3YyOlG8zsNAH8Gef9UfJ/KBAAiAQLwJCCE2GVDw90cCFi1ZioOCUtABaGjZdIyIBhX7B/b8x/vHi/JBAARAwAiBz89j/yYR9Sgq+fsOQGVVzbZkfHvVWaeBhpZNJ1Y2rt9dseyVbbPnP7tz5ux5e4umzTg08akpxyc9VfjexMIpx/n7zGfm7uX7HA+f0ze0bHrP2x74VOfzkn19wt38SZNPGOgX2PNv5IeJvCAAAiAQbwLDRwYbCe5yr6Fl03G7GT9ve6Cvxte6b2FFZWdefoEpRybnTij4YH55xfZV3g17fe2BHrsxCa0vy2DA+GPPf7x/uCgfBEAABIwSkFLOMKDo7xVMKjwRajiS/PMARzDkt3jewmhEbg15B58qmvrOiro1O7z+QH+Sc3lkNGLq9FlvaZAxdDFo6Gfs+Tf6w0R+EAABEIgngaKioi8R0UcGFP29mrVtB5PduDW2bjlVtqB8p8vl/tSIrKp5HU7n9ZI583fXb9h4NNlZBevHhz6pyIs9//H8xaJsEAABEDCJgBBikoqSD+Z5qvjpI0GDkYx/eW5+emnZPinlULDOif5bWDzt7dp1/sPJyCtYJ54eUeXEp06a1D1RDAiAAAiAQDwIVFRUfIGITqoqes7X0LzpWNBoJNPfJn/gw2mzSg8YkS3eeScXFR+r37Dx3WTiFlKX2wamSHbGo7+iTBAAARAAAZMISCk9Rozc9Fmz94cYjEfmkBNyz99x84UV1dtcLtcNI7JZmHdwXnnFdp+/42pCeMXYupiTm/ehKgc+1tykbopiQAAEQAAEzCZARAdVFTzvDed59WQyWrwTISc3/5wBmUIXsVn6OdMzrntVU3NShVR+7sUV2wyw3Gx2f0V5IAACIAACJhAQQnzfgHK/VzJnwZ4kMv5DS6sbOh0OBx9EZanhNvt5vIXQ195xIxnY8jSKgWmAWy6X6xsmdFUUAQIgAAIgYCYBInpV1XjxgrrG1i0nk8FI8fY6PoxIVZZkzMfBd9j4JgPfZ+Yt2mWA0Xwz+yzKAgEQAAEQMEhg7Nixf0BEym/LxdNLkmPbnz/QlT9x0mkDBippRwvcGRk9DRs2vpNoJ8DbtvVjh8NxW5Hx6TFjxjxmsLsiOwiAAAiAgFkEhBDTFRX6fYNZuz7xW9iaWrecz8rNMxS/wAgDK/K63e6B1WvaDiTaCeBFiqrySim/a1a/RTkgAAIgAAIGCRDRHlWFnjMh//1EG6Sm1i3ve8aNNxS6WFV+q/Px2/fKxvW7Esnc6996iQMZKcq+3GB3RXYQAAEQAAGDBB5zOBx/Phz2VzkoztJVDYk99c+/9eK4rOxfKRqjpB3yjyWPdDjurF7TmtAtl/MXV6qOArxvsN8iOwiAAAiAgB4Cjz/++G+kp6f/g5SyhIi2ElF3LCOj5R6/BSZyvzov+MufOPmUlrqmWhpmX9+8MWFRF3ktADsiily/rafvIi0IgAAIgIAOAk6n8+tSynQhxFIp5Q4iMj0QDsfST9hQtL/j5qQpxUcVDZCuN//CwsKP6+vr97zxxhvbTpw4sfvChQuHLl26dLyrq+s9/svfT58+vaezs3Pb2rVrd5WUlJy2ItSw253R19i65Uyi2oCPRlbhz+GmdXRlJAUBEAABEIhFQAjxx0KIXCFEoxCCDeOginLWk6du/asJi19vYAh6ROPPxru8vPydw4cP7+jt7f2ov7//nt7/V69evXLmzJk97DhkZmaa7nwF2yknb8IHPn/HtUQ4AXyuQrAeev5KKQN86FSs/ox7IAACIAACEQhwzH4p5V8Pr97n/fvn9ShgM9JmesZ1+do77iTC8FT7Wg/G4w07IyPjsx//+Medvb29H+o1+LHS9/X19R08eHB7YWFhXNqpZM6ChI3EcIwCxf7EpzD+2/CU1F9E6Oa4BAIgAAIg4PF4viyl/F9E9CwR/bsQQvlkNkVl/chb8/zyJRyhzvJ4/03+rRfdGRlXzZKDy3G5XLdfe+21zr6+vu5YhtyEe7ePHz++c+LEiaYvWny51rsjEe2xrLpedTFgeJ9iJm1CiHwp5R/iVw8CIAACo5IAEf03KaUkoqrhLXrKQXrMNJShZSXqHPtpM58xcl5BuNG5t2jRomNdXV2nTTDumqcJ+vr6BtjhcDqdqovoHpHD6XR9ygvzrHcCAj0OhzMe/fNdIUQNEQkp5ddGpSKA0CAAAqODAM+J8pY8KeXbRKS8LS/USMfrc1Z2znlfe8eQ1camZk3rPrNkklIO/vSnP/1Ff3//XSuNf+izLl269F5hYeFFs2SaUTpnn9Vtws+bXlpmWrtEYcGO0k4hxPNSyh/wjpbRoRUgJQiAQMoTIKJvE9GRKMrvkbe9RKdbVt2YiOHm61nZOR+bIfv48eP7z58//1aoMU7U576+vp6lS5e+ZYZcXEYi4gO80rBup1n111jONSJ6nYhmcSyLlFcQEBAEQCA1CaSlpX2LiGxzZG1ewcTTiTidrmL5KiNH0T5wovLy8rq7u7tPJMrgR3nunebmZqUtdeEGMysnl0dnbls7EhDoMRAT4EHbhMui4/sFImqRUua53e7/npqaAlKBAAikHAEi+qkORWeGslQug8PtNrVtvWCtcem4520PfJrp8fQa5cTGv6en52wUI6x5Dj9O+Qf9fj/Ha1Bun2Deqvo1lu8KsComQ1DGEf4eI6JqjoPh8Xi+mnJKAwKBAAjYnwAR/fMIisywMTCr/KdnlfIhNJetNv78vMqq1Z1G5cjIyPj08uXLR+NkvM1yHu7W1tbuNyprTm4eHx1818q2emFFtSkjNEZlj5CfTy7s5O2GY8eO/W37aw1IAAIgkBIE+C0lgsJKCqPPh85MLio+9tyLK7Y1tmzmYX/Lt/wNP/OG0YN+OGbAuXPnDiS58Q86ETfmzp2rFGAntC+tbFxn6YFBDRs2HQ99fpJ+viKEGJ8SygNCgAAI2JsAEb2ZLIrS5XZfmzqj5CC/ydWtvx9j/noCjf4DZ6Oqfu0uo4xef/31TpsY//tOQG9v74Xs7GxDsR4KJhWesLj9BjM9nitG28qK/EKI2fbWHKg9CICA7Ql8vsfZtNXfehWnZ1zWr6aXlm1/6ZW6Nxo2bHzb+oVj2kYUiqbNNMSorKyMF/zdtpMDwHU9efLkbr1tGp6+oWXzKSudgIUVlYanasJliNP3QSHE/7G9AoEAIAAC9iVgoQMwmJWTd6psQfmbVXVr3mxq3ZrIIf0Hb/cjGSc+d15KeVfVCPBe/0uXLh2zm/EP1nf58uWHVGXnfOUvLLP0qGavP3DZnZFhaOTCiLw6874zZsyYx+yrPVBzEAABWxOIlwPgcrluPFU09R2ev1+9tu1AIo/sHcnIx7pvdPEfr6oPGlM7/u3p6TnncrmUo+zx2gmrz2vgCJGeceO7dBrjhKx7EUL8va0VCCoPAiBgXwJmOQC8RW7arNIDlStWd9Y3v3rU5++4Gcuw2uWeka1lHN+f59LtaPhD62x0a+D9/mDxAk7etllZVbMtO3dCsse3KLav9kDNQQAEbE1A1QFwZWT0l85duIsPgBk+D97ysLwWOBEDvBNB9U1yw4YNu0INqV0/9/T0nHc6ncrTIBxAyYK2ijqt09i6+RQ7A1Onz3rL7XYPqLZnnPI9a2sFgsqDAAjYl4CqA8DKNJFK3Ypnr17rN7T4r7u7+5RdjX54vWtqapRj7T9V/PQRK9pL4zNu12/Y+C6fIFgyZ8FujloYJ8OuaUrh8zUiz9lXe6DmIAACtiYAByD6ToDyymXKK8pLS0tTxvizM3DmzBllB8DhcNzytXcMaDTQUd/k45Xf6w/0161vP1SxtKpzWsnsA2Yf9RzLwYADYGv1icqDgL0JwAGI7gAUTZ1xOJbyjnVv586dttr3H/7GH+H7zezs7KuxZI51LxHrAAw4DHd52oCnt8oWlO/MnVDwAQdyiiWf6j04APbWn6g9CNiaAByA6A7AuPFZl1QVe3d39/sRjGgw0p4t/9bW1iofFpSIswEMOACPjELwokJ2YniRK48SZGR6elT7Rmg+OAC2Vp+oPAjYmwAcgCgOgD8woPrWxwf+9Pf3D6WaA3Dw4MHtocZLz2er4wGYafyjlDXU1LrlfXZs5i5avCMjM1PJIYADYG/9idqDgK0JwAGI7AA0tGxWjoVfU1OzN9WMP8vT1dV1Ro/RD007bdZsPsjpkTfrVLk2o3SO0hoJOAC2Vp+oPAjYmwAcgMhGqcbbojzc/bOf/WxbKjoA/f39t5xO551Qw671c17BRFtEflR1SOAA2FsPovYgMCoJwAGI7ADw0K5W4xae7vjx4ymx/z+SE1NUVPRRuLxavmdl515QNa52yAcHYFSqTwgNAvYmAAcgsgOwrKZBeb77woULRyIZz1S4tmTJEqWdERwp0g6GXLWOcADsrQdRexAYlQTgAER2ADhynJY320hpurq6+PQ/W670H6ne1dXVSnPdHFFR1bjaIR8cgFGpPiE0CNibAByAyA7A80urlB2Anp6eD0cypHa9v3bt2l2RnB4t11LlfIhIDgkcAHvrQdQeBEYlATgAkR2AF1ZUKzsAvb295+xq4Eeq97p165QcAD5S2dfekYrnRdzf2QAHYFSqTwgNAvYmAAcgsgOwdFWDchjg7u7ulJ0CUD0TwO3O6Iv05pwq1+AA2FsPovYgMCoJqDoALrf7WsmcBXuWVjd0NmzYdNzX3pFSc7xGdgFcvHgxZRcBVlZWHtIy3B+eZlxW9sVUMfaR5IADMCrVJ4QGAXsTUHUAwhW8w+m8Xlj09Dsc8a3G17rP5w90RVKUdrm2qqlZOQ7AiRMndo80lG7X+08//fTZ8LbX8j1nQv77dml7lXrCAbC3HkTtQWBUEjDLAYhkBDzjsi7PLJu7Z1l1w/bhw2D4VDhbRINraN50LJJMWq698cYbqRoI6LbL5bqthUF4mqJpMw/Zpe1V6gkHYFSqTwgNAvYmEE8HINwION3ugcLiaW/zCvvVa9sO+NoDPSrK1oo8Xn+gN7z+Wr/X1dXtsesbfqx69/T0fKCVQXi6+eVLtlvRbgl6xu2p02e9FS6zlu8IBWxv/Ynag4CtCVjpAERSiKGjBBx/39feMZggJf7IyITqAS8FBQWXYhlSu947cuTIjkhtqOUaB1ZKlnY1oR4DoScDujIy+rUwiJQGDoCt1ScqDwL2JpBoByBcKbIynT5r9v5l1fXbvW1bz5qgrB8x7FrLnDSl+Gh4/bR+7+npSbmtgE1NTbu1yh+erm69385TAJd5TcjCxZWdk54qfI+3NIbLp/odDoC99SdqDwK2JkBEytvdVJWennwTCiafqqyq7eTz2LUabrPS8bC1nrqGpt2/f3+nXd/0o9T7Tl5e3pVQGbV+5mOV7bQolB1P3gVStqB8Z05u3oda5VRJBwfA1uoTlQcBexMgIq+K4rI6T6bHc6VmTes+s4y7lnKMnAg4f/7841EMqS1DBJ89e/aAapvn5Rec0cI7QWnu8DbWl1bWdfJCvkzPuG5VOVXywQGwt/5E7UHA1gTS09OfVFFcicjDQ6+16/2HrTMUgR4iGlSVlRfNpYoT0NjYqDz8P39xZfLM//sDA3Xr2w9VLF+1rejpGYfdbveAavuakQ8OgK3VJyoPArYn8JgQQlm5m6EE9ZRRMLmQFwoqz+vrzctTEHrqF5p248aNO1LBAbh69epFl8t1K1Q2PZ+tHrl5qI39gS4eyVlY8VIn9x3pcNzRU/d4p4UDYHv9CQFAwN4EpJR/QkRd8VZ2ZpXvbdv60UNKPo4OwXMvrlA+EyAjI+NGX1/fJ3Z3AjZv3qy8FsLlct3w+gP9VrXX/ef4O25W1a3ZwQv2zOpz8SpHSllmb+2B2oMACNieQHp6+l8S0el4KTozy2XlbpVBaWrd8r6RugcCAVsvBuzt7b2QkZFxXZUBB4Kyqq34OY2tW07l5U86o1rfBORz2l55QAAQAAH7E3jiiSe+IqVcSERK4V6tUp68OttKo8JDx6qyORyOO1euXDlp11GA6urqfaqyc76aNRzwyZopm8bWzWfc7oxrRuprcd4Bj8fzO/bXHJAABEAgpQikp6f/GRE9RUQbpJTK8+DxUKjZuRPOWWVU+DlLV9UZ2ir57LPPHu3v7x+0mxNw9uzZ/Ubaj1fU+9o77ljUVtf5wCEj9U1A3ldSSmlAGBAAgdQk4HK5vkFETiJ6hYj2EJHyojCjivb+vvL2jssWGZZ7HLKYwxgbqfebb75pq6mAq1evduXn5yvt+w9y4vUTVrURB44KPtcmf094PJ6vpqa2gFQgAAIpTcDj8Xw5PT39R8NTBv9GRLxl7p5V/6vq1+6yyrjwcxYtWWpoFMDhcNy9ePHi2zYZBbi9ePHiI0bakrfXNbUFrljVRnkTJiqfU2BETsW87wkh/jilFQSEAwEQGFUEHiOivyCiIillKxEZWjw3kmJ9Zt6C3VYZl+HnXHY6nTdHqles+1lZWb02WA8wtGHDhl2x5NByb1HFS5bt/W9s2WyLxatENCClXDl27NjfHlWaAcKCAAiMPgJpaWnfklK6iWiVEIIXkykdJRvJ4LgzMq76/B03rXQC5i5arHwYTlCGyZMnX+R99ck6EvD6668bGulgOXnrn689cMmqtuGgPkG+Sfb3JsfYEEK8LH/972ujTwtAYhAAARAYM2YMEf2WEOKHUsoSItpKRIbmmC0PMOMPdLndGX1GjUxhYeGFnp6es0nmBAy99tprho0/s+Hjnq0y/vycnAn5cR1t0tHe14QQP5dSVjgcjn/laTL88EEABEAABCIQqKio+ILD4fgrKeXHOpTsg3UGJWXzLN1jzsbG6I6AoJx5eXndn3zyybFkcAL6+voGamtr9wbrZuRvVk4uB2kasMoBaGzdksg9/7xd1k9ExRxHg/tzhG6OSyAAAiAAAtEIEFGVitG5H2WuLdBjlbEZfs6dvIKJpsw5O53O27t37/5Ff3//UKIcge7u7g9mzZplWtyH1Rbu++f2MBKpUWef4yOADxFRLRGNE0L8UbT+jOsgAAIgAAIaCQgh/l6nMn4wClBZVWPpcDMbnYbmTcfMjCm/fPnyg729vectdgJudXZ2bjMS5S+8zUrmLLB6ROZ2pmfc5fB6mPSdt33+goiWSCn/7+eL9zB/r/H3jGQgAAIgoIsAEZ1UUdzjsrJ/5WvvuG3xKMA9djxU6hstT0ZGxme//OUvt/X19X0aZ0dg6IMPPtg/bdo00976Waas3LyPrI75b+S45gjt8ImUMkBEpVLK7z7++OO/oasDIzEIgAAIgIAaASHE8xGU8oM3/Vj3VnmbrX7z5NMIB4umzeQhYU111JouJyenZ9gR6DbZEbh58uTJ3aWlpaZHdeSpmIaWTSesdsKmzig5qJVrhHTdQog1UsoCp9P5HbVei1wgAAIgAAKGCaSlpf1pBCWtybjmT5p80tfeMWS1AfL5A13jxmd9olrvWPlcLtftlStX7j99+vSevr6+HhVnoK+v7/qFCxcO+f3+HdnZ2VdjPc/IvZdXey3b8x9sY2/bVh7BGFStt5RyhuFOiwJAAARAAATMIUBEB1QV+irvhr1B42DlX16F7s4wvjUwltyfnxk/OHfu3PdeffXV7fv3799+/vz5Q11dXe/19PSc7+vru8R/u7q6Tly4cOHIVwyXAAATiUlEQVTtw4cP7/jJT37SWVFRccTtdhsKXBSrTsF7z1W+3Gkl7+Cz5ix8zkhMBhzCY85PFqWAAAiAgDkEhBBTg4ZF79+8/IIzPCwfNBBW/q1v3niEh8H11tnu6UvnLuRwzJaPvHj9gU8cDoeRsyjWmdNjUQoIgAAIgIApBDhEKodLVTWMKxvXWx0emNcC3P/PC9IcDodpkQ5VGViVb3pp2T4LT/p7wJl5L6yoNBqw6HumdFgUAgIgAAIgYB4BImpWNWIcES5okBPxl/fAO52uz1Trb5d8s+c/uzMROy+4TZvatp43+PZ/yLzeipJAAARAAARMIyCE+L4RQ9jQsum9RBj/4DPrm189yucUGJEhmfMOH/Fr+bB/kC9POxjkU2RaZ0VBIAACIAAC5hIgouOqSn7pqoaELEoLGij+29i6+Ux27oRzqjIkYz6Hw3lzeU2T5av9Q7k2bNh0XEo5ZIBPzxNPPPEVc3srSgMBEAABEDCNABE9q6rkX1hRbXlkwFAj9eCzv+PazLK5e1TlSKZ8HOSnoWVzQkdWeLHh5MLiYwa5vGhaJ0VBIAACIAAC5hLgCGxCiKOqir6qbs2OB0Z4eIFeIr8vq67fbucdAvfD+/o7riWSIT97ZeM6o0P/N/l4anN7K0oDARAAARAwjcDwUcGaAgBFchJ4+D3Rxir8+U3+wIdTp896K1J9k/VaVnbO+eo1LfvDZUnQ97tcH4OsGkzrpCgIBEAABEDAXAL8hiaE6FNV9BMnT3k3QQbqoW1q0eqwqmn9nnHjsy6pymdFPh6teH5pFU+jXI8mh9XXa9e1GQn5y87kDZzeZ+5vFaWBAAiAgKkEiKjNiJGr8bXy3nRNxjiB6T5buqquM9kcAd6+yPvrff6tFxPIJmLbGT14SUpZb2pHRWEgAAIgAALmERBC/JCIlFd48xB7shmuEepzY1l1w/ac3LwPjTg9RvNmZHp6fr21L9A9Qn0jGmcr8ry0stZo4J+DHo/ni+b1VpQEAiAAAiBgCgFWzkR0RNWYcWAYPhzGCmMUj2fwCvtFz7+4nY2xKgM9+XhL37SS2QeqvS18iuKteMhkZpn1GzYqLwoN4TLTlM6KQkAABEAABMwjQESzQhS17gWAw3PWCXtDNdHY3eBogouWLO2cUDD5lME97w9xzMmbcHZeecV2PjrZ2x7oM7HOVnAf4q2IRvoIEfVjHYB5v1mUBAIgAAKGCUgpv2lk4V9WTu7HvvaOz2xm0DQZzaa2wJWatW0HX1pZ1zl30eIdhcXT3s7KyT3PkQalw3EnzCAO8vWs7NwLTxVNfWfOosU7KqtWd/K6CK9/6yW786mqX7MzTN6HHBwt96SUAcMdFgWAAAiAAAiYQ0BK2apFeUdLY5OFf5oMvoKRvuHzd1xNphX7CjJoZXOHRzGi9QOt14UQaeb0XJQCAiAAAiCgTEBK+QMjC/+Kp5ccjKPB0WqYkM6inRd16/2HtBr6GOk+Qjhg5Z8sMoIACICAcQK88E9K+XYMRR1ziNfhdF5vat1yHg5A0m97NNVBmlE6Z59qnwnJt9x4D0YJIAACIAACSgSIaGaIQo5p7COlq1i+Kjli/lv09gtH59eODq9ncGVk9EfqEzqu3RFC/I1Sx0UmEAABEAABdQIul+sbRKR8ZC6vCPe1d9yAURxdb//B9l5W07Bdh7GP6FwKIfZVVFR8Qb0XIycIgAAIgIBuAkTUYkSBr17bdiBoDPB3VDoBg7zTwUgf4rxCiCm6Oy8ygAAIgAAIqBFwOBz/YmThH88Bw+iPSqP/0FoCDvxkwimLvTwapdaTkQsEQAAEQEAzgeGIf4dV39x44Z+3bSvv+3/IGOD76ORRseyVbap9KSSfX3MHRkIQAAEQAAE1AlLKGSGKN+LcbKz7fCgMjP3oNPZR2v1WXn7BmVh9Rss9h8Pxr2o9GrlAAARAAARGJDC88K9Xi0KOlCY7d8I5n7/jZhRDgBGBUToq0tCy6biU8m6kPqPj2unHH3/8v47YiZEABEAABEBAPwEiatahkB8ZHeAgMDD+ePuP1AfmL640vCtASlmhv1cjBwiAAAiAQEwCRPQ9IhpUdQBKyubxqXV4yweDaH1gICs757xq/xrOdys9Pf3PYnZk3AQBEAABENBOwOjCP6fbPeD1B35lpQPAEQZXNq7btbS6obN6Tct+nz8wYOXz8Sz9zl7NmrYDBh0AHnX65ZgxYx7T3ruREgRAAARAICoBIppmRDFXVtV2WmUQ+She3l8efgyv2+0emL94yfZUOFXPKpaJeE7JnAV7jPQ1ziuEyI/amXEDBEAABEBAG4GxY8f+AREpL/zjFd6+9o7b8TYmDS2b35s8pfjoSMaDtyEuWvJSp6890B3vOqF8/aMAPn+gi49EHqkdR7jf9eSTT/6eth6OVCAAAiAAAhEJCCHWj6BsH1nsF0zPb+H1za++HVdD6O+4Oq+8gheQ6VqfwCMC5ZXLOr1tgZ641s8+c/53eZEmb9OcX16x/bkXV2yrqluzIxGOUlX9mp3BPmTg79qIHRoXQQAEQAAERiZARP+s17CGKuxn5i3cFU/juqqpeW+mZ9zl0Gfq/exyuT9lY+dr77gcz7omcdkDbPTHjc+6FImddDjuzJw9b6/FwZuGCounKZ8yOSzHkBDihyP3cqQAARAAARB4iAAfskJEyme3u9zua772wKV4GD6ex59eUmbGkbIPRi8cDufNuYsW72hq2/pBPOqchGXeWlZdv12rA+V0uj57YUX1NqviOHjbtp7j6ZpITomOa8eLioq+9FDHxhcQAAEQAIHYBDiymg5F+8CQBvO8EJ+jfodeXt20w4SjZB+pb7DePG1RNHXG4VXeZt62eCsJDXe0bXRar9/iIfas7NwLQZn1/M3JzT9nVTwHHpnQU7dIaaWUC2P3dNwFARAAARB4iIAQ4uVIClXrNTYwPv/Wi2YZUH4jnDL16SNan29GukzPuO7yF5Z1NrZuOWWWHIkqx9se6Ktcsboz2lC/Xl4zy+bu8foDn8RZntv5Eyef0lu3sPSfSSm/+VDnxhcQAAEQAIHoBIjIH6ZIo741R0vHb4u8qtugkbjDhsuE4WDd9Q+VKy+/4H0e1WjyBz40KI/WN3VT0rHzwlH2OBZDqDxmfOYyh7d4xm2XR8MGU8IEPxu9p+MOCIAACIDAQwSIqNYMI8FvcF5/oFfFaNZv2PjuhALDb4CGDH8kBpOLio+tXtO639feMaQiV/zzBC7x/H7BpMITkepv9rW8/Eln6ps3HomXXM/MW7TLYJ13PtS58QUEQAAEQCA6ASHEeINK94HhnfjUlOPe9sCnmg2EPzCwsOKlThMOiHlQB7NkCS1neulsdgI+0yxX/LYEDjW1bD7BIyXsnBjZuREqn57PvHaCDbUJIz4PjXzUrW8/ZMLoz6XoPR13QAAEQAAEHiLAJ6sRkdJCsUiGg7d1+do7ro9kLDmSn+oCtUjPjfe1YbnujiRXHO5fX9m4fnfJnAW7ea1CvOXUWr7bndG3rKZhu6+9wzATk4w/O4E9D3VufAEBEAABEIhNQAjhIqIhrcp/pHRPzyw9EDUqoD/QVTJn/u6RykjG+7xaPQ4G/qE34dDya7wtezM9nivJyCJYJ55+aGjZdCy03no+m2j82QF4J3ZPx10QAAEQAIFHCEgpnwsqdTP+Dp8KGPp2OMTb0jI9HuVww2bUy0gZ9w87ag/06TFwqml5Cx4H5zFSXwvzDnJsBV+7vmiLJht/dgAaHunYuAACIAACIDAyASJaYqbRKFtQvpMX0PHWPhMivsV1nl+r3C+trLPiwKNBPltBa52SJV1Gpqdnxf2wwh2DIzk+cTD+fDjQP47cy5ECBEAABEAgIgEhxPNmGpSiaTMOuVyuG2aWmciyhtcCRB22H8nwablfu679rUTKaPTZkwuLj/FixWiyxsP4E9GWiB0aF0EABEAABLQTMHs6wKhB0ZE/7ovkHA7HTV97x0A042bG9TmLFu/QIXNSjIxEqO/dsgXlPw+fFqhb337U5XIZDf0bLvMxnAqo/feNlCAAAiAQkwARPRtBqYcr3mT5zgZlEceDT09P/xER/SKedV+91v+WGYY+ShlDnnHju+JZfyvLZlmq6tfyYVFDcXrzP8ZHWcfszLgJAiAAAiCgjwDHV7fSWCg+6z+dTud3wiWTUv6AiH4cj73yHDY4ivE2PDXQ2LrFyrl/3mFg2u6PWO3H0wIm7PMPdzhh/MM7Pr6DAAiAgFkEhBALYin2BN7jY22zR5IzPT39fwohaojoqll1zZ80Oer8tlHHgPfWm1XPGOW8T0TFY8eO/U0hxONSSqNx+MMNsxXfYfxH6vy4DwIgAAJGCUgp58UwJlYo+9BnDBKRLz09/Xf1yOXxeL4spSwQQpgRg2CwqS1wxaixj5S/pCyuMRJ2cuRHj8fzxVB2HAxKCPECEd1KonYObfPwzzD+oQ2IzyAAAiAQTwJENCcJjMMxh8PxL0blTE9P/8vhMxCURwWGjxE2POQf7gSMy8o2LSrjcHv1E9HatLS0vx2Jm8Ph+HMi2pkE7Rxu8EO/w/iP1JC4DwIgAAJmE5BSliXIOFznqQhe5GemTDwqQETHVWSaW16xI9x4G/3u9W/laY1QY6f6mQMI/YyIclhGncweI6IiIkrGgE0w/jobE8lBAARAwDQCRPSMSUZKq3H7Gc/jmyZAWEFCiDoVebJycs8bNfjh+au9zXtU6jKch43+a0KIfDO2xKWlpX2LiDYbqI/W9tWaDsY/rO/iKwiAAAhYTkAIMdWC1eOfsDGLt3BSyixVI9fUusVUJ2DRkqWdqnXhoft4sCKisUR0zkC9tBr4WOlOsEMSD/lQJgiAAAiAgE4CvIo8Tk4Ab0trc7lcv6+zSkrJhRB/pGrcXl7dZOo0wOQpxUdV6yKlXKEEQEOm4QWUFQlaJAjjr6GNkAQEQAAELCUwPFds2j5yIcRRIcT3LRVizJgxqm+4wwcembUQ8LaRffJ8omO8uUkp/1oIsU/VSVHIB+Mf70ZF+SAAAiCgSkAIMcWEYDvXpZQVHo/nv6jWw0g+IvIrGKd7fPiNr33kg2/C5/ojfW9o2aS0GDFYbynlHxphoDVvRUXFF4Ydv2vBZ8fpL4y/1kZBOhAAARBIFAEp5dMGpgP+nYi+nai683OH1zTEmoOOeq+hZZMpQYGWVjcYmf//0Gp+DofjfxDR63Ey/ljwZ3WD4nkgAAIgoEpACFGocyTAkkV+WuRxOBx/pWrIKqtWmxIWmKcTVOtARBu1yBmPNEIIIqLzBuoe7lzhzT8eDYUyQQAEQCCeBIQQuUR0cwRjwJH8Gjwez+/Esy56yh4e1lba9148feahSEP6eq+Nz8q+OAK3cEP54LuUskSPvGan5bbkNtXpAD6of4jcePM3u3FQHgiAAAhYRSAtLe1P+Wz2CCvGOcws71P/R6vqouc5RPTTEEMUyThFvOZ0Oq/72jtu6DX4oem9/oCh6H/JwpQXcBLRMRWOnA+n+unpsUgLAiAAAklK4IknnvgKh+3lfeT81+PxfDVJq3q/WkZOPqxd7z8catD1fl7Z2GzkfIIbiVo8Gak9OVojH81MRHxEc0SnKcJ1GP9IMHENBEAABEAg/gTS09N/FMEwaTJgz1W+bGgdwILFLxhZALgr/nT0P0FK+SdCiJ9rYPqG3oOd9NcGOUAABEAABEAgCgE+EU/D+oWIDsHEwinH9b71h6afOHnKuxoMZcRnE1FVFJGS4rIQIpOI9oatDxgcjieQM2bMmMeSoqKoBAiAAAiAwOglQES7VAyxlPKu1x/oDTXqOj5fdzgct1Wey3mklG47tBifTyCE+Jv09PR/cDqdX7dDnVFHEAABEACBUUKAiJarGuIab8teHUb/QfTA+uZX31Z95rADYEkAoFHSBSAmCIAACIDAaCQwvKc92lB7zOvzyyu2qzgAlVU12ww4AOdGYztBZhAAARAAARAwlQAvRgubq45p9EMNd07ehLMqDsC0WaUHQsvR+TlhAYBMBY/CQAAEQAAEQCDRBIhIOSZ/U9vWCzqdgKGMzMwenUY/1CmZlWheeD4IgAAIgAAIpAQBIvKqGuSq+jU79TgA3ratZ1WfNZzveykBHUKAAAiAAAiAQKIJENEEVaOcnTvh3MyyuXu0/p80pfio6rM40E4yBQBKdLvh+SAAAiAAAiBgiACfTGjAKIcOz8f7805DgiIzCIAACIAACIDAwwSklB8nuxMgpVzxcK3xDQRAAARAAARAwBABItqc7A6AEMJlSEhkBgEQAAEQAAEQeJgAEc1MdgdASokAQA83G76BAAiAAAiAgDECUsq/S3IHAAGAjDUxcoMACIAACIDAowQ8Hs8XhRB9SewEIADQo82GKyAAAiAAAiBgnICU8j+S2AGYaVxClAACIAACIAACIPAIASnlc0nsACAA0CMthgsgAAIgAAIgYAIBKeUPktQBuIIAQCY0MIoAARAAARAAgSgEHiOiE0noBMyPUl9cBgEQAAEQAAEQMIOAlPL/EdFQsjgBQoh9RUVFXzJDNpQBAiAAAiAAAiAQgwARzU8SB+C4lPKbMaqKWyAAAiAAAiAAAmYSEELkElFvohwBKWW70+n8upkyoSwQAAEQAAEQAAENBNgACyFmE9EbRHTy81MDP4jz/wNEtJqDEmmoHpIkGYH/D7nUPYVvJn9RAAAAAElFTkSuQmCC;" parent="1" vertex="1">
          <mxGeometry x="1261" y="526" width="71" height="71" as="geometry" />
        </mxCell>
        <mxCell id="VUOW4Z_pQprqKwFeBN4T-1" value="" style="shape=image;verticalLabelPosition=bottom;labelBackgroundColor=default;verticalAlign=top;aspect=fixed;imageAspect=0;image=data:image/png,iVBORw0KGgoAAAANSUhEUgAABFwAAAITCAIAAAC1xZ8dAAAgAElEQVR4Aey9C1xN2f//vzop0+2M3IrkklwGCY27IaP4EMZ9htF8SuUSM6NhhjEIM8rIdfBBbqUZ0bh1E6I6DkXhDPVJqXQ9e5jLhyEh0b+v9Zv933Nuneqcs6vzOo95+Ky99lrvtd7P9/oc75e9z1qkEh8QAAEQAAEQAAEQAAEQAAEQ0GMCRI99h+sgAAIgAAIgAAIgAAIgAAIgUAlRhEUAAiAAAiAAAiAAAiAAAiCg1wQgivQ6/HAeBEAABEAABEAABEAABEAAoghrAARAAARAAARAAARAAARAQK8JQBTpdfjhPAiAAAiAAAiAAAiAAAiAAEQR1gAIgAAIgAAIgAAIgAAIgIBeE4Ao0uvww3kQAAEQAAEQAAEQAAEQAAGIIqwBEAABEAABEAABEAABEAABvSYAUaTX4YfzIAACIAACIAACIAACIAACEEVYAyAAAiAAAiAAAiAAAiAAAnpNAKJIr8MP50EABEAABEAABEAABEAABCCKsAZAAARAAARAAARAAARAAAT0mgBEkV6HH86DAAiAAAiAAAiAAAiAAAhAFGENgAAIgAAIgAAIgAAIgAAI6DUBiCK9Dj+cBwEQAAEQAAEQAAEQAAEQgCjCGgABEAABEAABEAABEAABENBrAhBFeh1+OA8CIAACIAACIAACIAACIABRhDUAAiAAAiAAAiAAAiAAAiCg1wQgivQ6/HAeBEAABEAABEAABEAABEAAoghrAARAAARAAARAAARAAARAQK8JQBTpdfjhPAiAAAiAAAiAAAiAAAiAAEQR1gAIgAAIgAAIgAAIgAAIgIBeE4Ao0uvww3kQAAEQAAEQAAEQAAEQAAGIIqwBEAABEAABEAABEAABEAABvSYAUaTX4YfzIAACIAACIAACIAACIAACEEVYAyAAAiAAAiAAAiAAAiAAAnpNAKJIr8MP50EABEAABEAABEAABEAABCCKsAZAAARAAARAAARAAARAAAT0mgBEkV6HH86DAAiAAAiAAAiAAAiAAAhAFGENgAAIgAAIgAAIgAAIgAAI6DUBiCK9Dj+cBwEQAAEQAAEQAAEQAAEQgCjCGgABEAABEAABEAABEAABENBrAhBFeh1+OA8CIAACIAACIAACIAACIABRhDUAAiAAAiAAAiAAAiAAAiCg1wQgivQ6/HAeBEAABEAABEAABEAABEAAoghrAARAAARAAARAAARAAARAQK8JQBTpdfjhPAiAAAiAAAiAAAiAAAiAAEQR1gAIgAAIgAAIgAAIgAAIgIBeE4Ao0uvww3kQAAEQAAEQAAEQAAEQAAGIIqwBEAABEAABEAABEAABEAABvSYAUaTX4YfzIAACIAACIAACIAACIAACEEVYAyAAAiAAAiAAAiAAAiAAAnpNAKJIr8MP50EABEAABEAABEAABEAABCCKsAZAAARAAARAAARAAARAAAT0mgBEkV6HH86DAAiAAAiAAAiAAAiAAAhAFPGzBgg+IAACIAACIAACIAACIAACHAL85OVvRoUo4gc+ISDPD3mMCgIgAAIgAAIgAAIgUA8J8JseIzXnZ0nwG3V+fMaoIAACIAACIAACIAACIKCEAL/pMUSRkrBouZrfqGvZOZgHARAAARAAARAAARAAgZoR4Dc9hiiqWbQ01ZrfqGvKC9gBARAAARAAARAAARAAAY0Q4Dc9hijSSBBrbITfqNd4uugAAiAAAiAAAiAAAiAAAtokwG96DFGkzdgqt81v1JXPC3dAAARAAARAAARAAARAgAcC/KbHEEU8hLyyslJZ1MUiEf4DARBofAT4+aLBqCAAAiAAAiDQcAgoS4914wFEkW44y46iLOqNLxeERyAAAmKRSPYrANcgAAIgAAIgAAL/JKAsPf5nK21dQRRpi6xqu8qijvQRBECgURJQ/YWAuyAAAiAAAiAAAsrSY92QgSjSDWfZUZRFvVGmg3AKBEBA9isA1yAAAiAAAiAAAv8koCw9/mcrbV1BFGmLrGq7yqKO3BEEQIAXAtGRkb4LFiz09Y2JjtbGBFR/IeAuCIAACIAACICAsvRYN2QginTDWXYUZVHXRjYGmyAAAtUScJ89mxDi8e9/V9uydg1kvwJwDQIgAAIgAAIg8E8CytLjf7bS1hVEkbbIqrarLOq1y7fQCwRAoC4EEi5csLOzmzplSl2MqO6r+gsBd0EABEAABEAABJSlx7ohA1GkG86yoyiLuuq8ins3Jjr6Cz+/iRMmjB07dq6PT8TRo9y7Xy9f7rtgQfCePWylKDHRd8EC3wULfj52jFaei4tb8fXXc3181n/3nSgxkW0pFolU3KLNAtev9/TwOPLjj9xeKsp0PnQCny5c+NWXX+7ZvVu+feTp01/4+U364IOx//rXJ+7u/9m5U76NWCRS4bs6ji/76is6k40bNrD2w3/6iVb6LlgQefq0WCRa8YYhW8kWvg8MpL2+WbHCd8GC7Vu3skbEItFXX35JIX8fGMh2kSnsCw7mdtkUFOS7YMGnCxfKREF+Dos///ybFSsOh4Rwu8uXVfCp1imZBjIjVuvUki++8F2w4NCBA3RWFJGM+74LFogSE2Va0vYqZs66qQJXtUYUDqp61amOMjuraguyXwG4BgEQAAEQAAEQ+CcBZenxP1tp6wqiSFtkVdtVFvVqUyvaIDAgwMzMjHA+TZo0WfbVV2z39u3bE0LmzZ3L1lyMj6fNNwUFiUWi4xERVlZWrAFHR8eECxdoYxW3aIPwn34yNTUlhLDygB1FWYHOhx2OFnr16nX65Em2y5rVq9966y2ZNkOHDDl75gzbRiwSqfa9WsfFIpFN27Z0lPbt27OW6dtTtJ6Klk6dOslMhl6Oev992sve3p4QYm5uHvVGRNFK6zdUqyCPev99hd0JIb4LFrDjihITW7VsSVsGbdzI1tOCsjmMd3OTaclequajzCDrlLIGdMRqnWpuaUkIWfLFF3Q+FJE8h4vx8TItq40sNagaV7VG5AetdtWpjjKLvdqC6i8E3AUBEAABEAABEFCWHuuGDESRbjjLjqIs6tWmVmKRaH9wsJGRESGka9eun3/22ZIvvqB5m6Gh4cH9+6mFarXBSGdnQkivXr2+WbGCJuWLFi6kfVXcEotEP2zf3qJFC5rm1lQUDejf39vL69+ffOLq4kJd6Nmjx6WkJLFItGP7doFAQAixadt2ro/P8mXLxo0da2BgQAgZMGAAi6Va36t1nCuKCCEnfv6ZGu/Rowebu3NF0btOTt5eXtz/1n/3He3CZvxjRo9mZ8iKovXffUd7uY0bRy1/4u5Oa7hPyb4PDGTHHTZsGGuHFqhEYecwx9OzX9++tD0VtzLtq+UjY5D1i3VKpoHMiNU6JaM6KKJ+ffuyA9GCKDFRpmW1M6eeqsZVrRGZQdVZdaqjLMNfxaXsVwCuQQAEQAAEQAAE/klAWXr8z1bauoIo0hZZ1XaVRV1FUsXeGjhgANUz7LOd82fPWltZGRsbs48gVGuD+HPnqCbZ++Ydts8+/ZQQ0r1bN7FIpOKWWCSaNnUqIcTozUfmSdHPx459Hxi4e9cudp7cgvx8tm3ZQpN7qqzeeecdQkiXLl3OxcWxHb9evlxGAFTru/xAMo/IWFFkbW1NCPl6+XKxSHT2zBmBQGBpaUkfVXFFkbeXFzsfmQKbLhNCfti+nd5lRRHb+Ift26kXcbGxbCVbeO+99/4vmj17EkIMDQ1PnTjB3hKLRFSicOeQlJDw9ttvE0I8PTy4LWm5Wj7yBmWMyDdQOKIyp2RUB0WkcKoyLaudOZ2nalzVGpEZVJ1Vp2aUZTDKX6r+QsBdEAABEAABEAABZemxbshAFOmGs+woyqIun0vJ1MSfO2doaFiVZK9ZvZp763hEBKuRxCKRam2wLziYpunx586JRaLtW7dSqSNKTFRxSywSOTk52dnZ7Q8Opg+XuE+KFn/+edWDFwcHB+6s2LL8fMQiUefOnQkhUyZPjjx1is7n27Vr2S5ikehSUpKtrS0hZOKECVSwVeu7/EDKRNHYsWMJIa4uLv/3ztX69YSQkc7OtRBFFhYWhJAOHTokXrwoFolqJIoiT5+mHh3cv7/tm5f6vObM4RKQlyhnYmKooF38+efclmrykTcoY0S+gcIRNSuK1FzVqnGpY4QritRcdVQUVRtlGYzyl7JfAbgGARAAARAAARD4JwFl6fE/W2nrCqJIW2RV21UWdflcSqYm9NAhqh9CDx2SucW9VK0NNm7YQJ9L0C6sEDoTE6PiVpWMCQsNpW+7yYuiFcuXt2rZcvh773GnwZbl5yMWieh7eoMHDfrPzp3UKZntIsQi0YgRIwghffr0qXpsoo7v8gMpE0Urvv666glPc0tLsUg0dcoU+ksYeVEkkPuw2z/QdNl3wQITExNCyFwfn5qKovnz5hFC7Dp1EotEczw9CSFWVlbc7RaoROnWrdt4N7fxbm6uLi6tW7cmhAiFwujISBYvLajDhxqU80nAOqXmiDUSRc0tLe05H/o4katP1Jm5WCRSjUsdI9xB1Vx1akZZJhbyl6q/EBru3eLi4vz8/GvXriUmJp46dSqE8wkICFjzz09AQADnfsipU6cSExOvXbuWn59fXFzccCFg5iAAAiAAAhohoCw91ojxao1AFFWLSCsNlEVdPpeSqdm7ezfVDz+Fhcnc4l52UL7RwuagoPXffUcfDdEuB/fvpzYjT51ScYtrX14Uce/Kl+W1ilgkGu3qSgjp26fP5k2b6ATYX/iwFsa9eZ7zTvfuYpFIHd9VO07N0o0WNgUFdejQgRASeugQ7fXj4cPyosjIyOitf352/+c/1A5Nl9esXv3pwoWEkKZNm/587FiNnhTR52C+8+eLRaKIo0fpb6g2fv896z6VKBQO/dPMzGzU+++HHznCtmEL6vChBlU4peaINRJF3PlXbU1Bfw3F1SfqzFwsEqnGpY4R7qBqrjo1o8xGQVlBK98j2jdaUVGRnZ195syZQ4cOrVmzZsGCBVOmTBk2bFjHjh3pE0uZ4Nbx0sjIqGPHjsOGDZsyZcqCBQvWrFlz6NChM2fOZGdnV1RUaN9djAACIAACIMAnAWXpsW7mBFGkG86yoyiLurKMiq0P/+knmnbs3LGDraS7VNNnOLSSvplGn13QmvNnz9KO27Zs2RwURAgRCAT0FptNnouLU3GLO5xGRNHgQYMIIcPfe2//36/z7ZLbg7tfv36EkMGDBolFInV8V+04dYEVRZM++IAQMvOjj9hHRvKiiPt7Hi4BsUjEpsuixMQub3aiGzJkiPqiaMffvzUaO3bsx7NmfTxrFn1Ha9jQoexAVKJ8MHHi9m3b6Pt+pqam361bxzbgFtThQw2qcErNEWskiqZPm/bzsWPsfxfOn6/asYOrT9SZebW41DHCHVTNVadmlLmBUFiW/Qqol9e//vprTExMUFDQ/PnzXV1d7ezsqhU5bdq0sbW17dev35AhQ8aNG/ch57No0aIl//wsWrSIc//DcePGDRkypF+/fra2tm3atKl2LDs7O1dX1/nz5wcFBcXExPz666/1kiImBQIgAAIgUEsCytLjWpqrYTeIohoC01BzZVFXmE5xK0WJiUKhkBAyx9OTW+/Yu3erli2/XLqUVvZ2cCCEfPThh2ybk8eP05xj7+7dh0NCaPlMTIxYJKKvzFlYWIhFIhW3WFNikajuoigpIYFmqHN9fBIuXKBqZMrkydxRTvz8s7GxMSGE/tJGHd9VO06Ns6Jo3dq1hBA6BN2TunaiiD7Forvn0T+5W8Mp0w+jR49WmAUKBIKTf2+3IKNhnN/sGWhoaCivHqteR1SHj4xBLm1almmgbERlTnFVB6sbq91oQZ2ZV4tLHSPc6am56lhRpDrK8iRlajT0zaFhMxkZGYcOHfLz8xs1ahS7qyR3WRoaGtrZ2Y0cOfLDDz9csmTJhg0bDhw4EBUVde3ateLiYkbTn+Li4mvXrkVFRR04cGDDhg1Lliz58MMPR44caWdnR399x50bIaRFixajRo3y8/M7dOhQRkaGhunAHAiAAAiAgG4JKEuPdTMLiCLdcJYdRVnUZRIphZezZs4khJiamm7dsoU28Fu8mOYKAX/vFj3ezY1mDOxRrR7//jd9OhQTHZ2UkECPOfru22/FItHHs2b939OYwYPFIpGKW9zJyIui6MjIfcHByl7qk3l97kxMzORJkwghTZo0OXn8uFgkYi+XffklHejUiRMOb6SdkZERbSMWiar1XbXj1DIriqIjI9kcix6tU2tRJBaJ6HMnarBaURQXG9u0aVNCyNQpU5Z9+SX7H40Lu92CjESJjY6mmatN27Z0kwxuUNThI2NQprv8fnfKRtSsKKp25mriqnZ5cEWRmquOK4pURFmepEyN7FcAT9dlZWVJSUkBAQHjx49v1qwZu/5poUWLFiNHjpw3b15AQMCRI0eSk5M1rXrqZC85OfnIkSMBAQHz5s0bOXKkvIpr1qzZ+PHjAwICkpKSysrKeGKMYUEABEAABGpJQFl6XEtzNewGUVRDYBpqrizqMomUwsv4c+e6dOlCkxhra2v2DNbBgwaxv9HfFxxM/2HVyMjIzs6O/jqfbrBGbX44YwY9eHTggAFNmjQhhLAnh6q4xc5HXhSps/ucsbGxmZmZqakp/fEMIWShry+1efbMGfZdHaFQ2KF9e/rIxcDAYPmyZey41fperePsltxUt3Ts2JGS/PHNb7TkRRGdsxnnY2dnR+cjky7HxcbSnJv92QxtplA/UB371ltvyWibDyZOJIS0bt2ahlJew2z4+1yjj2fNYrGwhWr5UIMqnFJzRIVOybwUp/6TIrp1nopVrSauat2XEUXqrDo1o8yGQFlBQ98ctTRz+/btDRs2ODs70+eirBbq0KHDBx98sGrVqrCwsNu3b9dJsvDR+fbt22FhYatWrfrggw/oTwRZ14yNjZ2dnTds2HD79u1aUkM3EAABEAAB3RJQlh7rZhYQRbrhLDuKsqgry6hk6s+eOTPpgw9oBk9/4j9j+nSZ9Hrzpk30+QzNEoyMjNzGjWPbJFy48K8xY6jwMDIymj9vHjuEiltsm9qJIjoTAwMDMzOzfn37Bq5fzxqkhwVNmzqVPiqhLbt167Y5KIjbhjZT7btqx2VE0ZTJk//vB0XNm9NR5EURm2OxBWsrK9pYJl0Wi0SrVq6kzap9UkQFAPfUV2ozeO9eaoFudy4vUcQi0Zg3790ZGhoq3IFQ9dqgBllf2ALrlJojalwUqY6smrhUG5HXbOqsOjWjLLNK5S9lvwK0f/38+fPTp097eXm1a9eODbShoWHv3r19fHyCg4MlEgkfQkaLY0okkuDgYB8fn969e3Nft2vXrp2Xl9fp06efP3+uffAYAQRAAARAoJYElKXHtTRXw24QRTUEpqHmyqIun0upqEm4cOHHw4ePhYcnJSQoa3b65MnQQ4d+PHyY/rpdpll0ZGTooUPc81LZBipusW20UUhKSAg/ciT00KGYqCgV9qv1XbXjKiw3jlvV8qm3bmpk5jU1ouaqqws0DX1zVG+moqIiPj7e09OTHvJL5VDbtm0//vjjAwcO5OTkaFGU1CfTOTk5Vf5+/PHH9AQwyuHtt9/29PSMj4/HXnbVryS0AAEQAAGdE1CWHutmIhBFuuEsO4qyqNcl60JfEACBektA9itAC9fZ2dmLFy9m36elB3ytWLEiISGhPqkVHuaSkJCwYsWKPn36sE/MrKysFi9enJ2drYU4wCQIgAAIgEAtCShLj2tprobdIIpqCExDzZVFvd6mdJgYCIBAXQho6JtDgZlXr15FRUWNGTOGzfjt7e2XLl1a37ZJ4EEMyQ2ZnJy8dOlS+kokxTVmzJioqKhXr14pIIsqEAABEAAB3RJQlh7rZhYQRbrhLDuKsqjXJetCXxAAgXpLQPYrQBPX5eXlu3fvZjcLMTExcXd3P3/+vJwWQIUsgfPnz7u7u5uYmFBp1LFjx927d5eXl2siLLABAiAAAiBQSwLK0uNamqthN4iiGgLTUHNlUa+3KR0mBgIgUBcCGvrm+H9mKioqDh48yMqhqsKaNWuysrJkc39cqySQlZW1Zs0aLsaDBw/i50aaXauwBgIgAALqE1CWHqtvoS4tIYrqQq/2fZVFvS5ZF/qCAAjUWwK1/7KQ6xkVFdW1a1f6iKNr16579+6VSqUqk3/cVEVAKpXu3bu3W7duLNKoqCg56qgAARAAARDQOgFl6bHWB34zAESRbjjLjqIs6vU2pcPEQAAE6kJA9iugVte//vrr9OnTae7eqVOnnTt3lpSUqMr3cU9tAiUlJTt37mRPS5s+ffqvv/5aqyihEwiAAAiAQC0JKEuPa2muht0gimoITEPNlUW9LlkX+oIACNRbAnX/5jhw4IClpWXVOctmZmb+/v5FRUVqJ/xoqC6BoqIif39/elqapaXlgQMH6h44WAABEAABEFCTgLL0WM3udWwGUVRHgLXszm/UazlpdAMBEOCDwPPnzz08POgDolGjRqWmpqqb46NdrQikpqa6uLhQ4B4eHjjylY9VjzFBAAT0kQC/6TFEET9rjt+o8+MzRgUBEKg5AalUOnDgQELIW2+9tW3btlol+ehUGwLbtm2j29MNHDhQKpXWPHToAQIgAAIgUDMC/KbHEEU1i5amWvMbdU15ATsgAAJaJZCbm2tjY0MIadeuXY322j5//ryHh4eLi8u///3v6Ojo2mgCNfqkp6e7u7uHhISo0bZBNjl//rytrS0hxMbGJjc3V6uxhnEQAAEQAAF+02OIIn5WIL9R58dnjAoCIFATAlKptFOnToSQd999NyMjQ31VsWfPniZNmpiamjo6OpqamhoYGGzdulX97uq3TE5OJoR8/vnn6ndpcC0zMjIGDBhACOnUqROeF9Vk/aItCIAACNSYAL/pMURRjQOmkQ78Rl0jLsAICICA9gj8+eefPXv2JIQ4OjpmZ2erryVycnKEQqG1tfXNmzcZhklNTRUKhb169aIWCgoKjh07tmfPnjNnzjAMk5+fHx0dnZ6eLhKJDh48KJFIuAMlJSXt378/Li6OrYyNjQ0NDb116xat4YoiGcsMw+Tm5kZHR2dkZISHhyckJLBGGlwhOzu7T58+hJCePXv++eef2gs6LIMACICAnhPgNz2GKOJn+fEbdX58xqggAAJqE5g5cyYh5J133snMzKyRiggNDSWE+Pn5sb3Yp0zZ2dl2dnYCgUAoFBJCvLy8Ll26RAjp37+/iYmJgYGBmZkZq148PT0JIU2aNCGETJo0qaSkZMyYMQYGBubm5qampqGhoQzDsKJI3jLDMHFxcYQQe3t7QsiMGTPY+TTEQmZmZo8ePQghM2fOVDuGaAgCIAACIFAzAvymxxBFNYuWplrzG3VNeQE7IAAC2iAQFRVFCDExMbl8+XJNJURAQAAhZPPmzfIdk5OTvby8zp8/L5VK+/bta2trS0WRg4NDXl7egQMHCCHLly9nGCYyMpIQ4uvrW1RU5OvrO2jQoA0bNhBCduzYUVxc7OLiYmNjU1JSwooiecusKOrRo8fFixfT0tLk59Owai5fvmxqakoIwdGu2ljzsAkCIAAClZWV/KbHEEX8LEJ+o86PzxgVBEBADQJlZWV0c4W1a9fWQjZs2bKl6uvF39+f7ZuXl8eWw8PDZ82a1bVrV0KIlZUVFUWLFi1iGCYlJYUQsnjxYoZh1qxZQwjh7tDg4+NDCBk7duyUKVN69epFCJFIJKwoYhhGxjIripYsWcKO3tAL69ato5sulJWVqRFJNAEBEAABEKgZAX7TY4iimkVLU635jbqmvIAdEAABjRMICwsjhPTo0aOkpKQWKiIhIYEQMnLkSNq3sLCwY8eOw4YNYxjm0KFDhJA5c+bExMQMHz7c2tqaiiKqW65du8bumhAYGEgIOXr0KMMw169fj4iImDNnDiFk3bp1O/7+ZGVlsaJI3jIrirjyrBbu1KsuJSUlVBCGhYVpPO4wCAIgAAIgwG96DFHEzwrkN+r8+IxRQQAE1CDg7Oxc9e7c999/X2s9MHr0aELIlClTNm/e/P7779MX4RiG+eyzzwghBw8eTEhIaNasWatWrZSJIrFY3KRJkyFDhpw4ccLV1dXAwIA+gPLx8RGJRE5OTkOHDi0uLmZFkbxlVhTV7nlXrX3XdseNGzdSzalGJNEEBEAABECgZgT4TY8himoWLU215jfqmvICdkAABDRLgGEYuuHB3bt3a53f5+bmfvjhh0ZGRoQQIyMjDw+PoqIihmHEYrG1tTV9AczV1VUgEJw6dYoQIv+kiGGYrVu3WlhYEEJMTU3Xr1/PMMzChQupzRYtWtCziVhRJG9ZIpHQjRYamSi6e/eumZmZgYEBwzCaDT2sgQAIgAAI8JseQxTxswL5jTo/PmNUEACB6ggkJiYSQgYMGFBrRcR2vHfv3vXr1wsLC9kahmGKi4slEolUKuVWKiuXlJRIJBKuhby8vBs3blCJJdOrRpZl+jasy0GDBhFCEhMTqwsm7oMACIAACNSMAL/pMURRzaKlqdb8Rl1TXsAOCICAZgmEhIQQQqZPn96wdIJezXbGjBmEkJCQEM2GHtZAAARAAAT4TY8hivhZgfxGnR+fMSoIgEB1BOjO1wsXLtQrmdGwnF20aBEhZMOGDdUFE/dBAARAAARqRoDf9BiiqGbR0lRrfqOuKS9gBwRAQLME8KSo/gskPCnS7JqHNRAAARBgCfCbHkMUsYHQaYHfqOvUVQwGAiCgNgEN/qao/quLBjrDgQMH4jdFaq9oNAQBEACBGhDgNz2GKKpBqDTYlN+oa9ARmAIBENAgAbr7nLm5eU5OTgPVDI172jk5Oebm5th9ToNrHqZAAARAgCXAb3oMUcQGQqcFfqOuU1cxGAiAQE0IDB8+nBCyadMmHasLqVR65coVhmHS09Pd3d3pptuRkZHTp0//4IMPIiMj2cq6TIxrnNrZvs3rA5AAACAASURBVH27s7MzHboulnXTd9OmTYQQZ2fnmoQUbUEABEAABNQiwG96DFGkVpA03ojfqGvcHRgEARDQFAH6syJHR0c1N87WiBgoKChwcnJyd3dnGObq1atCoXDZsmUMw3Tq1EkoFHp6ekZFRbGVdRmRa5xhmKKiIhsbmy1bttTFps76SqVSR0dHbD2nqaUOOyAAAiAgQ4Df9BiiSCYcOrrkN+o6chLDgAAI1JxAaWlp69atCSFBQUG1TveTkpL2798fFxfHtRAbGxsaGnrr1i2GYXJzc6OjozMyMsLDwxMSEqKiogghY8eOvXTpUpVAio6OvnHjRnx8vLm5uZOTU1xcHFvJGpQZoqCg4NixY3v27Dlz5gzbhmEY+WbUOG2TnJy8Z8+e2NjYkpIShmHy8/Ojo6PT09NFItHBgwclEgnXFO/loKAgQoiVlVVpaWnNA4seIAACIAAC1RDgNz2GKKomPFq6zW/UteQUzIIACGiEQHh4OCHEwsLi+vXrtVACnp6ehJAmTZoQQiZNmsQwTElJyZgxYwwMDMzNzU1NTUNDQ+Pi4ggh9vb2hJAZM2b06NGDvPk4OzsnJycTQj7//POOHTvSSqFQyFbS+cgMkZ2dbWdnJxAIhEIhIcTLy0thM4ZhuHb8/PwMDAzoEAMGDMjKyrp06RIhpH///iYmJgYGBmZmZgkJCbUgoI0u169ft7CwIIQcPXpUI1GGERAAARAAARkC/KbHEEUy4dDRJb9R15GTGAYEQKC2BNzc3AghAwYMuHfvXo1S/MjISEKIr69vUVGRr6/voEGDJBLJ7t27CSE7duwoLi52cXGxsbE5c+YMIaRHjx4XL15MS0tLSUmhh8beuXOH1S137tyxsLAYMWJEZmYmW8kwjPwQUVFRXl5e58+fl0qlffv2tbW1VdhMIpGwdmJjYwkhEyZMyMnJCQ4OJoR4enpSUeTg4JCXl3fgwAFCyPLly2vkvpYa37t3b8CAAYSQ8ePH1zak6AcCIAACIFANAX7TY4iiasKjpdv8Rl1LTsEsCICApghIpVJbW1tCyKhRowoLC9XP9desWUMIiY6O5nbx8fGhb8dNmTKlV69ehJCffvqJELJkyRLaLCsrixBCf1PE6haGYYRCoYuLi8wTHoVDhIeHz5o1q2vXrvQFM4ZhFDZjjX/99deEkKioKDqBTp06denShYqiRYsWMQxDddrixYu5jvBSLiwsHDVqFCGkffv2UqlUUyGGHRAAARAAARkC/KbHEEUy4dDRJb9R15GTGAYEQKAOBDIzM5s3b04ImThxovq6KDAwkL7ixTDM9evXIyIicnJy5s2bRwhZt27djr8/x48fr/oW8vf3r4Uokh+CPomaM2dOTEzM8OHDra2tGYaRb5aTk8OKorVr17LzlEql1tbWjo6OVBRRqXbt2jX6Fh8vQogdtLCwcOLEiVXP2Vq0aJGZmVmHeKIrCIAACIBANQT4TY8hiqoJj5Zu8xt1LTkFsyAAApolcPXqVVNTU0LI4MGD09PT2UxdRUEsFjdp0mTIkCEnTpxwdXU1MDC4cuXKkSNHCCE+Pj4ikcjJyWno0KH07bW1a9dSU7m5uYSQYcOGxcTEsLpF2ZMi+SE++eSTqgcpBw8eTEhIaNasWatWrRiGkW925coV1viVK1eMjIwcHR0jIiJ8fX2pQqtvoig9PX3w4MFVm16YmZldvXpVs8GFNRAAARAAARkC/KbHEEUy4dDRJb9R15GTGAYEQKDOBNLS0tq0aUMIsbW1vXjxogo5xN7aunUr3RLA1NR0/fr1tH7hwoVGRkb0iUdISAjdaIEVRQzDDB06lG5ywOoWZaKIYRiZIcRisbW1NSHExsbG1dVVIBDQjeNkmsm8hhccHGxlZUUIMTIymj9/fnFxcb0SRRcvXqRvMLZt2zYtLa3OkYQBEAABEACBagjwmx5DFFUTHi3d5jfqWnIKZkEABLRBQCqVOjk5EULeeuutVatWFRcXs/pHWaGkpEQikci8dJeXl3fjxo2ioiKFvaRS6S+//KL+4UgyQxQXF0skEvnuMs1khi4pKbl586bMPGXa6P6yuLh41apVb731FiHk3Xffxe+ItLGqYRMEQAAE5Anwmx5DFMlHRBc1/EZdFx5iDBAAAc0RePr0qYeHB929um/fvomJibqXCnoyYmJiYt++fSlqT0/Pp0+fai6MsAQCIAACIKCKAL/pMUSRqtho7x6/UdeeX7AMAiCgPQKxsbE2Njb0fTNfX9/MzEw9ESq6cTMzM9PX15e+ZNiuXbvY2FjthRKWQQAEQAAE5Anwmx5DFMlHRBc1/EZdFx5iDBAAAS0QePTokbe3Nz3zVCgUrlixoqYHGelGYDSsUe7du7dixQp68qyBgYG3t/ejR4+0ED2YBAEQAAEQUEWA3/QYokhVbLR3j9+oa88vWAYBENABgevXr9OTc+ihQP7+/tnZ2Q1Lh9ST2WZnZ/v7+9NdIgghLi4u169f10EEMQQIgAAIgIA8AX7TY4gi+YjooobfqOvCQ4wBAiCgZQLx8fHsr1/Mzc19fHyuXr1aT8RG/Z/G1atXfXx8zM3N6c+H+vXrFx8fr6mIvXz5UlOmYAcEQAAE9IcAv+kxRBE/K43fqPPjM0YFARDQAoHo6Gj2qZGhoeGYMWMOHDhQ3/Zzqz8aqbCw8MCBA2PGjDE0NKRyaNSoUdHR0XWMDMMwcXFx33///axZs3r16iUUCqGL6ogU3UEABPSQAL/pMUQRP0uO36jz4zNGBQEQ0BqBW7dueXh4NG3alCb6lpaWHh4eMTEx9UeN8D6TmJgYDw8PS0tLiqhp06YeHh63bt2qRUz+/PNPiUQSEhLi5+c3atSoli1btmrVysXF5YsvvggNDZVIJC9evKiFWXQBARAAAT0nwG96DFHEz/LjN+r8+IxRQQAEtEzgwYMHW7du7devH837CSEdOnTw8fH5+eeflR1PxLtW0eoEioqKfv75Zx8fnw4dOrBM+vXrt3Xr1gcPHtQuGo8ePTIwMDAxMenfv//y5cvPnj3LMEztTKEXCIAACIAAlwC/6TFEETcWuivzG3Xd+YmRQAAE+CCQnp7+1Vdf0f27qRgQCoWTJ0/etWuXRCLRqg6pD8YlEsmuXbsmT55MN5SjBGxsbL766qv09PS6B+TYsWOWlpZTp05t3bq1g4NDSkpK3W3CAgiAAAiAAL/pMUQRPyuQ36jz4zNGBQEQ0DmB5OTklStX9u7dm31OQgixs7P7+OOPd+7ceePGjfqgYTQyhxs3buzcufPjjz+2s7PjOtu7d++VK1cmJydrlv2+ffvs7e3v37+fnJz8+++/c42Xl5dzL1EGARAAARBQkwC/6TFEkZph0nAzfqOuYWdgDgRAoN4TKCgo2LVr1/jx499++22uZmjXrt3YsWOXL19++PDh9PR0jegT3RhJT08/fPjw8uXLx44d265dO65Tb7/99vjx43ft2lVQUKC9yPj7+/fv37+0tJQ7xKtXr9q3b+/q6rpjx478/HzuLZRBAARAAARUE+A3PYYoUh0dbd3lN+ra8gp2QQAE6j2B169f37x5c9u2bZMnT27evDlXS9BTj1xcXObOnRsYGBgREVF/3rWTSCQRERGBgYFz5851cXFhTxZi59+8efPJkydv27bt5s2br1+/1k0cvLy8xo0bJ7PRXGlp6cmTJz09Pa2srIYOHaqbmWAUEAABEGgEBPhNjyGK+FlC/EadH58xKgiAgCICr169UlSto7o7d+5EREQsXbp09OjR8hqJEGJqatqzZ09XV9fZs2cvWbJk27ZtR48eTUxMvH37tsafCN2+fTsxMfHo0aPbtm1bsmTJ7NmzXV1de/bsaWpqyoofttC8efPRo0cvXbo0IiLizp07OuL1z2Fevnw5btw4Ly+vf1b//1c5OTn//0Vl5V9//fXkyRNuDcogAAIgAAIsAX7TY4giNhA6LfAbdZ26isFAAASUE3j16lXTpk1btmz5zjvvjBgxYtq0aQsWLPD399+5c+exY8cSExMzMjIePHjw+PFj5TY0eaegoCAqKmrz5s3z588fOXJkmzZtWBGisGBiYmJra9u1a9chQ4aMGjXqQ85n7ty5S/75mTt3Luf+h6NGjRoyZEjXrl1tbW1NTEwU2mcr27RpM3LkyPnz52/evDkqKkqr78XVCGhpaWn//v39/f3V6RUZGSkUCl1cXH744Yd79+6p0wVtQAAEQEB/CPCbHkMU8bPS+I06Pz5jVBAAAUUEXr169dtvv/33v/9NTEyMiIjYtWuXv7+/r6/v9OnTR4wY0blzZ3r6EF9PGEpLSyUSSVRU1N69e/39/T08PEaPHt2rV6/WrVuzikVThdatW/fq1Wv06NEeHh7+/v579+6NioqSSCQyv9tRRJHPugcPHtjb2+/bt0+dSZSWlp46dWrOnDnW1tbbtm1TpwvagAAIgICeEOA3PYYo4meZ8Rt1fnzGqCAAAjUhcPbs2bFjx1pbW9vY2GzcuLEmXXXX9unTp/n5+ZmZmYmJiXFxcSGcz5YtW9b887NlyxbO/ZC4uLjExMTMzMz8/PynT5/qbtJaGCknJ6dNmzYxMTE1si3j9Y0bN/iSvjWaNhqDAAiAgJYI8JseQxRpKazVmOU36tVMDrdBAAT4JiCVSt99992QkJCvv/7azc2N7+lg/OoJXLt2rWPHjjI6p/punBbe3t705brt27fj5ToOGBRBAAT0hQC/6TFEET/rjN+o8+MzRgUBEKghgeTkZGtr6/v379ewH5rzQ6AuiojO+OnTp6dPn/by8mrfvv2jR4/4cQOjggAIgABPBPhNjyGK+Ak7v1Hnx2eMCgIgoITA7du358yZc/LkSe79J0+edO7c+fTp09xKlPWTwF9//XX06FGd7behn5DhNQiAAO8E+E2PIYr4WQD8Rp0fnzEqCICAHIGYmBhXV9e2bdsGBgb++eef3PteXl7e3t7cGpT1lsC9e/fGjh0rFApHjRq1bdu2vLw8vUUBx0EABBoxAX7TY4gifpYWv1Hnx2eMCgIg8E8CV65c6dev348//lheXv7PO5WnTp3q3LkzfnYvg0XPL58+fRoZGVklldXcAVzPccF9EACBBkeA3/QYooifBcNv1PnxGaOCAAioR+D+/fvW1tbJycnqNUcrfSdw6tSp8PBwvFyn7+sA/oNAwyfAb3oMUcTPCuI36vz4jFFBQL8JSCQSd3f39PT0ajGMGzdu1apV1TZDAxCgBE6dOjVu3DihUPj+++9v3br1jz/+ABkQAAEQaIgE+E2PIYr4WTP8Rp0fnzEqCOglgdevX0dGRjo7O9va2gYFBT18+FA1hv/85z/9+/d/+fKl6ma4CwIyBMrKyqKiory9vQsLC2Vu4RIEQAAEGgQBftNjiCJ+Fgm/UefHZ4wKAnpJ4NChQ/379z969Kg6Oufp06cdOnTIzs7WS1RwWvMEysvL58yZc+TIkb/++kvz1mERBEAABDRKgN/0GKJIo8FU2xi/UVd7mmgIAiBQVwKvX7+ukYm6n3VTo+HQuHETKCsrCw4OdnNzEwqFI0eO3LNnT+P2F96BAAg0aAL8pscQRfwsHn6jzo/PGBUE9IBAWlqah4cH/lVeD0LdwFwsKyuLjo7eu3dvA5s3pgsCIKBPBPhNjyGK+Flr/EadH58xKgg0XgKvXr06efLksGHDOnbsuGXLFjztabyhblSehYSEzJ49+8iRI48ePWpUjsEZEACBhkmA3/QYooifVcNv1PnxGaOCQOMl8M033wwePPj48eMVFRWN10t41tgIMAyzb9++CRMm0Jfrrly50tg8hD8gAAINigC/6TFEET+Lhd+o8+MzRgWBxktA/vTVxusrPGuEBMrKymJiYnJzcxuhb3AJBECg4RDgNz2GKOJnpfAbdX58xqgg0FgIXL16dfHixTXdQaGxeA8/9IVAnz59Pv74459++qnafeT1hQj8BAEQ0DIBftNjiCIth1eJeX6jrmRSqAYBEFBFoKKi4ueffx40aFDnzp23b9+uzhbbqszhHgjUbwL05bqJEycKhUJXV9dXr17V7/lidiAAAg2eAL/pMUQRPwuI36jz4zNGBYEGTmDmzJnDhw8/deoUssMGHkndTf/PP//Mz89PSUlJTEwMDQ0N+fuzd+/eNf/87N279++bIaGhoYmJiSkpKfn5+X/++afupqtkpGfPniUnJ3NvlpeX4x8FuEBQBgEQ0AgBftNjiCKNBLHGRviNeo2niw4gAAKVldhTDqtAnsDTp0/v3Llz7ty5/fv3r1692sPDw9nZ2c7OrlWrVkRzn1atWtnZ2Tk7O3t4eKxevXr//v3nzp27c+cOX2vy7NmzzZo1mzVr1o8//oiX6+RXBWpAAARqR4Df9BiiqHZRq2svfqNe19mjPwjoAYHLly9v2rRJDxyFizUg8PTp0xs3bhw+fPjLL7+cMGFC586dVQufZs2a2draOjk5DRky5EPOZ/bs2Uv++Zk9ezbn/odDhgxxcnKytbVt1qyZ6iE6d+48YcKEL7/88vDhwzdu3NCZTGIYZv/+/R988IFQKNy8eXMNIKIpCIAACCghwG96DFGkJCxaruY36lp2DuZBoAETePnyZXh4+Lvvvtu1a9c9e/Y0YE8wdQ0RuHXrVnBwsJeXl4ODg7w+MTExsbe3HzFixMyZM5cuXbpt27bjx4+npKRkZGQwmvtkZGSkpKQcP35827ZtS5cunTlz5ogRI+zt7U1MTOSn5ODg4OXlFRwcfOvWLQ0xUGXm2bNnv//+O7dFYWEhXq7jAkEZBEBATQL8pscQRWqGScPN+I26hp2BORBoRAQGDhz4/vvvR0VFYXO5RhTVmrny+vXrq1evrlu3zsXFxcLCgqs6mjZt2rNnz0mTJn3zzTchISFXrlzRnPCppaUrV66EhIR88803kyZN6tmzZ9OmTbkTtrCwcHFxWbdu3dWrV3W2pD09Pd9+++2ZM2eGhYX973//qxl9tAYBENBjAvymxxBF/Cw9fqPOj88YFQQaAgHkcA0hSlqZY3Fx8cGDBz/66KPmzZtzdYWdnd306dMDAgLi4+NLSkpqqV101a2kpCQ+Pj4gIGD69Ol2dnZcR5o3b/7RRx8dPHiwuLhYKwQ5Rn/99dcDBw5MmjRJKBTev3+fcwdFEAABEFBKgN/0GKJIaWC0eoPfqGvVNRgHgQZEIDExMTw8vAFNGFPVOIGioqJNmzYNGDCAqx/s7e19fHxCQ0MzMzN1JWe0Mk5mZmZoaKiPj4+9vT3XwQEDBmzatKmoqEjjPGUMvnjxgltTXl6ekJCAw465TFAGARBgCfCbHkMUsYHQaYHfqOvUVQwGAvWPwIsXLw4fPty3b9933nnnp59+qn8TxIy0TuD+/fs//PDDsGHDWKlgYWHh5uYWFBSUlpamFYHCt9G0tLQq79zc3LjvBA4bNuyHH37Q2cOcgoKCwYMHC4VC+nJdfdhwXOtLDQOAAAioTYDf9BiiSO1AabQhv1HXqCswBgINjEB5eXmHDh1Gjx4dGxvbwKaO6WqCQFJS0owZM4yNjakcMjU1nTJlSmhoaGFhId+yRUfjFxYWhoaGTpkyxdTUlEIwNjaeMWNGUlKSJgBXb+P+/fsHDx6cPHmyp6dn9a3ftCgsLFy1apWajXNzc9etW6dO49zc3O+++06dlmgDAiCgAwL8pscQRToIsYIh+I26ggmhCgT0iQDDMPrkLnz9PwKPHz/euXNnz549qQwwMjIaN27c3r177927pyMtUv+GuXfv3t69e8eNG2dkZESx9OzZc+fOnY8fP+Zl0YjF4nPnzsm/XPfixYv8/PyvvvpKzVmJxeKePXuq01gsFjs6OipsKT+NyspKhZUKu6MSBECgFgT4TY8himoRMg104TfqGnAAJkCg4RCIj48XiUQNZ76YqYYJPHr0aO3atZaWljTvt7a2Xrp06S+//FL/RApvM/rll1+WLl3apk0bisjS0nLt2rWPHj3ScCSUm3vx4kVYWJi9vX3Xrl2FQuFHH310+PDh33//PSwsbODAgREREaWlpRKJpLKysrS0NDMz87fffjtx4gStqaysfP36dUpKysmTJ6VSaWVlJSuKHj9+zO5L/vjx49u3b9MpVFRUxMfHJyYmJiUlsaLo5s2bkZGRJSUltE1ERMTAgQPDwsK4P4tSWKncLdwBARCoGQF+02OIoppFS1Ot+Y26pryAHRCozwSeP39+8ODB3r17Ozg4REdH1+epYm5aIvDXX3+tW7eOlUODBw/et29fUVERb+Kjfg9cVFS0b9++wYMHs9Jo3bp1f/31l5aiQ82WlJSsXLmyXbt2M2bMSExMrKysfPDgwebNm7t3725lZcVWpqWlde7cubKyMi0tzc7Orn///j4+PlZWVkFBQa9evXJzcxs6dOgXX3zRtm3bixcvsqKILVClRPVPeXn5kCFDXFxcvLy8unfvTis/+eST9957z8/Pz97e/uTJk3RuCQkJM2bMaNeu3cqVK1mxpLBSq4hgHAT0hwC/6TFEET8rjd+o8+MzRgUBHRIoKSmxsrIaN27c+fPndTgshqovBCoqKrZt28Zurj106NBTp07Vb0lSj2Z36tSpoUOHUmnUvHnzbdu2VVRUaCO0586da9q06TfffMPd6UFhZVpamqWl5YULF1JSUoyNjX/77bfKysqoqKjevXtHRUX17Nnz1atXlZWVMTExGzZsYLUQW+CKorCwsEGDBlF3AgMDHR0d4+LievfuTS1kZWVZWVlxz3S6f//+ihUrjI2Nz507x0JQWMneRQEEQKB2BPhNjyGKahe1uvbiN+p1nT36g0BDIJCbm9sQpok5ap5ASkpKnz59aE4/ZMiQEydO1CPB0XCmcuLEiSFDhlCMffr0SUlJ0XioiouLvby82rZt6+fnd/fuXWpfYWVKSkrz5s2HDBliZmZmbm5+5MgR+tSoe/fua9eunT9/PndurBZiC1xR5Ofnt3TpUtr+2rVrjo6Oa9asadeundvfH4FAwG5WfvfuXT8/v7Zt23p5ebHnOyms5E4AZRAAgdoR4Dc9hiiqXdTq2ovfqNd19ugPAvWPQFxcHJtU1b/ZYUY6IvDw4cO5c+cKBAJCSLt27Q4dOsTVIBKJxN3dfe/evdzK+lbOzc1VPUmpVHrlyhWdTfvQoUPt2rUjhAgEgrlz5z58+FDjsfzzzz+///77Tp06jR49Oisri9qXqWRfnzt37py1tbW/vz8VRd26das6cGnOnDm015MnT27fvs1qocuXL/fo0YPeunDhAn1TbtmyZZ9++imtTElJcXR0/O6776ZOnXqH83nx4kVWVtbo0aM7der0/fffs1uHK6ykpvAnCIBA3Qnwmx5DFNU9grWxwG/UazNj9AGBekng2bNnwcHBPXv27NOnz+XLl+vlHDEpHRFITU3t2LEjIcTIyGjRokV5eXkyyiEhIYEQ4u3tLVNfry4zMjJUTLKgoMDJycnd3V2Xc87Ly1u0aBHdoa5jx46pqanaiGhFRcWpU6fS0tK4xtlKVhSlpaV169aNtqHl1NTUFi1azJs3Lz4+fuPGjVOnTmVFUWZmpoWFBZU03t7eVBQlJSW1b9+ebiPx6aefOjo6pqSkWFtb01f4RCJR+/btX7x4kZaWdurUKfpOHTslhZXsXRRAAATqSIDf9BiiqI7hq2V3fqNey0mjGwjUmUBRUVHtfpyg8DiRtLS01q1bT5w4MSEhoc5Tg4GGTWD79u306CEHB4ekpCSFmoEVRfn5+dHR0enp6VUZ8MGDByUSCdteKpVGRkYePny4oKAgJiYmNTU1Nzc3Ojo6IyMjPDw8ISGBtoyNjQ0NDb116xa9zMrK+vHHH/fv35+cnMyaKigoOHbs2J49e86cOUMrFZqit+i4R48elUgkrCiStxAVFUUIGTt27KVLl2jHlJSU/fv3x8bGlpSU0BqFk6G36vJnUlKSg4MDIcTY2Hj79u06Xi4qRFFlZeWyZcuEQqG5ubmhoeH48eP37NnDbsk9e/bsFi1adOnSZcGCBVQUVVZWrlq1ysbGpk+fPlOnTqWVmzZtatOmzeDBg21tbWNiYnTsHYYDARCgBPhNjyGK+FmH/EadH58xasMnwN2alvVGYSV7l1uoqKgwNTV99uwZt1LNMnucCPeckLKysuzsbBweoibDxtqsrKxs2rRp9KcvHh4eBQUFylJ/VhRdunSJENK/f38TExMDAwMzMzNW7YwbN44QYmFh4eDgIBAIvL294+LiCCH29vaEkBkzZpSUlIwZM8bAwMDc3NzU1DQ0NDQ5OdnS0rJly5atW7cmhHz77bcMw2RnZ9vZ2QkEAqFQSAjx8vJiGEbGFHeeY8aMIYSYm5t36dKFiiKFFnr06EE9dXZ2ZhjGz8/PwMCA1gwYMKDq5S6Fk+EOVJdyQUGBh4cHHW7atGllZWX1Z1GVl5ffv3//t99+CwkJuXHjBndiDx8+lN9D7/HjxzKVFRUVUqm0dv9qwx0OZRAAgVoT4Dc9hiiqdeDq1JHfqNdp6uisfwToESL0tBDWe/lKmVM+ct58aPt79+7dvXv31q1bhBCRSESFjUx7hcePyBwnEh0dHRISgsND2Cig8OTJE2dnZypjqv2xkIwocnBwyMvLO3DgACFk+fLlDMMcPXqUELJgwQKGYb799lsqTqiS6dGjx8WLF9PS0nbv3k0I2bFjR3FxsYuLi42Nzbp16wghBw4cKCoqWrNmTUhICMMwycnJXl5e58+fr3oE1LdvX1tbW1YUsaZYfRIeHk4I8fX1ZRhm5cqVdFyFFlJSUggh06dPv3PnTmxsLCFkwoQJOTk5wcHBhBBPT086bZnJsANppLB3714LCwtCiLOz85MnT+r/Ipw6deqnn34aHx+v/r/g1H+nMEMQaJQE+E2PIYr4WVT8Rp0fnzFqAyQgf4RIZWWlwkr5Uz4uXbpkaWlZUlIilUqtrKzEX2vr5gAAIABJREFUYnFgYCDN9v766y/59vLHj7DHiXh4eFhbWzdt2tTJySkzM1PhOSEKKxsgcky5BgQePnxID9Vp1arVhQsXqs34ZUTRokWLGIahMmPx4sUMw6xevZoQEh0dzTDM7du3uaJoyZIl1L6Pjw99gW3KlCm9evUihBw/ftzMzIwKs3Hjxp09e5a2DA8PnzVrVteuXQkhVlZWrChiTbETpuPSt+xSU1PpuAzDyFvIysoihNDfFH399deEkKioKGqnU6dOXbp0SUxMVDgZdiyNFC5cuNCqVStCyODBg7Wx9UINFoEaTTMyMgICAoYNGyYUCqdPnw5ppAYzNAEBfgjwmx5DFOlj1PnxGaM2NAIKTwtRWKnslI9ly5ZNmDDB1dV1/fr1lZWVL1++JIQ8e/ZMYfu0tDSZ40focSLR0dGtWrXq2bOnvb09F6HCc0IUVnJ7odxoCJSWlvbr148Q0rZt28uXL6uT68uIIipOrl27Rgj5/PPPGYZZv349ISQsLIxhmMTERK4o8vf3p0PMmzevaiu2devW7fj7k5WVdfPmzW+//fZf//qXiYmJUCgsKio6dOgQIWTOnDkxMTHDhw+3trZmRRFrip1zQEAAIeTnn39mGEYkEtFxFVrgiqK1a9cSQo4ePcowjFQqtba2dnR0ZBhGfjLsQBosXL582cbGpkqV9evXr7S0tEGsq99///3EiRMNYqqYJAjoJwGIIn2MO79R10fi8LnmBBSeFqKwUtkpH+Xl5d27d3dycqI7OLGiSGF7+qSITjMtLa179+70OBGGYfLy8uhxIqwTCs8JUVjJdkGhkRGYMWMGIaR9+/apqalq5vrViqLk5GSBQPDOO+9s3brVycmJK4rWrl1LRzly5AghxMfHRyQSOTk5DR06dMWKFaamprt27bp9+/awYcPeeuutwsLCzz77rGp6Bw8eTEhIaNasWatWrVhRxJpip52YmCgQCIYNGxYdHe3m5kbHVWghNzeXEDJs2LCYmJgrV64YGRk5OjpGRET4+vpW/bXi7++/cuVK+cmwA2m2kJqa2r59e/pTqwa6ui5dutSxY8eFCxeeP3/++fPnDdQLTBsEGg0BftNjPCniZyHxG3V+fMaoDZOAzGkh1AmZSoWnfFRWVt66dcv6zef27dvcJ0UK29PddV+9ehUXF5eamtqtWzf540QqKysVnhOisLJh8sas1SKwceNGQoiZmdnFixfVT/SrFUUMw2zevLlly5aWlpbLli0jhMybN4/+poirZBYuXEj3p27RokVISEhmZib9XRMhpFmzZrt372YYRiwWW1tbE0JsbGxcXV0FAoFEIpE3xU7e39/fyMjI0NBw1qxZJiYm3t7eCi0wDDN06FC6SwTDMMHBwVZWVnQX8vnz5xcXFyucDDuKxgsXL16kb+tt3LhRrcjVv0aZmZmBgYH05botW7bUvwliRiCgRwT4TY8hivhZavxGnR+fMWpDJsCeFsJ1gq1UeMrH8+fPe/XqFRYWFhoa6uDg8Pz589evX1e9p/Tw4UOF7S9dutS6dWt7e/sBAwacO3euW7du8seJ0OMacXgINwp6WBaLxYaGhgYGBsHBwZrN8sVi8dKlSyMiItjX51asWKFwiLy8vBs3bhQVFbF37969K5FI2H2xGYYpLi6WSCRSqZRto7qQn59/9+5dbhuFFqRS6S+//MKaLSkpuXnzZmFhIbej/GS4dzVbDg4ONjAwMDQ0FIvFDXo1/vHHH/fu3eO6ILM9HfcWyiAAAtogwG96DFGkjZhWb5PfqFc/P7QAgRoSkD/lw8/Pb+LEidSMm5ubn59fZWXlyJEjzc3NMzMzZdrv37+/WbNmFhYWycnJ7EH1Co8TqeG80LyxEXj9+jX9KdH8+fM1m9wzDPPf//63ZcuWxsbGAwcObNmypZmZ2bVr1zQ+SuMzOH/+/KoNKpycnF6/ft2YFpyHh0eHDh18fX3PnTuHl+saU2ThS70lwG96rC1R9OzZs7Nnz+7fv7/qxwP79+8/e/Zs7Q4nqbdhq+PE+I16HSeP7iCgkIA6p3y8fv368ePHtDu3fXp6ekFBgUKz8seJKGyGSj0hEBYWRjdzy8nJ0Ya6SE9P37Bhg5+f36pVq27cuKGNIRqfzZycHPoWX1hYWCNbh3fu3AkMDHzvvfeEQmFeXl4j8w7ugEB9I8Bveqx5UZSXl+fu7k5fMqZHvNE/zczM3N3d8Z1C1x+/Ua9v/x/AfPSNQEVFBX0ipG+Ow986Enjx4oWtrS0hZMuWLY1PWjRoj7Zs2UL3vWisG17/8ccfMs/BMjIy6rie0R0EQECGAL/psYZFUVBQkLGxMVVBgwf39vaetGbNXG/vSYMH96aVxsbGQUFBMgj08JLfqOshcLhcTwg8fvx469atnTp1Gj58+MuXL+vJrDCNhkKAHlfauXNn7k93GrSWaDSTLykpsbe3r9oBIjY2tqEsp7rM87fffuvcuXOHDh0WLFhw9uxZvFxXF5joCwIsAX7TY02KIvpWsUAg8PaeVFQUW1l5nftfUVGst/ckgUBACJk/fz7rv34W+I26fjKH17wT2LBhQ4sWLT766KPU1FTeJ4MJNEQCHh4ehBD5w08bjbRo0I4sWbKEEOLp6dkQl1bt5pyVlbVhw4bhw4e7ubnVzgJ6gQAIcAnwmx5rTBRt2rSJEGJubhoZuYWrhWTKkZFbzM1Nq1pu2rSJS0HfyvxGXd9ow996QiAxMbG4uLieTAbTaHAEysvLLS0tCSGXLl2qu3jIzc11d3ffu3evalPp6enu7u4hISGqm+EuwzCXLl0ihDRv3ry8vLzBra46TpgexcYayczM/OWXX9hLFEAABNQkwG96rBlRlJeXZ2xsLBAITp/eLKOC5C9Pn94sEAiMjY31+fdF/EZdzaWJZiBQFwIvX77EO/d1AYi+MgRu375NCOnYsaNGFEhGRgY9I1W1teTk5Kp95D///HPVzXCXErCzsyOE0HPJZMKnV5dHjhyxt7dv3779/PnzsdGUXoUeztaRAL/psWZEkbv77Dd/u0ySl0AKa7y9pxBC3N3d68iu4XbnN+oNlxtm3iAIPHr0aNOmTe3bt586dWqDmDAm2SAI0JNPR4wYURcFIpVKIyMjjx49KpFIuKIoNjY2NDT01q1bMsZlRFFBQcGxY8f27Nlz5swZmZa4ZBhm5MiRhJC4uLgGsaK0PcmsrKzvv/9++PDh58+f1/ZYsA8CjYMAv+mxBkRRWVmZmZmpQCAoLIxRKIHkKwsLYwQCgZmZWVlZWeOIYk294DfqNZ0t2oOA+gS+/PLL5s2bz549++bNm+r3QksQqJbAvn37CCEzZ86si/wYM2bMmze9zbt06UJFUUlJyZgxYwwMDMzNzU1NTUNDQ7n2uaIoOzvbzs5OIBAIhUJCiJeXF7clygzDzJo1ixCyb9++aqOpzw2Cg4MlEok+E4DvIKCMAL/psQZE0fnz56v+ZWjgwF7y4kdFzcCBjoQQvf3nE36jrmwtoh4E6k7g+PHjDMPU3Q4sgIAMgcDAQELIp59+Wmv5ER4eTgjx9fVlGGblypVUFO3evZsQsmPHjuLiYhcXFxsbG+7WdlxRlJyc7OXldf78+arHTX379rW1ta31TBprx88++4wQEhgYKBM7XLIEXr9+vWTJEnt7e1tb23nz5uGpGksGBRCorKzkNz3WgCgKDg4mhMydO0WFBJK/NXfuNEJIcHCwfi4CfqOun8zhtTYIlJeXFxYWasMybIKADIG6PylavXo1IYS++ZaamkpFkY+PDyFk7NixU6ZM6dWrFyFEIpGwooUrihiGCQ8PnzVrVteuXekBsmwzFCgBPCmSWbQqLrOzszdu3DhnzhwVbXALBPSNAL/psQZEUUBAACHk66895ZWPipqvv/YkhAQEBOhbvKm//EZdP5nDa80S+N///rdhwwYbG5vPPvtMs5ZhDQQUEqj7b4ro31Y///xz1a9fRCIRFUXz5s0jhKxbt27H35+srCxW5HBF0aFDhwghc+bMiYmJGT58uLW1NdsMBUoAvylSuHTVr7x+/fratWvx7rH6xNCykRHgNz3WgCjCk6JarEh+o16LCaMLCLAEnj17tnDhQktLSw8Pj1u3brH1KICAVgnUffe5xMREgUAwbNiw6OhoNzc3KoqOHDlCCPHx8RGJRE5OTkOHDi0uLmZFDlcU0XfDDh48mJCQ0KxZs1atWrHNUKAEsPtcHf8vcPfu3SVLlnTp0qVdu3bz5s27ceNGHQ2iOwg0LAL8pscaEEX4TVEtFhy/Ua/FhNEFBLgEdu3adf/+fW4NyiCgbQIaOafI39/fyMjI0NBw1qxZJiYm3t7eDMMsXLjQyMio6pdFLVq0kDmSiCuKxGKxtbV11UYCNjY2rq6uAoGA+6IddJE+n1Ok8cV/9+7dTZs2xcfHa9wyDIJAfSbAb3qsAVGE3edqsbz4jXotJowu+kzgxYsXf/zxhz4TgO/1hICHhwchZMmSJXVRIPn5+Xfv3pWxkJeXd+PGjaKiIpl6mcvi4mKJRCKVSmXqcckwzJIlSwghnp6eqlfLs2fPVDfAXWUEvvjii7Vr1+LxkTI+qG8EBPhNjzUgiiorK93dP37zHoL65xRNxjlFjWDtwoVGT+D333//7rvv2rRps2nTpkbvLBys/wRiY2MJIZ07d+ZuEAdBUh8IlJSU2NvbE0JiY2MVLqTy8vLIyMhp06ZZWVk9f/5cYRtUqiZw+fLlpUuXdu3atV27dnPnzn3y5Inq9rgLAg2OQGMQRXl5ecbGRgKB4PTpzSo2V6C3Tp/eLBAIjI2N8/LyGly0NDVhfqOuKS9gpxET+OOPP+bNm9esWTNvb++MjIxG7Clca0AEXrx4YWtrSwjZsmVLfVACmANLYMuWLYSQ9u3bv3jxQmZFXb16deHCha1atXrvvff27dv36NEjmQa4rCmBnJycnTt3vn79uqYd0R4E6jkBftNjzTwpqqys3LRp05sT8UwjI7eo0EWRkVvMzU2rWur5PzzzG/V6/n8JTK8+ECgrKwsICPjtt9/qw2QwBxBgCYSFhdHtsHNyctiMHAV+CeTk5FhZWVU9xAsLC2MjlZ+f/+2333bt2rVbt27ffvttfn4+ewsFjRNIT09/991316xZc/36dY0bh0EQ0BkBftNjjYmiysrK+fPnV21sKhAIvL0nFRXFykijoqJYb+9JAoGAEDJ//nyd8a2fA/Eb9frJBLPil8Dz58+fPn3K7xwwOghUS+D169f9+vWjf4/wqwQwOkuA/u3v5OT0+vVrqVQaHBz83nvvtWrVatGiRdeuXas2pmhQdwIVFRUikejLL7/s1q2bjY3N1q1b624TFkBA9wT4TY81KYoqKyuDgoKMjY3Jm8/gwb3d3IY5Ozu5uQ0bPLg3rTQ2Ng4KCtI95fo2Ir9Rr280MB9+CTx48GDNmjVWVlbHjh3jdyYYHQTUISAWiw0NDQ0MDIKDg9m8HAW+CAQHBxsYGBgaGorF4j/++EMgEJiYmAwYMGDx4sW7d+/W5/fk1VnM2miTk5MjsxlDRUWFNgaCTRDQOAF+02MNi6KqTRfy8vLc3d3NzMyoCmL/NDMzc3d3x/cjXUD8Rl3jixgGGyiBgoICLy+vZs2aLViw4M6dOw3UC0xbDwls3LiREGJmZnbx4kUdiAGpVHrlyhWGYdLT093d3em23ZGRkdOnT//ggw8iIyPZyrpMhmuc2tm+fbuzszMdui6Wtdf34sWL9K/7jRs30nWYlJREnxEFBQXNnTv31KlT3PV5/vz5Y8eO3bx5s7S0lFuPslYJzJ0718nJyd/fPzU1VasDwTgI1JEAv+mx5kURxfHs2bOzZ89OnDiREDJx4sSzZ89iF07uQuE36tyZoKzPBO7duxcQEIDttvV5DTRc32fMmEF/2Z+amqq9pJ9hmIKCAicnJ3d3d4Zhrl69KhQKly1bxjBMp06dhEKhp6dnVFQUW1mXmXCNMwxTVFRkY2NTn7eUSE1Nbd++PSFkxowZ3IWUk5Njb2/v7+/PraTlI0eOTJs2zdHR0cTEpG3bthcuXJBvgxqNE6Av1y1btqxbt25t27ZNT0/X+BAwCAIaIcBveqwtUUTR+Pv7Vz0pWrNmjUZINSYj/Ea9MZGELzUi8OzZM2xYVCNiaFxvCZSWltIfF7Vt2/by5cvqq5GkpKT9+/fHxcVxu8TGxoaGht66dYthmNzc3Ojo6IyMjPDw8ISEhKioKELI2LFjL126VCWQoqOjb9y4ER8fb25u7uTkFBcXx1ayBmWGKCgoOHbs2J49e86cOcO2YRhGvhk1TtskJyfv2bMnNjaW7j+en58fHR2dnp4uEokOHjzI+7mxly9ftrGxIYT069dP/rHPgwcP+vfv7+Xl9fLlS2VLqLCw8H//+x/37vjx43v16jV58uSvvvrqwIEDMne5LVGuNYHc3FyZHQKxoU6tYaKjxgnwmx5DFGk8oGoZ5Dfqak0RjRoXgV9//XXlypWtW7fG754bV2D12puHDx8OHjyYENKqVasLFy5w9YaysqenJyGkSZMmhJBJkyYxDFNSUjJmzBgDAwNzc3NTU9PQ0NC4uDhCCD11Z8aMGT169KDvgTs7OycnJxNCPv/8844dO9JKoVDIVtJBZYbIzs62s7MTCARCoZAQ4uXlpbAZwzBcO35+fgYGBnSIAQMGZGVlXbp0qeoUoP79+5uYmBgYGJiZmSUkJChzU9v1Fy5caNWqFSFk8ODBDx8+VLgKS0tLx735yEsmhe0rKyufPXt2+/bt48ePBwYGuru7Z2dnc1uGhoaeOHEiPT2d92OOCgsLV61axZ2binJubu66detUNGBv5ebmfvfdd+ylbgqlpaUtW7bs16/f6tWr8beDbphjFBUE+E2PIYpUhEaLt/iNuhYdg+n6RyArK+vf//63paXlokWLcnJy6t8EMSMQqD2BJ0+eODs7E0IsLCz27t2rWgxERkYSQnx9fYuKinx9fQcNGiSRSHbv3k0I2bFjR3FxsYuLi42NzZkzZwghPXr0uHjxYlpaWkpKCiFk+vTpd+7cYXXLnTt3LCwsRowYkZmZyVYyDCM/RFRUlJeX1/nz56VSad++fW1tbRU2k0gkrB16Ru2ECRNycnKCg4MJIZ6enlQUOTg45OXlHThwgBCyfPly1f5q6e7evXstLCwIIc7OzqrPD3358qWXl1f//v0fPHhQ+xj/3XP9+vWTJk3q0aOHkZGRnZ3d/fv3/76jrf+VeaJCh3nx4kV+fv5XX32l5qhisbhnz57qNBaLxY6OjgpblpeXy9crrJRvVm3Nq1evLl26tHz58u7du48cObLa9mgAAtojwG96DFGkvciqssxv1FXNDPcaHYGEhISNGzfiRZRGF1g49P8IlJWVTZs2jT5U8fDwKCgoUCYG1qxZQwiJjo7mNvDx8aFvx02ZMqVXr16EkJ9++okQsmTJEtosKyuLEEJ/U8TqFoZhhEKhi4uLzBMehUOEh4fPmjWra9eu9IQlhmEUNmONf/3111WvpUVFRdEJdOrUqUuXLlQULVq0iGEYqtMWL17MdUQH5YKCAg8PD4p62rRpZWVl6qxCf39/e3t7zf6LTHZ2tsyOalZWVn369Jk+ffo333xz5MgRmbvqzJNt8+LFi7CwsIEDB0ZERCisLC0tlUgklZWVpaWlmZmZv/3224kTJ2hNZWXl69evU1JSTp48KZVKKysrWVH0+PHjW7duUYOPHz++ffs2LVdUVMTHxycmJiYlJbGi6ObNm5GRkSUlJbRNRETEwIEDw8LCuDpNYSU74doVHj9+zO1YUlJSXFzMrUEZBLRKgN/0uDaiKDExseoHlOp8RowYQf8xSZ3G/v7+SUlJWmVdf4zzG/X6wwEz0QYBTf3zoTbmBpsgoCUC27dvpwdCODg4JCUlKVQIgYGBhJCjR48yDHP9+vWIiIicnJx58+ZVnbC3bt26HX9/jh8/XvUV7e/vT43USBTJD0GfRM2ZMycmJmb48OHW1tYMw8g3y8nJYUXR2rVr2XlKpVJra2tHR0cqiqhUu3btGn2LT6GbWqpMSkpycHAghBgbG2/fvr1Gcdy3b1+bNm20+nbWkydPbty4cfTo0TVr1nzyySfc6VVUVGzatCkqKurOnTuqxVJJScnKlSvbtWs3Y8aMqlSHGpGvTEtL69y5c2VlZVpamp2dXf/+/X18fKysrIKCgl69euXm5jZ06NAvvviibdu2Fy9eZEURW6BKieqf8vLyIUOGuLi4eHl5de/enVZ+8skn7733np+fn729/cmTJ+k0EhISZsyY0a5du5UrV7JiSWEl1/c6lo8cOdKiRYu+ffuuXr366tWrdbSG7iBQLQF+0+PaiCK6fQL9tyLN/qk/WzLwG/VqFyUaNFACUql02bJlVlZWOnixpIEiwrQbMYHU1FT6Ux8jI6NFixbl5eXJyAOxWNykSZMhQ4acOHHC1dXVwMDgypUrR44cIYT4+PiIRCInJ6ehQ4fSt9fWrl1Lu+fm5hJChg0bFhMTw+oWZU+K5If45P9j70rAatra/yriao5SmlQIhZNbUsTNVfo+SQmZ3ciQjClCEgmlUq6ZUHJlOmgwhCaaTyOpRHMdLipSVKr9r9b37f/+zjnlNJyzz+mu/fT0rLPGd/3W2nuv317rfd+VK1ut5F26dCkqKkpSUlJGRoZOpzNni4+PxyuPj48XEhKiUCg3b960s7ODDI1EUlRQULBp0yYhISEAgIqKSvfMOoeHh6uoqJDiIbqmpsbe3t7U1FRdXb1fv34GBgYs74KIiIiBAwc6OzsTn58sI4mkaMCAAdBQQWho6IQJE0JDQzU1NZubmzEMCw8P9/DwwLkQHiCSoqCgID09PSjPkSNHKBTKw4cPJ0yYAGvIy8uTlZUlWsd5//79nj17BgwYEBERgfeCZSSe2sNAc3Pz8+fPd+3aNXbs2KtXr/awNlQcIdA5AuQuj7tDimJiYlq3/tm54FHv1v/sZN6/fz/aKep8rqBUhEBHCGRmZi5btmzw4MFbt24tLCzsKBuKRwj0bQSqq6vXrVsnKCgIAFBUVLx8+TIDL/L19YX6MMLCwocOHYKpGzduhCv+IUOGBAQEQEMLOCmi0+lTp06FRg5w3tIRKaLT6QxNPH/+XE5ODgCgoKBgbGwsKCgIDccxZGM4hnf+/HlZWVkAgJCQkK2tbVlZGVmk6PLly4qKiq2baYKCguvWrevIrAI784oURsQgWGNjY3FxMTHyxYsXEhISOjo6FhYW2tragwcPtre3z8/Ph3nKyspsbGzk5eWJkURSpKamBnPSaLQxY8YcOHDA1taWWD/OhfAAkRTZ29s7OjrC/MnJyRQKZf/+/YqKiqb/vQQFBUtLS2GG/Px8e3t7eXl5Gxsb/FQby0iYn9P/w8LCcNk43Raq/x+CAP+RIvYHBpnk7ggrcke9I6lQPP8iEBAQ4OPj8/nzZ/7tApIcIdBbCCQmJmppacGDDHBfiEiNysvLMzIySkpKiJEFBQVpaWmlpaXESDxcUVGRmZlZUVGBx3QeYGiirKwsIyODuThDNoY6y8vL09PTGeRkyMPRn1QqdcqUKRBGLS2txMTE3hogXqunqqoqOTn5ypUru3fvdnZ29vT0VFVVnTVrVquVmqKiouPHj9+4ccPJyQmPJJKi0aNHw+7QaLTRo0d7e3uvXr0axnz9+vXFixc4F4qLi9PQ0IBJT58+hSflnJycNm/eDCMTExMpFIq7u/v8+fNzCVdDQ0NeXt6sWbNUVVU9PT0rKythfpaRMIk7/9evXy8tLa2lpeXi4tKHpwd3wEStQATIXR53Z6eI/ZFDpKgjrMgd9Y6kQvF8hADxQAUfiY1ERQhwB4GmpiY/P7/BgwfDNf3UqVPv3r3LUQrRlyq/e/cu3BwDAAwePNjPz69zVRzujCk3W2lqarp79y6NRnv16tWmTZtMTEyUlZUHDhw4e/ZsWvuF6xQxkKKUlBR5eXlo2MbHx2f+/Pk4KcrJyRETE4OUZs2aNZAUxcTEKCsrw+9ZmzdvplAoiYmJcnJy8Ahfq08qZWXlhoYGGo129+5deKYOx4FlJJ7KnUBzc3NcXNzu3bsNDQ3RW4k7mPftVshdHiNSRM7sInfUyekzarWXECgtLXV0dFRXV0cGFXoJUVRNn0Xgy5cvbm5uUlJSkBrp6+tfuHCho+2gvsRquteX0tLSCxcuQNdPAAApKSk3N7cvX7702fnRxY59+/YNqg/hO0W7d+/u16+fvr7+6tWrN2/ePHz4cAzDPDw8FBQUJk2aRKFQSkpKcFKEYdjy5cuHDBkyatSoDRs2QFKEYZiLi4uCgoKWltb8+fNhpLe397Bhw/T19ZWUlMLDw7soJk9kf/PmzZkzZ0pKSnhCGiQE/yBA7vKYp0lRH17zkTvq/HN3IEn/B4Hk5GQrK6shQ4Y4ODigl83/QIN+IAQ6RuDz588HDhzAqZGcnJyjo2NmZmb3mEOfLJWZmeno6Dhs2DDIHqWkpA4cOICO43Y8p/4/5cOHD3FxcefPn3d0dLx16xZMaGxsfP/+/bNnz06dOvXkyRNomxsmVVdXM/PMVlMQDJFNTU0VFRX8u0GXm5v7xx9/yMjIUCiUvXv3vnz58v8hQyGEQMcIkLs85l1S1NjYKCEh0fqhZdWqVSdPnkxISOAFHc2Ox7FrKeSOetdkRbl5BgEXFxc/P7/OvSXyjLBIEIQAbyFQU1Nz8uRJTU1NuO4XEhKaPXv2uXPnCgsL+yTPYadThYWF586dmz17NrQzAQDQ1NQ8efIkg7Ma3hpI/pEmIiLC1tbW0NBQTk5OVFT0woUL/CN770ja0tISFxe3Z8+eoKCg3qkR1dLXESB3ecy7pAjDsPr6ehqN1uqkfN26dTo6OsLCwpqamitWrPD19Y2NjeXrpza5o97X7ynUP4QAQgAh0CECMTExVlZW0KkRAEBYWNjS0jIwMJCH+OuoAAAgAElEQVREkwbsEJhezFNSUhIYGGhpaSksLAwp4oABA6ysrP45BmA7nBwcS/jy5QvD9yxra2s5OTlDQ0NbW1sfH5/edW7LsX70TsXe3t6nT59mMAPYO1WjWvgcAXKXxzxNihhGtrGxMTMz8+LFixs3btTX1xcREVFXV1+8eLGXl1dkZCTUa2QowrM/yR11noUFCYYjUFRUZG9vb2xsjMegAEIAIdCLCLx///7PP/80MDCArAAAICYmZmpq6uXlRaPRepGB8E5VNBqttXempqbQKDnsuIGBwZ9//kn0zNOLIKOqOkegoqLiyZMnp06d2rZtW0ZGBjHz1atXz58/HxcXB7WYiEl9IPzgwQNra+uhQ4dOmDDB2dmZv9ZvfQB/Xu4CuctjfiJFDKPY1NSUnZ195cqVbdu2TZs2TVxcXFVVdcGCBYcPH3706BGPP0fIHXUGJNFPnkIgPj5+/vz5MjIyO3fuxN2W85SESBiEQF9CoLS01NvbW1dXF2dHAICRI0euXbs2MDAwJyeHd1hNNyTJyckJDAxcu3btyJEjiR3U1dVtNR6NnMzw7Ey+fPny6tWr9fX1hwwZIikpmZqaShSVwQwdMYmPwi0tLfHx8Xv37v3+/TsfiQ1FraioKCoqys3NjW6/QkJCAgiXh4cHS/+cHh4ehFwBISEhsHirClZRURFR94zvAOktgcldHnOWFNna2gIANmzY0FtgdVJPS0vL69evr1275ujo+Pvvv0tJSSkpKZmbmx84cCA8PJxOp3dSlvtJ5I469/uLWmQfgWXLlp04caIvadCx33eUEyFAIgJlZWWXLl1avHgxbsgbsgg1NbWFCxcePnz4yZMn5eXl3WAm3CxSXl7+5MmTw4cPL1y4UE1NjUiEBg8evHjx4kuXLuF+P0lEGzXNPgKVlZUMdqfGjh2rrKxsYmKyadOmP//8k8FIA/s1o5wsEWhubi4qKnr27Nn169d9fHwcHBysra2NjY2nTp2qoqIiKSlJvK16PSwpKamiojJ16lRjY2Nra2sHBwcfH5/r168/e/asqKiob/BhlrDDSHKXxxwkRc3NzSIiIgAAUVFRUkaxoKDg1q1bu3fvnjVrlrS0tJycnKmpqYuLy927d0m33EXuqHcyHVESQgAhgBD4hyPQ0tKSlJTk5uZmZGREPGkGABg4cKCmpqaFhYWzs3NAQEB8fDw3CQ/LtuLj4wMCApydnS0sLDQ1NQcOHEhcpYmJiRkZGbm5uSUlJSE3Mn1pYhcUFDx48OD48eMbN25k0FY6dOjQlStXkpOT0bG0n454VVVVq9fd4OBgd3f3FStW6Ovr4zYYifcRc1hRcaiKivzo0cMNDbUNDbXNzX+ztjbD/3bsWLl//zrmvx07VuJ5rK3NzM1/g8VHjx6uoiKvqDiUuSHmGGiufcWKFe7u7sHBwTQarS8NNLnLYw6SInd3dwCAgIAAAODQoUM/nZqczlBaWnrv3j0XFxdTU9Nhw4ZJS0vPmjVr165dt27dKigo4HTrDPWTO+oMwqCfZCHw9u3bzZs3c2crlaw+onYRAvyOQFZW1vnz521sbMaPH8+8QBk0aNDIkSN/++23JUuWODo6+vn53b59OzExMTs7myWH6V5kdnZ2YmLi7du3/fz8HB0dlyxZ8ttvv40cOXLQoEHMIo0fP97Gxub8+fNZWVn8Dj6SvxsIHDp0aOnSpTo6OhISEnJycgx2vRk2nbpRP/8WaWhoyMzMDAoKcnBwmD17tqysLPPtA2NUVOSnTqVYWRlv377Mx8c+IGD/o0cn4uIuFhWFfv4cg2GpnPv7/DmmqCg0Lu7io0cnAgL2+/jYb9++zMrKeOpUioqKfEcCy8rKzp4928HBISgoKDMzs6GhgU+HidzlMadIUVxcXL9+/QQEBA4fPiwgINC/f/+4uDieGiE6nR4eHu7m5mZhYaGkpCQpKTljxoxWn5jXrl3Ly8vj9Bc1ckedpwbinylMbGyshYXF0KFD9+zZw2tnO/+ZI4J6jRBgB4G6urq0tLQrV67s2LHDzMxsxIgRHa1RYLykpKSSkpK2tvaUKVMWEa7ly5c7/O+1fPlyQvqiKVOmaGtrw3dT502MGDHCzMxsx44dV65cSUtLQydv2RnHf06ejx8/EjtbXV3dr18/dXV1U1NTe3v7ixcvElP7ZLiwsDA4OHjLli06Ojq46Xn8nhIVFdbSUl+40Gj37lWXLu2Lj79UXv6Ac4SnV2ouL38QH3/p0qV9u3evWrjQSEtLXVT0P2Yk8X4JCQnp6Ohs2bIlODi4sLCQj0aW3OUxR0hRZWWlkpISAGDXrl0Yhjk5OQEAlJWVeXmD7+PHjxEREYcPH16wYIGampqYmNi0adO2bt0aGBiYnZ3N8KGl59OL3FHvufyohp4g8P379+nTp585c4YftUt70nFUFiHQ9xCoq6vLzc2NiIjw9/fft2+ftbW1oaGhmpqajIwMvkDpeUBGRkZNTc3Q0NDa2nrfvn3+/v4RERG5ubmIAvW9GcXpHjU1NeXm5oaGhnp7e7u6uhKbe/fu3f79+69fv56WlsZwJI+YjffD0AHXwoULmfeCNDTUFiyYeeiQXUjIsZKS8F5hKbxQSUlJeEjIsUOH7BYsmKmh8T/KhAAAWVnZhQsXQrdsPD585C6POUKKzM3NAQD6+vo/fvzAMOzHjx/6+voAAAsLCx4fDFy86urqyMhILy+vJUuWqKuri4iI6Onpbdy48eLFixkZGT3ffSZ31PFuogBCACGAEEAIcA6BysrKoqKixMTE6OjowMBA3PDUuXPnGIxTnTt3Dk8NDAyMjo5OTEwsKiqqrKzknHioZoQAEYEPHz44OzsvXLhQS0tLRETE1NSUmFpfX0/8yWvh79+/h4aG2traMuzfSktLmpv/5uGxOSbmfF1dHC8QGC7IUFcXFxNz3sNjs7n5b9LSUsTvMiNGjLC1tQ0NDeXNz7LkLo97nxT9+eefAABJSUmiW67i4mJor+PPP//ktRuJHXlqamqePXvm5+e3YsUKTU1NYWFhHR2ddevWnT17lkajdeNJQe6os9NllKe3EMjLy7Ozs/Pz8+utClE9CAGEAEIAIYAQ4DQCDKd7njx5IiQkpKGhYWFhsWPHjocPH3JaAHbq//btG5VKXbZsmaioKL70l5ISt7IyvnBh75s3d7nAQHi/iTdv7l64sNfKylhKShxHSVRUdNmyZVQq9du3b+xAzZ085C6Pe5kUpaenQ9M3VCqVAT4qlQpN96SnpzMk8d3Purq6hISEkydPrl69WktLS1hYmEKhrFq16uTJkwkJCeycZyB31PkOcD4V+OnTp3PmzJGVlXV1dUW+Efl0EJHYCAGEAEIAIQARqK+vf/nyJZVK9fDwuHTpEhGW+Pj4I0eO3L59+8WLF9zZgkhKSlq9ejW0cgwX+pMmabi72yUnB7a00HifqJAiYUsLLTk50N3dbtIkTZwdiYiIrF69OikpiTigZIXJXR73Jin6+vXrqFGjAAB2dnYs0bSzswMAqKur8/VZVeau1dfX02i0c+fOrVu3TkdHR1hYWFNTc8WKFb6+vrGxsTU1NcxFyB11ZnlQTK8jUFpaSqFQLly40I2NxF4XBlWIEEAIIAQQAggBziGQmZm5c+fOefPmjRs3bsCAAW5ubsS22PlYTMzfSbi2tvb06dNaWlr4mn7KlAne3tuKi8NIoRn822hxcZi397YpU/4fSS0trdOnT9fW1naCP6eTyF0e9yYpWr58OQCAQqF0tAr8/v07hUIBAKxYsYLTsJJYf2NjY2Zm5sWLFzdu3Kivry8iIqKurr548WIvL6/IyEi4H03uqJMIDjtNI0fR7KCE8iAEEAIIAYQAQoA3EWDwJ+vu7j5o0CAKhbJgwYI9e/Z0z1j8169fPTw8pKWlIR2Skxuya5d1QUEI/9ISHpG8oCBk1y5rObn/2IaRlpb28PAga/eC3OVxr5Giy5cvAwBERETy8vI6uUXz8vLgXmdAQEAn2fpSUlNTU3Z29pUrV7Zt2zZt2jRxcXFVVVUAwOHDhx89evThw4e+1Nmf9gU5iv4pRCgDQgAhgBBACCAE+hgCtbW16enpN27ccHNzi4mJIfbur7/+8vLyCgkJycnJgQa6iKkYhjU0NBDpkIGBFpV6tLExiZlUVFdHr19v6e29DU/auXPlqVNO+E/mQEsLLT//DoalfvjwZP16y5CQYxiWGhd3ceVK08WLZ8XFXcQjmctyKAYX6af119Y+X7/e8uZNj5/m/GmGxsYkKvWogcGvkHNCasR9f0d9gRTl5uayT3UCAgLYoU8Mt0Sf+dnS0vL69WsAgKOj4++//y4lJaWkpGRubn7gwIHw8PC+5LKm246ihw0bpqSkNGLEiCntl4mJCdF9h52d3f+69/jPLzs7O2I2ExMTWHzEiBFKSkps+qju246i+8xNhDqCEEAIIAQQAn0GgQcPHmzfvt3MzGz06NEHDhxg6FdcXNzYsWPhSv333ydFR5/rZH1fVvYA5sSzycoONjU16KhIfX2Cvv6E9estMSy1sDBUQkLU3d0Ow1JHjVKWlBTbuNEqPv4SHtlRJb0bTxTppzV//PgUALB165Kf5mQ/Q3T0ud9/nwxhHDt2LJe9jPI9Kfr+/fuECRO6dCgOP2jHHW08hhuMF34SR72goODWrVu7d++eNWuWtLS0nJycqampi4vL3bt3S0pKeEFadmRg31G0kpLSpEmT5s6du379eldXVz8/v2vXroWEhCQnJ+fl5XXP3TubpfLy8pKTk0NCQq5du9ZqDs7V1XX9+vVz586dNGkS9KwFnwIM//uMo2h2xhHlQQggBBACCAGEAC8gUF9fv2HDBkFBQQCAhoZaTMz5n67scVI0dqwq3EpiIEUFBSFU6tHk5MDm5hQMS42PvwQAmDdvRm7u7fr6hMTEy2VlDzIyromJCevrT6DRruCReNOvXt2kUo/SaFdgTH19wpMnp2/cOJKS8p+Y2trniYmXP358GhFx8uXLG3hBGEhODgwL833//jEe//lzzIMHf1KpR6GtPKJIGJbKXD+Gpba00OLiLj5+fKqi4iGRFDH0Dm+iG4GYmPMaGiMBAIKCghs2bOhIL6bX5wlxedzrlf+0wl44Prdhw4aumk/4+vWrurp6JyYZfio3v2foZNRLS0vv3bvn4uJiamo6bNgwaWnpWbNm7dq169atWwUFBTzV8c4dRYuIiGhqapqZmW3evNnX1zc0NDQ9PZ1N9kJWtvT09NDQUF9f382bN5uZmWlqahIt20CyxL+Oonlq8iBhEAIIgT6AAFIB7QODyJtd+Pvvv6dMmdJ+sGiQh8dmloflmNf6kBQpKcm2KylsxLBUIilycVkjICAAX+UGBlqfP8dQKG1rUQCAiYn+mzd3AQDOzqtHjFCEkRISongkbGvTJisAQP/+/QAAS5aYfPkSq66uLCgoKCkpBgDYsmUxhqXSaFcAAGPGqAAA/vhjDi5kc3OKuflvAgICYmLCIiKDwsJ8MSz17dt7Q4ZIDB06WE5uCADg+HFHokgs68ewVHPz3wAAYmLCY8e2qWPAnSLm3uFNdy/Q2Jjk4bFFREQYADBlypS///6bC1Olk+UxN1rvYRu3b9+GhrYzMjK6VFUnxru7VA+fZmZ/1Ol0enh4uJubm4WFhZKSkqSk5IwZMxwdHa9du5aXl9fS0sJlBDpxFK2urj5nzpxdu3YFBATQaDSyiE2vt0uj0QICAnbt2jVnzhxI5uHjEv7nI0fRXJ4qqDmEAEKArxFAKqB8PXx8Lfzr169VVNpIxYgRisybLZ0s8SEp2rvX5tdfxwgL/1JUFIqTouTkQADAwoVGX78+u3XLEwCwaZNVQUEIAGDlStOqqiic/1RVRYmLi8yapVdZ+f+RUNEIALBz58ofP5J37Fg5ffqvCQmXtmxZnJ7+V0sLTVdXU0VFHidFFIp6VlZwSUk4Lm1w8OHWHgUFuTU1pZiaGigryzU3pxw/7ggAuHPH68eP5GPHtoeEHGMQibn+iIiTAIAdO1ZiWOrRo1sgKWLZO7zpngRevrwxYsRwAICKisrr1685Pa/YXx5zQpIe7RThLllPnDjRDeFYunntRj38WKTbo/7x48eIiIjDhw8vWLBATU1NTExs2rRpW7duDQwMzM7Obmpq4gQaHTmKHjx4sImJibOzM5VKLSgo6HU2wpsVFhQUUKlUZ2dnExOTwYMHEwkSjzuK5sTcQHUiBBACfQABpALaBwaxz3ShqqoK+neZOVO3qiqqSwt6SIpcXdelpFwRFBQ0M5uOk6LDhzcCAOLjL8EKR41SHjtWtbo6GgAAdYpwUoRhqRISolATiRh57Nj21j2lxMTLRJEiIk6uWWOhoaEGABg2TBonRa6u64jZMCx127al8KjesmX/njhxNACATn+UnX1TVLRtK0ZcXMTS8vfU1CCiSBiWyly/t/c2AAA8rVdcHAZJEcveMQjQ7Z9VVVEzZ+oDAEaNGsXg0rfXZ123l8e9Ikn3SdGPHz/09PQAABYWFt0WxcLCAgCgr6/P0t5It6vl/YK9NerV1dWRkZFeXl5LlixRV1cXERHR09PbuHHjxYsXMzIyGhsbewIFS0fREhISc+fO9fb2TkhI4E3SwmWpEhISvL29586dKyEhgRMk3nQU3ZPJgMoiBBACfQYBpALaZ4ay73WkubnZyMgIAKCrq1lXF9fVdTxOijAsdePGtqNuAgICkN74+rZRmsePT0GdHAWFoTo6GkQGQuQ/LEnR6dO78BpKS+9HRp65fr1t82fz5kVJSQHGxpMVFIbipMjHx55B+O3blwEA/PwcgoLc4N/nzzEYllpe/uD4cUcLC0Nh4V8kJESh7QTI0+7d82Gu/9QpJwBAVNRZDEvNybkFSRHL3jEI0JOfdXVxurptPnWMjIyam5s5N/F6a3ncPQm7T4qcnNpGRVlZuSessaqqCiq4Ozk5da8DfFqKQ6NeU1Pz7NkzPz+/FStWaGpqCgsL6+jorFu37uzZszQajX09OWZH0VpaWk5OTvfv36+oqOAy6+CX5ioqKu7fv+/k5ER0KsdTjqL59GZBYiMEEAI9RwCpgBYWFvYcRlQDpxG4fv06AEBRceiHD0+6sYgnkqIvX2KHDWtzagRJUX7+HSGh/jo6Gk+fnt65c2WrTo6Pj31t7XMAwMyZuklJAT8lRXl51P79+xkaasfEnJ8zZ5qAgICt7fxW/5x373q/fHlj8GBxWdnBOCny9d3OIP+jRycAANu2Lc3JuaWvP2HGDJ2mphRPzy0iIoP++sv9778fz5ypO2jQwKqqKFykPXtWM9efnX1TUFBw5kzdxMTL8+f/DkkRy94xCNDDnx8+PFFUHNaqLnX9+nXOTQMOLY/ZFLibpCgiIkJAQKB///7x8fFsttRRtri4uP79+wsICERERHSUp+/Fc2fU6+rqEhISTp48uXr1ai0tLQkJic73jpgdRevo6Ozbty8lJYVfmAmPyJmSkrJv3z4dHR1874gXHEX3vfsI9QghgBDoBAGkAoo/gWGAr1VAS0pKXFxcOhluYtLbt2/d3NyIMR2F37596+7u3lEql+NbWlomTBgPALh4cV/3VvBEUoRhqXAnBzfJfeuWp7x8m4vSAQOEHByWNzW1GaCbMaPtTT11KuWnpAjDUi9fdhUXF4HmH06e3JmXR1VQGNq+QyBnZjZdUFCQTn8EDS0wkyIMS3Vy+mPAACEAgIyMFHSIVFkZZWLSdjINADB4sHhw8GGiSCzrx7BUHx97IaH+/foJrlljISz8CzS0wLJ33YOxo1IXL7q2akBNmDCBcwrt3FkedzSxu0OK3r17N3Ro2yQ4dOhQR/V2Kf7QoUMAgKFDh757965LBfk3Mymj3gkjYnAUPXTo0E2bNiUmJvIIx+BfMRITEzdt2gTvFwAAuY6i+fd+QZIjBBACbCKAVECJ7wt+VAFl6S6zoaGhqKho586dbE6D58+fa2pqspP5+fPnFAqFZU6WawaWkSyLdyMyKysLEgxIVzpamvckvrk5pbz8AdGWXUsL7d27iJYWGpvVNjenVFQ8xGtoakqh0x+xX7yuLq6s7MGPH8nE5mpqnlVUPIRWwuHpPlykjur//j2hpuYZsRIMS2XuHUOGHv5sakpRVlZo1YzKysrqxviyU4SU5TEuWHdI0aJFi3r3WCF+hHTx4sW4ZH07QO6oE7FlcBStq6vr7+9fUlJCfK/A8KtXr1a0XytXrly1atXOnTt538Q2cy9IiSkpKfH399fV1YVfg8hyFE0cdxRGCCAE+hICSAWUnWc7L6uANjQ0BAUFTZ48+ebNm/jMJEbW1tZCM7+1tbU5OTkfPnygUqm44d+WlpbExMQ7d+5UVFRgGIaTopqaGnz9WlNT8+LFC1h5U1PTkydPoqOjY2JicFKUnp4eEhJSXl4O89y8eXPy5MlBQUFEnsYyEhe4hwF4dm7+/N97uHZHxTmHwPz5szh6go7c5XF3SNG7d+8WL17cu7s6nKizhzcnR4uTO+p414iOog0MDG7fvt3JeyU5ObndLr6YiooKtLomKyubm5vbSRGUxIDA7du3DQwMIDXivqNofNxRACGAEOgzCCAVUIbHLDs/eUoFtLy8fO/evYqKilZWVtHR0XBmMkfSaLQRI0ZgGEaj0dTU1CZNmrR27VpZWVkvL6/m5mZTU9OpU6du375dXl4+MjISJ0V4ADIlyH8aGxunTJliZGRkY2MzZswYGLly5cpp06bZ29uPHDnyzp07UIyoqCgrKytFRcW9e/fiZIllZK/cUEePHsWNTXNuWY9q7gkCO3b8AQA4evRor4w4cyXkLo+7Q4qY+4BiuooAuaOOYRjRUbS6ujqVSv3piwSSoiVLltDp9PLy8tWr2/T/fH193759GxYWlp2dHRwcHBUVBetJTEz09/e/f/9+eXk5XnNMTIy/v//Dhw/xGDqdfv/+/cDAwKysLBiZl5d39epVf39/onW74uLiGzdunD179sGDBzAby0aJ1fJymEqlQn9HXHYU3dVZivIjBBACPIsAUgHtrYc8uSqgERERAwcOdHZ2fv/+PT7ZWEYSSdGAAQM+fPiAYVhoaOiECRNCQ0M1NTWhTbDw8HAPDw+cC+EBIikKCgrS09ODzR05coRCoTx8+HDChAmwhry8PFlZWaLSyPv37/fs2TNgwACi7jfLSLwL3QugnaKe0BXulJ0/v802IOdsLZC7PEakqHt3bk9LkTvquKNoYWFhZ2dnloflmN83RFJEp9N37NgBvxY8fPgQADBy5EgAgJWVFZ1Ot7e3x51G6+rq5uXl0en0VatWtfuB7g/NuENmZWJiIiAgICoqKiwsHBgYmJCQICUlJS0tDZVwDh48SKfTX79+raamJigoKC4uDgCwsbGh0+nMjTILzMsxJSUlzs7OwsJcdRTd01mLynMMgdLS0u45GeMpJWmOwYMq/h8EkAooh57tpKiAlpWV2djYyMvL29vb5+fnw5FmGUkkRWpqajAnjUYbM2bMgQMHbG1tibME50J4gEiK7O3tHR0dYf7k5GQKhbJ//35FRUXT/16CgoKlpaUwQ35+vr29vby8vI2NTVlZWSeRMKkn/zMzMzmtU8Qd5tBXW2nXKZJvXcVlZmb2ZKA7KUvu8hiRok6GhoNJJI467ihaRUUF39hh5x0DSZG8vLyRkZGurq6goKCUlFRGRgbkJxoaGpGRkTQa7f79+wAAMzOzN2/enD9/HgCwatWqkJA2p9F2dnalpaV2dnZ6enoZGRlnzpwBAJw4caKsrMzIyEhBQcHNza3d7MzF0tLS/fv3BwQE0On0hIQEGxubx48fV1RUTJw4UUlJCSdFeKPsyM+DeaKioqDTbu44iubghP5nV008cI8jwTISTyUGmpqahIWFv3//ToxkM4wrSbPUfmYZyWbNKBsPIsC+Cih83D1+/Nja2trIyOiPP/4ICwvjwWcgD4rUWyqgdXV17E+hyspKT09PVVXVWbNm5eXlwYIMkURSNHr0aJiHRqONHj3a29t79erVMObr168vXrzAuVBcXJyGhgZMevr0KTwp5+TktHnzZhiZmJhIoVDc3d3nz5+fS7gaGhry8vJmzZqlqqrq6elZWVkJ87OMhEk9/9/S0jJu3FgAQEDA/r7KK/i6XwEB+wEA48aNI24k9nzciTWQuDzGMKwLpMjPz28901VbW0vsTOfhlpYW/ENI5zn7fCpZo447ijYwMOiqOhAkRTIyMrq6ugYGBkuWLImOjsb5iYODA3y97d69GwAQGhoKf6qqqra6pt6/v+1GYngrr127FgDw73//29LScty4ca132u3bt0VE2oxdiomJzZ49+9GjR7CS4ODgpUuXwiNnsrKyzI3CbPz4Pzc3d9q0adxxFN3nbysud5CoA403zRzJoLv8pv2C+QsLC/Pz86HBpdjYWMhhGPKzVKpmVpJmqf3MMhIXFQX4C4EuqYDS6fSzZ8/2799fWFiYQqEICwsLCAj4+vry40OSLJm7rQJaX19/8OBBZWXlb9++dWmONTU13b17l0ajEUvhkZ2QopSUFHl5eeg00sfHZ/78+TgpysnJERMTg5RmzZo1kBTFxMQoKyt//vwZw7DNmzdTKJTExEQ5OTl4hC82NlZZWbmhoYFGo929e5fBUyfLSKLALMOvXr2iUqkBAQHnzp3bv39/dnY2MZurq6tK+yUsLGxpadlKilRU5KuqonrIH2prn69fb3nzpgfLej58eLJ+vSW0i80yA4pkQKCqKkpFpW2b6OrVq8Th690wWctj2IsukKKVK1eOGDEC+lqVlJQc0X6x77m1vr5eX19//fr1vQsfn9ZGyqjjVv4mTpxYUFDQ1TcNw/E5vDjcKXJ1dYUxBw4cgOdN6XR6RUWFnJwchUI5cuQIHpmamnrz5s03b96sX78eAODm5nbiv1deXl56evrBgwf/9a9/DRo0SFxcvLS09HMl38QAACAASURBVPLlywCA1atXh4eHT58+XU5ODidFeKO4MPwYKCgo+PXXX3vXoiOf3hf8IjazDjSGYSwjmXWXnz17JiUlVV5eXlFRISsr+/z5c3h3rFmz5suXL8z5mZWqWSpJYxjGUvuZZSS/4IzkhAh0QwX0zZs34uLicnJy0EZoSkqKuLj4uHHj4BOSQUuTWUWzdVs+JCTkypUrxcXF4eHh0FUdQyk6nc5ckB+fwJ3L3FUV0IcPH44cOXLevHnFxcW9O4E7IUUYhnl4eCgoKEyaNIlCoZSUlOCkCMOw5cuXDxkyZNSoURs2bICkCMMwFxcXBQUFLS2t+fPnw0hvb+9hw4bp6+srKSmFh4czC5+bmxsdHY1zG4YDVIcPH54+fTrObQIDA4k1HDlyxNLS0trauvVj6P79+xnKvn79uqj9qqura2pqMjDQAwDMmKGDm71mWJ2z+fPjx6fQsSnL/ESvRCwzoEgiAo2NSdChk4GBQfcOexPnQydhUpbHuDxdIEWwTEZGBgDAwcEBrwLDsOTk5LCwMKKa4OfPnx88eEClUt+8eQNzxsfHt5o2nzdvXm5uLowhlqqtrU1MTPz48WNERMTLly+JlffJMCmjDlUYhw0b9vLly85fAyxTOydFBw4cgKXi4+OFhIQoFMrNmzft7Oxae+rq6vr8+fP+/ftPmTKFSqUaGxsLCAjEx8dfu3YNALB27drY2Fhtbe2pU6fu2bNHWFj41KlTL168MDAw+OWXX0pKSrZs2dJ6yPjSpUtRUVGSkpIyMjI4KcIbZSkwH0W+fPlSXr7tAwznlBf75H1ESqdY6kCzjOxId9nJycnMzMzY2Bi6evvx4wcA4Pv37yzz02g0BqVqZiVpIg4stZ9ZRhJLoTCXEWD/bFX3VEADAwMBAPb29vhjMDs7G4aZtTSZVTRnz54Nd+zHjx8vKCi4Zs0a5lL4c5ioUIo315cCbKqAFhcXW1hYjBo16uHDh1yeTrC5xsZG4jKMKEN1dfWXL18wDPv06VNsbCzkNmfPnk1LSyNm8/X11dfXnzZtGuQ2DBsCXl5ehoaGOLdhKPv69evY2Fic2xCr7Wr4/fv3ioptL0QrK+P6+gTi0pydcEsLLS7u4uPHpyoq2hSeoWNTDEtNTg4MC/N9//4xrIQlKaqri0tMvPzpU2RGxrWwMN/q6mgMS62tfZ6YePnjx6cRESdfvrwBixcUhFCpR5OTA3HnQhiW+urVTSr1KI12hSgnQ7ufP8c8ePAnlXr0zZu7xGwsKyRmIDFcX59gZWUMAFBUVOxojnV1lDvKT8ryGBemp6SoubnZ3NxcQEBATExMREQkLCys9bPE27dvhwwZMnToUDk5OQDA8ePHMQxr1eSDlohNTEyYS9FotNYV4ZgxYwAAf/zxBy5fXw1wf9RbWlrGj29zFH3s2LHuva7YJEV0Ov38+fOysrKt7n2FhIRsbW3LysrodLqvr6+YmFirbQZhYeFDhw5BGTZu3Cgk1ObdeciQIQEBATk5OYaGhnCeSEpKnjlzhk6nP3/+HE4kBQUFY2NjQUFBXJGpz5AiOp1+7NgxTjuK7qt3E5f7xVIHmmVkR7rLjY2NY8aM0dbWhudScFLEMj/cKYJ9hErVzErSOALcVInGG0WBriJQV1enrKzs5eX10w+u3VYBPXz4cCur8fHxYX7aM2tpMuiFws9nGzZsoNPpBw8eBACsWbOGuRROivhdt5MZIpYxnaiAwvNy0tLS7u7u9fX1XZ0PXc1fWVlZVFSEcxv8QzOsJygoyNLS0tDQEO7bMOzY7Nu3b/r06Ti3efr0KbH1nJyc6Ojo3uI2xJq7Gk5LS5OWHgwA0NMb/+5dRJf4gLn5b+2UXnjsWFVIipqbU8zNf2tfqQqLiAwKC/PFsFSWpCgjo+1braGhtpBQm1GoYcOk8/Pv0GhX2heoKu0L1DmtPlJdXNbg1qQMDLQ+f47BsNRNm6zarUn1AwAsWWICXakytPv27b0hQySGDh0sJzekfXnsCLvGssIu9Zpzmd+9i9DTa1s9SktLMzDhrg4rO/m5vzwmStVTUhQcHAwACAoKampqMjU1VVZWbm5uPn78eOvy7s6dOz9+/Dh27FhISAiGYQUFBQCAlStXVlVVMZeCC24KhZKVlVVSUkIUsU+GuT/qUG9BQUEBUhSWD/1ejCwvL09PT2ewa1deXp6RkcEQWVBQkJaWVlpaireen5+fkZFBtOVdVlaWkZFRUVGB5+l7gbKyMkVFRY46iu6TtxJZnWLQgYZiMESy1F3GMCwrK0uu/YKOFHFSxDI/VKSG9cMws5I0hmEstZ9ZRpKFGGqXiEBhYaGxsfHEiRM7WWT0RAUUfmQhHjAmHplm0NKEpAjXC923bx+uAvrixQtIiuh0OkMpnBThBfveY5mhRyxVQLt3Xq6urg5uqkBug5t6g5MkODjY2toa5zb+/v7EyePu7t5qJwnnNo8ePSKmpqSkUKlUnNvADSJiBn4J5+fnjxyp1r47MfT+/eNsLvojIk7ino6OHm07ZrJ165Lg4LZvBEFBbk1NKaamBsrKcs3NKZ2QIm3tsTU1z+LjLwkKCi5d+i9IiigU9ays4JKS8OTktm3YhQuNvn59duuWJwBg0yaruLiLAICdO1f++JG8Y8fK6dN/pdMfMbfr5+fQvjz2+vEj+dix7VCjiWWFbPaX09nu3z+uqNj2jXvkyJHcMQrA/eUx8Y7oKSnatm0bPBS3bNmyiRMnAgDodHp2draoqGjrpoS4uLilpWVqaiqGYdXV1QAAqFPEXArXSyEK14fD3B91+PHP1NSU4SmPfvIOAnPmzEEn6Pjrrsd1oIli45EsdZfr6+vHjRsXFBQUGBg4fvz4+vr6lpaW1jd3dXU1y/zMpIhZSRr6c+wtlWhiX1CYowhcuXJFVlbWwcGB+TRdD1VAo6Ki2rUyZsDnW0lJiYqKioGBAZ1OZ9bSxN+/MPOhQ4fgt046nR4dHQ1JEXMpnBQRqRfvPE45JAlRBfTVq1dmZmatJ80CAgJiY2MZvuc+ffp07dq1OLdhOIp28OBBeEQNcptr164RZ1paWlpAQADObaBFBGKGf0j448ePv//+n8MjS5aYfPjw5KccwNu7bVGaktJ2gK24OAySom3blravVGcsW/bviRNHt69UH3VCig4dsoMNjRmjMnasKiRFrq7rYOThwxsBAPHxl+DPUaOUx45VPXZsOwAgMfEyUULmdqOjz4mKtrniEBcXsbT8PTU1CMNSWVZIrIeU8IcPT5YsMYEnd37//fePHz9yZ9Zxf3lM7FdPSdH27W3zwM/PL+i/F7x7y8vLjx8/bmFhISwsLCEh8ePHDyIpYi4Fn7w+Pj5E4fpwmPujDh1F29nZcehVgartOQJQBYtzjqL78A3Fs11j1l22t7efO3cuFNjU1NTe3h7DsBkzZoiKiubk5DDnZyZFLJWkeRYBJFjnCHz8+HH58uWqqqpEt5gYhvVQBbTVmcGsWbMAAJaWlj4+Pr///jt0ikCn05m1NCEpwk8jJyQkCAoKjh071tfXV1tbG5Ii5lI4KcIL9vwZyBc14CqgAgIC/fr1U1ZWhvs2AQEBxLGOiYk5d+4czm2KioqIqSjMJgItLS2nTp0SE2v7zi4lJX7w4IaammedkIRTp5wAAFFRZzEsNSfnFiRF27cva1+pOgQFucG/z59jOiFFO3euhE2oqMj/+usYSIp8fOxhpK9v27r38eNTGJba0kJTUBiqo6Nx+vQuPLK09H5k5JmvX5+xbLe8/MHx444WFobCwr9ISIj++JHMssJO+sjppJqaZwcPbpCSavMMKSYmdurUKc4Z4GaeBtxfHhNl6CkpevToEQBg27ZtOTk5+vr6M2bMaGpq8vT0FBER+euvv/7++++ZM2cOGjSooaGhtrYWADBz5sykpCTmUvD4nK+vL1G4Phzm/qijnSLef93CnSL4YQb+37t3L/EuOHHiBPy4CP8zfESAqfC7o6Gh4cWLF4llr1y5Yki4GFJDQ0OtCReVSiWWbb1hW42q41dUVBQxNTY2Fk/av39/UlISMTUrKyuAcKWnpxNTi4uLowkXw7oBT4Vn3Kurq4llP3/+DM+fwP8MqcSc5IabmpoqKio61x5paWmpqamBcrKTH8Owmpoa/j0YQ+6I8GDrERERqqqqy5cvh59je64CCk3DLVq0CCptCgkJWVtbw1PKzFqaf/31FwCAyG18fHykpaWlpKScnNqWmOvXr2cu1Sd1O9l8TcDTiaNHj543bx6JlhV4cCZzSKTi4mIzs7aTFO2aLZKenlu+fmVNjbKzbwoKCs6cqZuYeHn+/LZvAVu3Lnn06ET7SnVpTs4tff0JM2boNDV1dnxOWlry/v3jx487wpN4kBT5+m6HbCQ//46QUH8dHY2nT0/v3LmyXXnPPi+P2r9/P0ND7ZiY83PmTBMQEMjPv8Pc7pEjm0VEBv31l/vffz+eOVN30KCBDQ2JLCvkNPNhWf/Xr888PbdIS0tCqM3MzHrdiOJPZwj3l8dEkXpKijAMc3JyGjBgAABARkYGqg9VVlaamPxn023w4MHBwcGwyRkzZgAApk6dylwKGlpApIg4Nr0b5rJOEZuvFpQNR4AdnaLOaQBMhSfUo6OjOyIYkIMwpGZmZhKYS0BGRgZx+qWkpBBpT+ekiMGWa0hICIFtWd+5c4dYc2BgIIGpGV66dIllKtQYPnbsGDH1zz//JFJEhlToCBg+2QEA+/btI5aFqcLCwrAGhrKd1/xTmaF1Jthrhv52jgYDvWTAufMxIqZSqVSG8cXpJcvRZ2deFRUVMR/xIkKKwj1EoK6uztHRUVZW9sqVK734uC4sLExNTWXQ5OxcS/P58+eOjo43b97Ej8/t2bOHTqd3Xgp/lP0TAsTH9cOHD0eNGsUJG9w9nFF9r3h8fLyhYZsRBXj8bPPmRbm5t5kX9z4+9kJC/fv1E1yzxkJY+Bdofc7J6Y8BA9qsOsnISEFNnk52ioyNJ8N9kpkzdauroxlIEYal3rrlKS8vAwAYMEDIwWF5U1MKhqVevuwqLt7maFFEZNDJkzuhYAztVlZGmZjowy4MHiweHHwYZmNZIXPXOBeTm3t78+ZFUP52UxOG8fHxpEwhPiNFLDGqq6srKyv78eMHMbWmpqaiooLo9qulpeXdu3f4NhzLUsQa+nCY+6PeK58e/wlvO7L6iKzPcf9+x3WdGXaZqqurO9mD6pxgFBcXQz8ekGQy0EsidQkIYCSfMTExRPIZHR1NxOTevXtEenn37t2OUi0tLS9fvkxMDQgIIJJPhtTjx48T6SXDxyk8VVi47Si8q6srsWbolwy+45lT8bKwfpY143ubDFJ1LnPnaDx48KATJBlwTk5OJvao8zH66ehD2slyb7PzeQVlSEtL+/XXX6GlULJUQF+9eiUtLT1gwIDJkydLS0uLiIgkJyeT9WDk2XaJKqD19fXu7u5csz5HnK7/wPDjx49nzmzbAoKXkZFuUJBbbe1zImH4/j2B+ZRdXV1cWdmDHz+SiTkZwtD63JEjm5qaUj59imRIJf5sbk4pL3/A4EmpuTmlouIhQyRzuzU1zyoqHhJteUNTdcwVElvkRLi29nlQkJuRke5/4Ww7z/X48WMS5xX3l8fEznZ5p4hYGIW7jQApo97zQ+rdez9VVFTEx8fT6fSXL1+uWLEiICCATqeHhIQsXLjQ3Nw8JCQEj+xe/bAUsXIYc/z4cUPDtq8dPamWO2XxQ+rIT1G37ylUkAcR6JwGwNSO9jaLiooIJysZdz4zMjI62dtsPY/dCSlqVWElpj548IAIHQPdunfvHjGVgaoxqJHgqXBv08/Pj1jWz8+PSD4ZUltFwtclMGBjY8Od5w9zKy9fvvTw8LC3t3dxcUlLS2POgGKYVUCLi4vRaTrihOdo+NWrV3Z2diIibTsz7a4+flm0aNa9ez7d8GtEJBs4KSJG9r1wfX3CvXs+ixbNEhb+BQIoIiJiZ2f36tUrjo4aO5WTsjzGBUOkCIeCqwFSRr25uXnmzJkAgIkTJxLNs3L09VZcXKytrb1ixQo6nZ6UlCQuLu7k5ESn01VVVcXFxVetWhUaGopH9kQSYuV0Or20tFRBQaHbTpl6IklXyxYUFEDLjUZGRsSdVa7OSNQYQgAhQDYCcXFxFhYWQ4cOXbBgAQCArJ2irj7B/pn5iTtFxImDTtMR0eB0+PPnz2fPnv3ttzYfRHBxLyoqPG/ejAsX9paXP+gGmamsjLp82fXFi+vdKMv7RcrLH1y4sHfevBnQAl6rJqGAgMBvv/129uxZ3rFwSMryGJ+oiBThUHA1QNaoV1VVQe/jBgYGubm53XiZxcTE+Pv7P3z4kFj2/v37gYGBWVlZULs3LCwsOzs7ODg4KioqNDQUAPDvf//72bNnrQQpLCwsLS3tyZMnoqKi2traDx8+xCPxChmaKC4uvnHjxtmzZx88eIDnodPpzNlg5TBPQkLC2bNn79+/D/0dFRUVhYWFvXz5MjY29tKlSxkZGcSqSAzn5uYaGBgAAEaNGlVVVcXVWYgaQwggBHgAgebmZiqVqqenN3LkyNOnT3/79q0XdYpIfLj14aaJOkXMMwieplNWVv727RtzKorhBAJlZWVeXl46OjqQGsH/FIq6o+OK0NBj1dXRvM9YOCRhdXV0aOgxR8cVFIo6ERwdHR0vL6+ysjJODEdP6iRreQxlRqSoJ2PX/bIkjvrr16+HDx8OAGi1IhoVFdWl99aqVavaHTa3eXq2sLCg0+nl5eUmJiYCAgKioqLCwsKBgYHQuiukXlZWVhoaGvA+NDQ0TEhIaDcFs1VFpc0zNPRkhUdCSRiaeP36tZqamqCgoLh4m3VI/DwJQ7ZW+7PEeuzt7fHvRrq6unl5ec+ePQMATJo0adCgQQICAiIiIl3te5eAYjNzJy7Suz+3UEmEAEKATxD49u3bqVOnRo4cqa+vT6VS8Y1ipALK5iOUrGzsqIAiRkTKXVheXu7v7z9v3jzoLROuNFr9pU6YMGrjRqvg4MN5eVQO0Q/eqTYvjxocfHjjRqsJE0bhCAAAREVF582b5+/vX15eTsrosNMoictjDMMQKWJnjHo/D7mj/vfff+vrt9k/ERYWdnZ2ZjBM1NFrJiQkBHq6KC0ttbOz09PTy8jIOHPmDADgxIkTZWVlRkZGCgoKrSrOAAANDY3IyEgajZaYmNju+3lhbm4uzltyc3PFxMR+++23nJwcPBIqGjE0ERoaamNj8/jx44qKiokTJyopKbHMlpGRgddz//59AICZmdmbN2/Onz8PAFi1ahUkRePHjy8oKLh4sc3z9K5duzrqKRfiS0pKnJ2doeb6lClT/v77796fZKhGhABCgFcR+PDhw759+4YOHWphYcHSylMvqoC+fft2xYoV586d48KTjf0mcF1T9ovwSE6kAsqrd9X/yNXQ0BAZGbl3715DQ8NBgwYRuYG4uMj06b9u27Y0KMgtKyv4+/cE3uEz3ZDk+/eErKzgoCC3bduWTp/+q7h4m08n/Bo0aJChoeHevXsjIyMbGhr+ByOe/EHu8hiRInImBbmjjmFYfX39hg0bBAUFAQDq6upUKvWn7xuoBxwWFkbMuXbtWng6ztLScty4ca3HwKDLCwcHB5gtLy8PAAB1inDeQqfTxcXFjYyMGHZ4WDYRHBy8dOlSdfW2nV9ZWVk6nc4yG1757t27AQChoaFQAFVV1VGjRkFStGnTJjqdDnnatm3biB3hZphKpcLuCAoKbtiwob6+npxZiFpFCCAEyEDg27dv8vLytra2+fn5HbXfiyqg2dnZ0AErN59ynbdF1DXtPCevpSIV0I5mbE/im5ubGUyA9qQ25rINDQ0JCQmenp7m5uaKioo4YcADamoKpqYG9vZLz5zZHRl5pqAgpHMjdd2gLr1S5MeP5IKCkMjIM2fO7La3X2pqaqCmxqI7ioqK5ubmnp6eCQkJfEGEiENG7vIYkSLiWHAvTO6o4/2Mi4sbM2YMfC4YGBjcvn27kzfQkSNHAADXr1+n0+mpqak3b9588+bN+vXrAQBubm4n/nvdvn27tXeurq6wqi6RIuYm4E7U6tWrw8PDp0+fLicnR6fTmbO9efMGJ0XQRjCUs6KiQk5OjkKhQFIEqRr0FLx169ZOOsuhpNu3b0MNIgDA2LFj4+Li8LFAAYQAQuCfg8D3799/2tkeqoC27q6HhIRcv349IyODSIoSExP9/f1xfUv8WUfU0iwsLAwLC4O6l1AhMz09nU6nv379Oiws7PXr10+fPg0ODi4oKCgqKrpx48adO3fweogqpnQ6naU+J1HXFBZkKVVeXt7Vq1f9/f0TEhLw+kkMIBXQn07aLmV48+bNmTNnLC0tJSQkXFxculS2J5k/ffr06NEjLy+vBQsWaGhoQAfHOEHCAwoKQ/X1JyxaNGvnzpWenlsCAvY/fnwqJeVKUVEog9HtXiE8sJLGxqSiotCUlCuPH58KCNjv6bll586VixbN0tefoKAgi8tGDAgJCWloaCxYsMDLy+vRo0efPn3qCTiklyV3eYxIETkTgNxRJ/a5oaHBw8NjyJAh8B7T1dX19/dneaDu+fPn/fv3nzJlCpVKNTY2FhAQiI+Pv3btGgBg7dq1sbGx2traU6dOhafXcOfob9++BQAYGBiEh4fjvKWjnSLmJlaubHMXfenSpaioKElJSRkZGTqdzpwtPj4erzw+Pl5ISIhCody8eRNaTXV1dSWXFJWUlPj7++vq/scVgLS0tIeHB999vyFOGxRGCCAEuIBAT1RAoQt1UVHRUaPa9ArWrFlDp9OZ9S0hx2DQ0oyKigIAQJ+t8OG5c+dOOp1+48YNAMDkyZPheaSxY8eOHj0aHgO2s7NjVjGl0+mwOIM+J1HXtCOpEhISpKSkpKWlhw4dCgA4ePAgiXSITqcjFdDenfARERFKSkrW1tZXr159//5971bepdpaWlry8vJCQ0O9vb3XrVtnaGiooqICz9EQuQdDuF+/fioq8ioq8traGoaG2jNn6lpbm+F/GzYs2L9/HfPfhg0L8DzW1mYzZ+oaGupoa2u0V6XQr18/hlYYfgoKCqqoqBgaGq5bt87b2zs0NDQvLw93/tmlXvNsZnKXx4gUkTMxyB115j5//fqVSI2GDh26adOmxMREhpeQr6+vmJgYVEY6dOgQTN24cSP80DJkyJCAgABoaAEnRXQ6ferUqdDIAc5bOiJFdDqdoYnnz5/LyckBABQUFIyNjQUFBeHHS4ZsDMfwzp8/Lyvb9k1FSEjI1ta2rKyMLFKUmJi4adMm+FIHAEA69PXrV+YhgDEHDx7cunVrR6koHiGAEPinIdA9FdDg4GCon0mn0/fu3QtJEUt9S5Zamrdu3eqEFJmYmJSVlS1cuBDmKS0tHT58uKqqKrOKaXl5OXz2MuhzEnVNO5Lq4MGDAICLFy+Wlpbu378fOrhjeCVx5ydSAe3hTfft27fHjx8fO3ash/VwuXhZWVlCQsL169ePHj26Y8cOa2trY2NjXV1dFRWVgQMHMtCV3vo5cOBAFRUVXV1dY2Nja2vrHTt2HD169Pr16wkJCTxoKY4TI0Lu8hiRIk6M6c/rJHfUO5Kvtrb29OnTFAoFv711dHT27duXkpKCv3vKy8szMjIYtpIKCgrS0tJKS0vxbMRARUVFZmZmRUUFMbKTMEMTZWVlGRkZzMUZsjFUWF5enp6eziAnQx7O/UxJSdm3bx/RPKiWltbp06dra2s7Ah/GNzY2VlZWEvOcO3dOS0tr6dKlnp6eoaGh5H5RIwqGwggBhAB3EOiGCui+ffsAANCNQUpKCiRFLPUtWWppEneKYmNjAQDEnaIjR47Q6fTt27cDAKKjo+l0up6e3rBhw5hVTDMyMiApYtDnJB6r7kiq6Oho6JpTTExs9uzZjx494twTu5OakQpotyd5c3PzkSNHZs6cKSYmNm3atIMHD3a7qi4VLC0t3bhx48WLF7tUqquZf/z4UdR+paamRkdHt24kEt1Jnzp1qlX5mfk6deoUMVtUVFR0dHRqaiqs6sePH10Vo+/lJ3d5jEgROTOK3FH/aZ+TkpJWr16N+4oGAGhpaTk5Od2/f5+ZnHTyOvlHJVVUVNy/f9/JyUlLSwtnlSIiIqtXr05KSvop5h1lqKurS0tLCwgIcHBwMDU1PX36NDFnYWHhu3fviDEojBBACPRJBLqkAnr48GEAwK1bt+h0OmQ1a9asYalvyVJLExoRhUQIbv4TSVHrKSM6ne7g4AAAgNo++vr6cnJyzCqmuDsEBn1OIinqSCo6nZ6enn7w4MF//etfgwYNEhcX7+i7G4deNEgFtOf3kZubW3h4eCeHI3reBLGGwsLCdevWDRkyZNeuXR8+fCAmoTC/IEDu8hiRInLmCbmjzmafv337RqVSly1bRrT3LyEhMXfuXG9vbx7RfOXQ65D9ahMSEry9vefOnSshIYFzIVFR0WXLllGpVE67qjh69KiMjIyUlNTUqVPt7OzS0tLYHFyUDSGAEOA7BNhXAY2OjhYUFDQwMAgLCzM1NYU7RSz1LVlqaYaFhQEA9PT0IiMjzc3NGXaKOiJFzCqmHR1dJuqadiTV3r17hYWFT5069eLFCwMDg19++YU7O/9IBbSr90VVVdXNmzfXrVunpqYWExPT1eK9lb+8vHzo0KEuLi4Mpy16q35UD3cQIHd5jEgRd0aZsRVyR51Rmp/9/v79e+vBLVtbWzU1NXzdDwAYPHiwiYmJs7MzlUotKChgn0jwdc6CggIqlers7GxiYjJ48GAiICNGjLC1tQ0NDWXHtNTPUO9C+qdPn6Kjo0+cOJGbm0ssFhgYeObMmaSkpC9fvhDjURghgBDgXwTYVAF1dXUVEhLq169f6+HbQYMGQUMLzPqW8GnMrKW5ZMkS6Kp727ZtbJIiOp3OoGKKG1pg2Cki6prS6XSWUuXk5BgazjK5SgAAIABJREFUGsIHrKSk5JkzZzj94uiqCij/TqFelHzPnj1iYmKmpqZ+fn6vXr3qxZq7URWnv0J2QyRUpKsIkLs8RqSoq+PVO/nJHfWe9KGwsPDcuXMLFizAjQfgrEBdXX3OnDm7du0KCAig0WicfoFxrX4ajRYQELBr1645c+ZA/0J4l6HrpIULF547d66wsLAnwHKi7NWrV21sbCZNmiQqKqqoqJidnc2JVlCdCAGEAPcRYEcFtKioKD8/n+FR2ZG+JbOW5suXL1+/fs1Q/Kc/O1cxxYsz6Jp2JFV+fn5GRkZ5eTlesNcD3VYB5f6gk95ieno6w3mEDx8+NDY2kiJYdnb2y5cvSWkaNco5BMhdHiNSxLmR7axmcke9M8m6klZYWBgcHLxlyxZtbW1mS/8iIiKamppmZmabN2/29fUNDQ2Fni56/ZXWixWmp6eHhob6+vpu3rzZzMxMU1OTqFgFuZCQkJCOjs6WLVuCg4N5kAh1NICFhYUMX9FmzZplbm6+e/fuGzduZGVlIRXPjqBD8QgBXkYgKSlp1apVxCcVUgH96UuBQyqgvDxPui3bp0+f/P39Fy9eLC0tPWbMmPPnz3e7qt4qmJmZOX/+fDk5OSqV2lt1onp4BAFyl8eIFJEzDcgddU70uaGhITMzMygoyMHB4d///jfzPhK+u6KkpDRp0qS5c+euX7/e1dXVz8/v2rVrISEhycnJeXl5P32Z9SRDXl5ecnJySEjItWvX/Pz8XF1d169fP3fu3EmTJikpKeESMgRkZWVnz57t4OAQFBSUmZnZZ/wL5eXlUalUNze3BQsWjBs3juGIXX5+fh/zfsCJaY/qRAjwCAJQBXTp0qVIBbSTdwS5KqA8MlW6KkZWVtayZcsuX77MCyahP336ZG5uPmzYMF9fX4bPfF3tF8rPmwiQuzxGpIicWUHuqHOnz1VVVTQaLTg42N3dffny5Xp6etDjEAPlYP45bNgwJSWlESNGTGm/TExMFhEuOzs7B1aXnZ0dIdciExMTWHzEiBFKSkrDhg1jbog5Rk5ObvLkyStWrHB3dw8ODqbRaFVVVdyBi6daaWxsHD169C+//AKtgXt7e/OUeEgYhABCoCMEkAookRTxoApoRwNHenxDQ0N0dPTevXvnzp1LujAdCdDU1HTp0qX6+vqOMqB4fkeA3OUxIkXkzB9yR52cPre32tzcXFRU9OzZs+vXr/v4+Dg4OPzxxx9GRkZTpkwZPnw40YAbM2PpeYyEhMTw4cOnTJliZGRkbW3t4ODg4+Nz/fr1Z8+eFRUVNTc319XVqaiopKen9zpER44c2blzZ69Xy9EKcWvghw4dIjb05cuXY8eOPXjwAFkDJ8KCwggBXkMAqYAyvDVkZWW5oAJaUlLi4uLC5mR4+/atm5sbO5nfvn3r7u7OTs6u5mlpaZk7d66YmJient7evXujo6N56pgAOtrd1QHl6/zkLo8RKSJn8pA76uT0me1WKyoqioqKcnNzo9uvkJAQorMzDw8PZodo+/fv9/DwIGYLCQmBxXNzc4uKiioqKths//bt28rKyr2+3K+uruYE12KzU72bjU6nb9261cjICFoDX7lyZe/Wj2pDCCAEeh0BpALa6yqgLI9SNzQ0FBUVsf8J7Pnz55qamuwM9/PnzykUCsucLE0dsIyExcvKyurq6ohVRUVFMZygJqaSFY6KipoxYwabpJEsIVG7vYsAuctjRIp6dzTZrY3cUWdXyn9qvoMHD06ePJnTZrVPnjx57ty5z58/8zXMnz59YjDDGhsba2RktHXrVmQNnK9HFgnfhxFAKqA9GdyGhoagoKDJkyffvHkTr4cYWVtbm5GRgWFYbW1tTk7Ohw8fqFQqjMEwrKWlJTEx8c6dO/BTHU6KampqsrKyYIU1NTUvXryA4aampidPnkRHR8fExOCkKD09PSQkpLy8HOa5efPm5MmTg4KCiDyNIbKmpiYkJGTTpk1jxoyRlpZOSEjAhefBQEREhIGBwejRowMDA9FOEQ8OEOdEInd5jEgR50a2s5rJHfXOJENp7QgsWbJk2bJlHAUjMjLSyspKUlJyyZIlERERzc3NHG2Oa5V//fr1wYMHx44dg9bA7ezsiE3X1tYyfKEkpqIwQgAhQAoCDCqgkydP5gsVUD09PW6qgJaXl+/du1dRUdHKyio6OhqOFHMkjUYbMWIEhmE0Gk1NTW3SpElr166VlZX18vJqbm42NTWdOnXq9u3b5eXlIyMjcVKEBzAMwzeFGhsb4XlvGxubMWPGQFK0cuXKadOm2dvbjxw58s6dO1CMqKgoKysrRUXFvXv34mSJGGlnZ2dsbOzp6cn7ZxYqKysnTZp07dq1PvNaJOWm5tNGyV0eI1JEzrQhd9TJ6TNftfr9+3ddXV0GXRpO9KCqqurUqVPTpk2rrq7mRP28VueFCxd++eWXUaNGQWvgKSkpvCYhkgchgBCACDCogG7fvv2PP/6YOXOmvr4+l1VA//jjD2YVUC4PU0RExMCBA52dnd+/f483zTKSSIoGDBjw4cMHDMNCQ0MnTJgQGhqqqakJ1/rh4eEeHh44F8IDRFIUFBSkp6cHmzty5AiFQnn48OGECRNgDXl5ebKyskT9n/fv3+/Zs0dISMjW1vbq1auwIIwcMGBAREQELjkKIAR4EwFyl8eIFJEzK8gddXL6zG+t0ul0JSUl/DscN8X/9u0bDx7v7i0EWlpacnJyoDXw8PBwYrUxMTFUKjUnJ4f4midmQGGEAEKApxAgVwWUm1CUlZXZ2NjIy8vb29vn5+fDpllGEkmRmpoazEmj0caMGXPgwAFbW1ui2DgXwgNEUmRvb+/o6AjzJycnUyiU/fv3Kyoqmv73EhQULC0thRmePHmioaHRr18/MTGxZcuWRUVFYRiWn59vb28vLy9vY2PDCza1oajE/y0tLbdv32Z4FxAzoPA/CgFyl8eIFJEz2cgddXL6zIetpqWlycjI4GfBudaDp0+fSkpKLlu27MmTJ/8oenD9+nVzc/NRo0ZBa+BPnz7lGuaoIYQAQgAh8FMEKisrPT09VVVVZ82alZeXB/MzRBJJ0ejRo2GeVgcVo0eP9vb2Xr16NYz5+vXrixcvcC4UFxenoaEBk54+fQpPyjk5OW3evBlGJiYmUigUd3f3+fPn57ZfL168yM3NbWhoyMvLmzVrlrKysqWlZVpaGswPI1VVVT09PSsrK2EkT/1vbm4ODg7W1NTU1dWFFI6nxEPCkIIAuctjRIpIGXSM3FEnp8/82eqtW7eGDx9OPC/BnX58+vTpxIkT2traSkpKYWFh3GmUd1qB1sAZYN+1a5eNjQ2yBs47w4QkQQj8MxFoamq6e/cujUYjdh+P7IQUpaSkyMvLQ/d3Pj4+8+fPx0lRTk6OmJgYZC9r1qyBpCgmJkZZWRna49m8eTOFQomPjx8yZMiOHTumTZsmLS2trKzc0NBAo9Hu3r3LoIHDMpIoMLnhL1++jBkzZurUqY8ePSJXEtQ6TyFA7vIYkSJyJgO5o05On/m21QMHDujr65PlLe7FixdFRUV8C15vCp6RkXHmzBncGnhycjKx9q9fvxJ/ojBCACGAECAFgU5IEYZhHh4eCgoKkyZNolAoJSUlOCnCMGz58uVDhgwZNWrUhg0bcENzLi4uCgoKWlpa8+fPp1AoKioqCgoKoqKiGhoaioqKfH3qDN/UImWYUKO8iQC5y2NEisiZFeSOOjl95udWFy1atHz5ch7pwc6dOyMjI/9Rx+rYQX78+PEyMjK4NXBOW1RnRySUByGAEEAIMCPQ2NjIsA2O56mursYVSt+/f3/16tWysrKamho8sra2FsOwpqamioqKpqYmvCDvBxoaGv7++2/elxNJSC4C5C6PESkiZ/TJHXVy+szPrX779k1HR+fIkSOkd6Kpqen48eMTJ05UVlZ2cXEpKCggXSTeEeDdu3e4NXAGUnTt2rW0tDQSrYGXlpZ2bwXDOTf2vDNwSBKEAEIARyA5OdnBwWH8+PESEhKWlpa4wyI8A98F6uvrT506paSkdPDgQb4THgnMZQTIXR4jUsTl4f5Pc+SOOjl95vNWKyoqFBUV7927xyP9yMrKsre3t7S05BF5eFmMxsbGpUuXamlpQWvgVlZWXZWW6BIRL8syEk8lBpqamoSFhRl4GjFDJ2GixxLmbJ04rWfOjGIQAggB3kfg6tWr7u7uSUlJDDpCvC85s4SNjY1+fn7y8vJz585lUMFizoxiEAIYRrLKPSJF5ExCRIrIwb1nraampsrIyOBOx3tWGUdK/0OcHXUbO2gNnMFZx7t37xYsWODm5sZsDZzopR5vlDmSwbv8m/YL5i8sLMzPz8/KygIAxMbGQg7DkJ+l23tmN/YM/ulh/SwjcVFRACGAEOBZBN68eXPmzBlLS0vc6DbPitptwRobG9etW8d9C67dFhgVJB0BcpfHiBSRMwHIHXVy+twnWr1x48bw4cN59mC0k5OTioqKq6srss3A/nSrqam5cePG7t27oTVw6CoR91K/cOHCTlzXYxjG7F3+2bNnUlJS5eXlFRUVsrKyz58/P3LkCABgzZo1X758Yc7P7PaepRt7DMOI/ulZOq3HI9nvPsqJEEAIcBmBzMzM4cOHKykpWVtbX716tSP9Ii5LhZpDCPACAuQujxEpImcOkDvq5PS5r7Tq6uo6ZcoUsozR/RTFjIyMrVu3ysjIGBoa4k79floKZSAiQPRS/+jRI1FR0UmTJv3rX//q37//qlWriCuYjrzLOzk5mZmZGRsbHzp0CMOwHz9+AAC+f//OMj+NRmNwe8/sxp4oHkv/9CwjiaVQGCGAECAFgW/fviUkJBCb/vbtG+7jiBjP7+HPnz+7ubl5eXnxe0eQ/CQiQO7yGJEicoae3FEnp899pdWWlpaFCxeuXLmSlzvU2Nh49+5d9pVeeLkv3JeNwUv9ly9fkpKSDh8+rKmpKSEhQfRnv2XLFhkZGWNjY9P2C/cu39jYOGbMGG1tbagVgJMilt7o4U4R7CZ0e8/sxh4HgaV/epaReBEUQAggBLiPAI1GO3LkyMyZM8XExAwNDbtnZ4X7YnevxcrKyn379klLS1tbW+fn53evElQKIYB0iv6hcwCRIr4e+G/fvmlra3t6evJRLyoqKg4cOFBcXMxHMpMrKoOXeigMQ+TKlSuHDBkiLi4+ePBgfX19Pz8/SESzsrLk2i9oOQonRURv9NAnPXS8yOD2ntmNPYZhLP3Ts4wkFzfUOkIAIYBhmKmp6datW8PDw/u8C7W6ujoFBYW1a9cWFhaioUcI9BABcpfHaKeoh8PXzeLkjno3hUbFCAiUl5crKiqGhIQQ4ng6+H/snQlczdn//0+RpURFdVulhZS0EFJDTKZRiq+lsQwTWVNIBl8iGUuarGMroWSUKCpZhva0XZWEFtrrM1nTwrTfv5nPfz6/++1eabndc5f3fcxjvp/O55zzfr+f79N836/u53NORUWFs7PzsGHDpk+ffunSJYybU/M0JhbnqFPqme9QjSkpKTQaraqq6s8///Ty8lJQUGhsbGxoaBgzZkxgYODq1auHDRvm5+f36NEjhFB1dTXVn8FgxMfHU6fRtxNFrMfYf66x2J5Pz7aR2VW4BgJAoFcJvH//PiQkZPXq1cK8u1ptbW2vQobJhYcA3vIYRBGelYY363hiFjir6enpsrKy/HWIRGNj4/Xr121sbPbt2ydwCcETkLe3t4KCgomJiYqKCnm6vIuLi62tLYPBSEtL0/7nY2BgICoqOmDAgOfPn7P2p9Pp7UQRg8Fod4w9ntjAKhAAAl8mcOXKFWNjY0lJSWtr62PHjlVWVn65r0DdIQgiIyNDoEKCYHiGAN7yGEQRnoWAN+t4YhZEq0FBQWpqaq9fv+b34OCLo55ksDOny7e2tlKbFpL9Z86cOWbMGGo38Hfv3rXzgfkY+3a34EcgAAS4T+D9+/fMRul0ekJCglCdFVZeXu7k5CQjI3P8+HFmFHANBDhFAG95DKKIU3ns2jx4s941X6F3hwR27dplamrK71sajB071sLCIjAw8NOnTx2GCzc5RqCpqSk7O5vaDTw/P5956ocPH8ID+sxA4BoIYCFQUlLi5+e3cOHCYcOGOTo6YvGBF4w2NDSsWbNm6NCh27ZtE4C/A/ICUvCBLQG85TGIIrZJ6fVGvFnv9fCEyUBbW9v8+fPt7e35OuiGhoZr165ZW1tLS0sL8//x804Sly5dqqysTO4G7uDgUFNTwzu+gSdAQEgIPHr0SF5efsmSJRcvXiwvLxeSqL8U5tmzZ9++ffulu9AOBDhCAG95DKKII0ns8iR4s95ld2FAhwQ+fvxoZGQkGIczEAQRFhbWYbhwk3sEyN3Az549224/3w0bNvz222+xsbFQo3AvGWBJoAk0NjbGxsZ6enoKdJRdC66tra1rA6A3EOgxAbzlMYiiHiewWxPgzXq3XIZBHREoLy9XUlKKjIzsqBN/3ouOjv7999//+usv/nRfAL1ubGz87bffHB0dTU1NpaWl1dXVBTBICAkIcIvA8ePHv//+e0lJyUmTJrm5uQnVO0JfYvzs2bNFixatXr36Sx2gHQj0EgG85TGIol5K61emxZv1rzgHt7tFIC0tTVZWNicnp1ujeXdQXFzczJkzZWRkVq9e3e5cdt51Wpg8a/dl0YsXL5SVla2trV1dXf39/bOzs4UJBsQqmATq6+t7LzAvL6/Q0FB4QpUknJ2dPX/+fBqNdujQIYE/Yan3FhXM3G0CeMtjEEXdTlyPBuLNeo9ch8FfJnDlypURI0a8efPmy1349U5lZaWnp6e2tnZqaiq/xiA0fhcVFUVERBw6dGjx4sUrV65kjvvDhw/Z2dnwt3BmJnDN4wTS0tLU1NR6uENmbW1teHi4k5OTtrZ2aGgoj4eMy73m5mZDQ8MjR47Ajju4UgB28ZbHIIrwrEC8WccTs3BYdXNz++abb/h9M7rO56qhoaHznaEndgIJCQljxozp168fuRv45cuXsbsEDgCBDgi8ePFCQUGBPAGsg24d3/Ly8pKUlJwxY8ahQ4cyMzM77gx3gQAQwEgAb3kMoghP6vFmHU/MwmG1ra1t7ty5K1asEIZwi4qKZGRk1q5dC18f8Ve6qd3A270FFx8ff+jQoYiICNgNnL8SKqjevnr1SkND49y5c10K8NmzZykpKcxD3r59C29FMgOhrpOSkq5du0b9CBdAADsBvOUxiCI8CwBv1vHELDRW6+vrDQ0Nvb29hSHiioqKAwcOjBo1Sltb+/fffxeGkAU4xoyMDFdXV2tra3I38BMnTghwsBAajxOor683NjZ2d3fvjJ81NTWXLl1atmyZoqKiurq6YOwF2pnAu90nNjZ2+vTpGhoaQUFB3Z4EBgIBjhPAWx6DKOJ4Qjs1Id6sd8pF6NQDAmVlZYqKilFRUT2Yg8+GJicnx8XF8ZnT4O6XCdTU1LTbwsHd3d3U1NTR0ZHcDRxeTP8yPLjTUwLNzc1WVlYODg6dnKi4uHjBggU+Pj6FhYWdHCK03VpaWqZPnz5y5Eh/f//m5mah5QCB8yYBvOUxiCI8qwJv1vHELGRWU1NT5eTknj59KmRx/1+4ly5dSktL+7+f4YrPCbx9+zY2NpbaDTw8PJw5oKKiIpBJzEC6fV1ZWVlcXJybmxv7zyc8PNyf6ePp6bmH3cfT05Opl394eDg5PDc3t7i4uLKystv+YBm4YsUKa2tr1pK9paXl4cOHHh4elpaWrHexuMqPRlNSUtodfcaPUYDPAkkAb3kMogjPosKbdTwxC5/Vy5cvq6urC+RmdJ1J5tGjR7W0tHR0dLy8vAiC6MwQ6MO/BNasWTNo0CBqN/Dy8nL+jaX3PG9tbS0uLk5ISAgODj58+LCrq6u9vf2MGTNMTU3V1NSkpKRQb36kpKTU1NRMTU1nzJhhb2/v6up6+PDh4ODghISE4uLi1tbW3gu8SzPv3r3b2NiYdRvuZcuWDR482MjIaOvWrX/88QeU9Z2n+urVq853hp5AACMBvOUxiCI8qcebdTwxC6XVHTt2TJkyRZh3QE5KSlq5cuWIESPgz7rC8BtA7Qbe7quJ06dPX716tbd3A+/hrs2cTdD79+/pdHpQUNC+ffuWLl1qYmKioKDQGcmjoKCgoqKioaEx+Z+PpaXlD0wfR0dHV3YfR0dHpl4/WFpaksM1NDRUVFQ6b9rExGTp0qX79u0LCgqi0+nv37/nLJavzubr66upqfn69euqqqoPHz4w909ISBDavzExc+j8dVtbW2hoqIGBwfLlyzs/CnoCAYwE8JbHIIrwpB5v1vHELJRW29ra5syZ0/kn4wUVUltbG3No8CdeZhrCcP3rr7/Onz+f2g383bt3HI/648ePw4cPP336NMdn7syEjY2Njx8/DgwMdHV1tbKykpeX/5L+UVFRMTY2trW1XbNmjbu7+7Fjx65cuRIeHp6WlpaXl0f05icvLy8tLS08PPzKlSvHjh1zd3dfs2aNra2tsbGxiorKlxyWl5e3srJydXUNDAx8/Phxr543cPXqVRkZGQcHBz09vSFDhty5c6cz8KEPK4HW1tbg4OAxY8YYGxtHRESwdoAWIMCbBPCWxyCK8KwKvFnHE7OwWq2vr9fX1z9y5IiwAmAT99mzZ8eMGePt7f3nn3+yuQ1NgkuA3A2cOb6WlhZjY+PFixf3fDfw/Px8Y2NjKyurqqoqZhO9dF1UVBQUFLRhw4bx48eLiYm1ExUSEhK6uro2NjbOzs5Hjx6NiIjIzMzsTcnDgbkzMzMjIiKOHj3q7OxsY2Ojq6srISHRLi4xMbHx48dv2LAhKCiIs1u3v3//XkREhDxQyN/fH/500sN1u2rVKlCVPWQIw7lPAG95DKKI+xn/2yLerOOJWYitlpaWKioq3r59W4gZtA89ISFhxYoVUlJSNjY2T548aX8bfhYaAq2trRkZGf7+/uRu4IaGhsyhNzc3d0k5Nzc379q1i0aj3bx5k3keTl0XFRX5+PgsWLCA9bugkSNHzpo1a/v27f7+/nQ6nQMahTemoNPp/v7+27dvnzVr1siRI9tpJHl5eXLbN44IpNevX0dFRW3cuFFHR2fYsGELFy68cOECn76fVlpaumvXrk4uvJcvX+7du7cznV++fLlv377O9IQ+QIAfCeAtj0EU4VkzeLOOJ2bhtpqcnCwnJ/fs2TPhxtA++o8fP166dAl20W3PBX7+l0BxcbGsrKy0tDS5G/ilS5f+vdPR/yYnJ2toaDg4ONTV1XXUr3P3/vrrr4iIiLVr12poaDBLAhkZmc97oO3cuTM0NLSwsJA3JEyve1FYWBgaGrpz505LS0sZGRlmIBoaGmvXro2IiODISanl5eUXLlxYuHDhsGHDRo8evXHjxqioKNbdFzqXw17sxfZ5wsbGxuLi4q1bt3bScGJioq6ubmc6JyYm6uvrt+vZ1NTk6+vr5ubWrp3BYAjzG62sNKCF9wngLY9BFOFZIXizjidmobd66dIlDQ2Ndme/CD2V9gDa2trOnDkDeyW15yLcP1O7gR8/fpyZRElJyZkzZ1JTU1l3A6+rq3NwcNDQ0EhOTmYe0vnrT58+hYaGLlmyZNCgQVTpP2TIEFtbW29v7+Tk5F7XH/xgIDk52dvb29bWdsiQIRSlQYMGLVmyJDQ09NOnT50H/qWebW1tjx49Onjw4LRp04YOHcpWhHxpbO+1NzY2BgYGTpw4MSQkhLLC3FhfX5+VlcVgMOrr658/f/769evQ0FCyhcFgtLW1paSkhIWFkVuSUKKotrY2OzubnLC2tpb6Fr2lpeX+/fuxsbFxcXGUKMrMzLx+/fqBAwdUVVW///77X375ZeLEiYGBgcyIQkJCWBsph+ECCPAaAbzlMYgiPOsBb9bxxAxWGYzt27ebm5vDn+46WAs1NTX29vZSUlK2trZhYWHAqgNWcOvZs2cODg7GxsbkbuB79uxpx+TmzZs0Gm3Xrl1d2vwwNTV1xYoVzK/TGBgYbNu2LSoqqrKykh+kCgYfKysro6Kitm3bZmBgQKkjCQmJFStWpKamtstLt39kLve7PUkPB1ZUVLi5uSkrK9vZ2cXGxpKzsTbS6XQNDQ0Gg0Gn09XV1Y2NjVetWiUvL//rr7+2trZaW1ubmppu3rxZUVExOjqaEkXUBYPBoL4Uampqmjx5soWFhYODg7a2NimKli1b9s033wwbNkxCQsLLy4t0IyYmxs7OTllZ2c3NraKiooPGHkKA4UCglwjgLY9BFPVSWr8yLd6sf8U5uN1rBFpbW2fPnr1q1apesyAgE3/8+NHf39/c3PyHH34QkJAgjF4mUFRUVFBQwGwkJCRk9uzZGzZsMDQ01NXVpf5Iz9yH+bq+vv706dPMNf348eN3796dnp6OQWTws8n09PTdu3ePHz+eUkcGBganT5/mwYffmBdAZ67v3bvXv3//nTt3Mm/mwbaRWRT169fv9evXDAYjIiJi7NixERERurq65MFQt27d8vT0pLQQdcEsigIDAydNmkS6d/DgQX19/Tt37owdO7a1tfXt27d5eXny8vLMO3xWVVXt2LGjX79+9+7do4Ji20jdhQsgwCME8JbHIIrwLAO8WccTM1j9h0BdXd3YsWM/74cLPDpDAL4p6gwl6MOWAEEQ5NsvEyZMGDBggIiIyJdO3amrq/P09Bw2bBhZxMvJyTk5OaWkpPCzMOEJ31NSUpycnOTk5Eiww4YN8/T05MiLXmwzzoXG8vJyBwcHRUVFFxcXSoSzbWQWRerq6qRvdDpdW1vbw8Nj7dq1zN5SWoi6YBZFLi4uW7ZsYTAYdXV1AQEB+vr6e/bsIQ9Ktv7nIyoqWlZWRk5YUFDg4uKiqKjo4OBA7VHBtpHZAbgGAjxCAG95DKIIzzLAm3U8MYPVfwmUlJQoKCjcvXv33wb4384S+OGHH+bMmXPz5k0TfP+aAAAgAElEQVQQS51FJqz9ampqAgMDbW1tBw8ebGtre/nyZeY/7VNUGhsbmeXQhAkT/Pz8SktLWSXFs2fPlrJ8kpKScnJyli5d6u/vT12wjm3X0vme7Qby6Y+lpaV+fn4TJkxglka88CActQy6evHu3btDhw6NGDHiu+++y8vLI4e3a2QWRaNGjSL7fD7Pd9SoUd7e3itWrCBb6urqnjx5QmmhpKQkHR0d8taDBw/IJ+W2bdu2Zs2affv2ycnJLVy4UF9ff9++ffPmzctl+jQ2Nubl5X333XcjRow4dOgQdRQY20Zyfvg3EOBBAnjLYxBFeJYE3qzjiRmsMhF4+PChnJxcbm4uUxtcfp1AfX39hQsXpkyZIicn5+Liwtd/cv56tNCj6wRYtRDrHgzUrElJSaNHjyYrdTMzs+vXr3egOtLS0hBCkpKSakyfW7duJScnI4Q2btyYmpo6ePDgbdu2dTAJeavzPb86FX91uH79upmZGQl89OjRSUlJVC748aKlpeXGjRt0Op3ZeaqxA1GUnp6uqKhIfm95+PDhefPmUaLo+fPnkpKSpKRZuXIlKYqWL18uKiq6aNGi/Px8Z2dnfX39lJQUGo1G6vz4+HhVVdXGxkY6nX7jxg3yqTzKJbaN1F24AAK8RgBveQyiCM96wJt1PDGD1f8lEBAQoKmpSf09739vwk9fIVBYWHjw4EHmx+i/MuDLt8vKyrp3TCQcGPJlqNy+0yUtxGAwGhoa1q1bJyoqihAaOXJkaGjoV9UFKYoWLVrUriclikpKSiIjIzMyMgiCyM/Pj4yMzM/Pf/DgQVBQUGFhYXFx8dWrV8PCwgiCYO5ZXFwcGRmZk5PzubS9cOFCVlYWOX9JScnVq1fPnj17+/ZtsuXly5eRkZFPnz4NCgqKiYlp5wYf/RgaGkqedyQqKrpu3bqGhgZuLxeu2OtAFDEYDE9PTyUlJWNjY319/dLSUkoUMRiMH3/8cejQoVpaWuvWrSNFkY+Pj5OTk5KSkoGBwbx588hGb29vBQUFExMTFRWVW7ducSUmMAIEep0A3vIYRFGvJ5itAbxZZ+sSNHKfwNatW6dNm9alfbG47ySPW6QewikpKYmIiCBhUo1fdb6lpUVcXLx7x6ow7w3Fagge8GNl0kstDQ0NcnJy5DNyHXwvRFl/9erV5MmTEULi4uI7d+5k+7Acq8YgRdGMGTNu/vu5desWQRCUKKIuCIK4evUqQmjixIkDBw5ECI0ePXrUqFHi4uIIIUdHR+aeCQkJCCFjY+OBAweKiIhISEjExMTk5+erq6uLiooOHjwYIeTg4EAQxJ07dxBCmpqaCCE7OztWD/mopbS0dOfOnSSQyZMnC+cW/E1NTWwf6WQwGNXV1awruba2tl1jS0tLZWVl9/6mQ/06wAUQ4CkCeMtjEEV4FgPerOOJGayyEGhtbbWxsVmzZg3LHWj4CgHm80DIrnQ63dTUdMiQIQoKCt7e3mRjZmZmeHg4tTXti38+5C1ys7Ls7GyEUHx8PKlh2vVne8AI64EhbE8CYdv4lajgdncJdP7bhvz8fDU1NYSQmppal75vIUUR+egX+W9paemORZGlpWV5efmCBQsQQjt27CgrKxs+fPjnF1FYRZGenl5hYeH58+cRQtu3b09OTnZwcPjjjz8qKysNDQ1VVFQoUaSjoxMdHU2n0/lIAn3J1ZiYGCoX+fn53U2+QI37888/XVxc5syZI1BRQTBAoNME8JbHIIo6nSiOdsSbdY6GApP1iEBdXZ2ent6JEyd6NIswDWY9D4TBYFCNVlZWS5cuVVFRCQgIIM/xcHFx0dTUDAsLYzAYCQkJ0tLSFRUVlZWV8vLyiYmJBw8eRAitXLmypqaGtT/rASNsDwxhMBhwPAhfrMH3799raWkhhMzMzHJzc79UrLNtJ0XRd999F/nv5+7dux2LooMHDxIEsXnzZoRQbGwsQRCTJk1SUFBgFUVOTk4EQaSkpCCENm3aRBBEUFDQ4sWLycfM5OXlKVHk6urK1j0+bczNzf3mm28QQlpaWl/aG5AvllbPnayoqHB2dpaWlnZxcfnzzz97PiHMAAT4kQDe8hhEEZ41gzfreGIGq18gUFxc/PnRcOYDJb7QEZoZbM8DYW1sa2sjzwMh3zlmPsdj27ZtNjY2M2bM2L9/P4PBaG5uRgj99ddf1LkfDAaD6k+n09sdMMJ6YAhzVtieBMK2kXkUXHOHQGtrq4WFBULI0NCwsLCwqyriq+8UMUsd8vE5b29vgiBcXV0RQsnJyQRBmJiY0Gg05p7k43Ok1CFNbNy48eLFiwihFStW3Lp1a8qUKTQajRJF7u7uXfWcx/sXFhYaGRkhhCwsLNptEsCdhcEjVqZMmbJ161bhfJKQR1IAbvACAbzlMYgiPGsAb9bxxAxWv0wgMTHx816r1NauX+4o7HfYngfCtpH5HI+ZM2cihNasWfP06dOmpiZtbe1x48aR5Rclipj7W1tbk+d+kN8UkdDJA0aoA0MYDEZaWhr5xjPZge1JIGwbhT2LmOIPDg5GCCkoKOTk5HRDJ5CKxdDQcBfT58GDB5TCoS6od4q6LYo2bNiAEPq80WJMTIyUlJSsrCwlijw8PLrhPI8PycnJUVRURAgFBwdjWh1gFggAAZ4ggLc8BlGEZxHgzTqemMFqhwQuXrwID5B0SOj/brY7D4S80a6x3Tked+/e3bZtm7Kysq6u7pAhQ2g02pMnT5i/KWrXPzc3l9zitt0BI9u2bXN2diYtpqSkkKKI7UkgbBv/Lwa44i6BtrY2PT09hNCRI0e6pxBIUcT8ThFCyNPTk9JC1EXPRVFiYiKNRkMIKSkpzZgxQ1RUNCsri9xoQSBFEUEQR44cQQiNHTuWI1tKcndxdcdafn7+5cuXuzMSxgABgSaAtzwGUYRnceHNOp6YwerXCGzZsmX69OmwGd3XOP3/+9R5IMz9qUa253h8+vRJTU1txYoVAQEBenp6DQ0NbW1tnw+Zqa6uZtufPGmRnJ+8jouLU1VV/fDhA4PBIA8MYTAYbE8CYdvI7Cpcc5MAuaOGkpJSeXl590QRl0eVl5dnZWVVVlZy2S4uc+Xl5crKygih7Oxsbi4M7tt6/vz54sWL5eTkfv31V+5bB4tAgMcJ4C2PQRThWR54s44nZrD6NQKtra2zZs1at27d1zrC/U4RYD3Hw8XFxdbWlhxsbW3t4uLCYDCMjIzExcWfP3/O2p9VFDEYjF27drU7MKRT3kAnrATIZ+esra1xFf1g96sEZs2aJfBP0Dk4OMjLy3t6esLB01j/ewDGeZcA3vIYRBGelYE363hiBqudIFBbWztmzJiTJ092oi90+TqBzpzjcfr0aUVFxYkTJ545c+bt27edOfeD9cCQr7sCPbAS8PLyIs8I+mppDh1wEXB0dPx8eJSXlxfWldK7xhMTEz9+/Ni7NmB2IMDPBPCWxyCK8KwdvFnHEzNY7RyBoqIiGo12//79znWHXhwg0NraeufOnR9++EFKSoo61IgD88IUPEMAvinCJXU6b1cgvymqrq7mmV8CcAQI8AEBvOUxiCI8SwRv1vHEDFY7TSAhIUFeXh5OM+w0MI51rK2t5dhcMBEvEeC7d4o6ryUEo6fgvVP08OHD77//furUqbz0ewC+AAFeJ4C3PAZRhGd94M06npjBalcInD9/fuTIkUJ+mmFXgPVK38TERBMTEx8fH3JnhV6xAZNyhUDPd58TDO3Bs1EI0u5zcXFx3377rbq6uq+vb1NTE1cWOBgBAgJCAG95DKIIzzLCm3U8MYPVLhLYvHmzhYUFbEbXRWyc7N7S0nL79m07OzspKalFixbR6XROzg5zcZdAD88pYpYTL1++XLp0qY+PD3Mj9uvKysqHDx92yY2cnJylS5f6+/tTo44fP25ubt7Veajh3bsQsHOKnJ2dL168CP/p5u7vN1gTEAJ4y2MQRXiWEd6s44kZrHaRQGtrq5WV1fr167s4DrpznsD79+9PnTp17949zk8NM3KLQGtr67fffosQMjQ0LCws7F75To56+vQpQmjlypU9mYSzY0tKSsaNG7d06dIuTZuamjp48OBt27aRo8rKypSUlLp9lFOXTFOdCwsLDQ0NEUIWFhbkkcrcWhFgBwgAAZ4jgLc8BlGEZ0HgzTqemMFq1wnU1NTo6OicPn2660NhRK8TuHfvXk1NTa+bAQOcI/D+/XtNTU2EkJmZWW5uLlWXd/KisrIyPDw8ODg4KyuLWRSlpKT4+flFRUVVVFQwTxUXF+fn53fnzh2CIIqKiiIjI7OysgiCKC4ujoyMzMzMJAgiPz8/MjIyPz//wYMHQUFBhYWFxcXFV69eDQsLo6aKiooKCAjIzs4mW8jhOTk58fHxFy5cIOeMiIhACM2cOTMhIYEgiJKSkqtXr549e/b27dvUPARBMLtEdouMjMzIyCD7JCcnnz17lgqErSHm2Xp+nZuba2ZmhhDi36OrIyIifv75Z84tUpgJCAg1AbzlMYgiPIsPb9bxxAxWu0WgsLCQRqM9ePCgW6NhUG8RaGtrW7x4sZSU1JIlS+7fv9/W1tZblmBejhLIz88fPnw4QkhNTS0mJqZLZb2lpSVCaNCgQVpaWpQocnFxERERQf98JkyYkJeXR865fPlyhFDfvn0RQnPmzImJiUEI7dixgyCIhIQEhNDWrVsJgrh69SpCaOLEiQMHDkQIjR49etSoUeLi4uQG4hUVFZaWliIiIoMGDRIXFw8ICKCGGxsbDxw4UEREREJCIiYmRkdHh/TB3Nw8Pz9fXV1dVFR08ODBCCEHBwe2LhEEkZyc/Pnw4o0bNxIEwRoI6Wc7Q10i1nHnmJgYNTU1Mhf8uK9MWFiYoaGhgYFBWFgYRxcpTAYEhJcA3vIYRBGelYc363hiBqvdJRAfHy8vL19QUNDdCWBcbxF4+/btb7/9Nm7cuIkTJ/aWDZiX0wRevXplYmLy+UgccXHxnTt3lpaWdly7k3eDgoKok47c3NxIURQVFYUQsrGxefHiha+vL0Jo+fLlBEGEh4eTncvKyhwdHSdNmnTt2rUORJGlpWV5efmCBQvIPmVlZcOHDx8xYsSZM2cQQr/99lt5ebmFhYWSklJFRQWpVfT09AoLC8+fP48Q2r59e0pKCkJowYIFubm5ycnJDg4Of/zxx+evtgwNDVVUVNi6lJWVRYkitoGwNdQZVl/tU1paunPnTlL7TZ48+dWrV5xOcq/PN3v27PHjx4eHh/e6JTAABISJAN7yGEQRnrWGN+t4YgarPSBw7ty5UaNGwZEXPUDYu0PfvHnTuwZgdo4SaGhoWLdunaioKEJo5MiRoaGhX63jd+/ejRAin0ZLT08nRdF///tfhFBERAQ5fMSIEVpaWgRB7NmzByEUGRlJTcv8TVF8fHy7b4oOHjxIEMTmzZsRQrGxsQRBTJo0SUFBYdWqVeRDcXPnzh0zZgxCKCsri9QqTk5OBEGQWmjTpk15eXkIIeqdoqCgoMWLF48cORIhJC8vz9Yl5m+K2AbC1hAVUbcvQkNDScdERUXXrVvX0NDA0dxyaTKCILhkCcwAAWEigLc8BlGEZ63hzTqemMFqzwhs2rRpxowZLS0tPZsGRnODwKFDh5YuXRodHQ2P1XEDd3dtJCUlaWtrk0+dmZmZXb9+vYNC/8CBAwiha9euEQRBqpqVK1d6eHgghIKDgwmCqKyspNFo+vr6BEEcPHiQan/06FFISMjt27cpIXTnzh3qmnx8ztvbmyAIV1dXhFBycjJBECYmJjQabc2aNQihvXv3/vbvJy8vj9Qqrq6uBEGkpaWRz78xi6KLFy8ihFasWHHr1q0pU6bQaDS2Lr148YL6pohtIGwNdYDoq7euX79OvkFEPiiYlJTU3dRxe1xzc3NGRga3rYI9ICB8BPCWxyCK8Kw4vFnHEzNY7RmBlpaW77//3tnZuWfTwGhuEHjz5s3x48cNDQ1VVVV37dr1+vVrblgFG10n0NjY6OnpOXToUOqlID8/P7YP1MXGxoqKipqZmUVGRlpbW5PfFD18+FBMTExfXz8kJMTR0fHzf9jd3d0JgkhMTOzbt+/kyZNDQ0NnzJghIiISGRmJEJo0aVJ0dPTs2bM7KYquXLmCEFq1alV8fPy4ceNMTU3Ly8vZapWXL1+SG0jcunVrw4YNCKELFy7ExMRISUnJysqydenhw4eUKGIbCFtDX1U+rB1KS0v9/PwmTJhAQh42bJinp2djY2PX04VhRFNTk5+fn4aGxuzZszGYB5NAQMgI4C2PQRThWW54s44nZrDaYwI1NTWjR48+e/Zsj2eCCbhEIDs728XFpbKykkv2wEy3CNTV1TFLIzk5OScnp5SUlHb1vbu7u5iYWJ8+fRYvXjxw4EByS25fX195eXmEkJiY2Nq1a8vLy8lRR48elZSUJN9c2r9//+eN5hYtWkRuvbBp06ZOiiKCINavXy8mJvb5zaKhQ4eSBwp9SauYmpoihIyNjRMTE2k0GkJISUlpxowZoqKi5A51rC5RooggCNZAvmSoHZYOfkxJSXFycpKTk2OWQ3V1dd3KEoZBFy5cGD58uKWlJR99qYUBE5gEApwjgLc8BlHEuUx2ZSa8We+Kp9CXtwi8fPmSRqPFxMTwllvgTacJNDY2xsbGdro7dOQegfr6+tOnT+vr65MVPEJo/Pjxu3fvTk9Pp+r+4uLigoIC6kfyoqKiIjMzk/X7pYqKiqysLOb2nJyc/Pz8dsO/+mNhYWFGRkZZWVnHPSsrKx8/flxZWUkQRHl5eVZWFnnNPIrVpXZ32QbC3Kcz1+np6bt37x4/fjxF0sDA4PTp0/X19dxLJycsXbhwIS0tjRMzwRxAAAh0igDe8hhEUaeSxPFOeLPO8XBgQm4SiI2NlZeXf/HiBTeNgi1OESgsLDQwMFBTU3N3dy8uLubUtDAPBwmkpqYuX75cQkKCuabftm1bVFQUq8zojEgQhj6VlZVRUVHbtm0zMDCguElISKxYsSI1NZWD2YGpgAAQEGACeMtjEEV4lhberOOJGaxyjoCPj4+2tvaHDx84NyXMxFUCWVlZGzdulJWV3bdvH1cNg7FOE/j06VNoaOjixYsHDRpEVflDhgyxtbX19vYmt0MQBrXTcYzJycne3t62trZDhgyhKA0aNGjJkiWhoaGfPn3qNG/MHevq6g4dOmRubo7ZDzAPBISbAN7yGEQRntWHN+t4YgarHCWwYcMGS0tL2IyOo1C5PVlTUxPswcBt6F2399dff0VERKxdu1ZdXZ2q+xFCMjIylpaWO3fuDA0NLSws7Fg8CMzdwsLC0NDQnTt3WlpaysjIMAPR0NBYu3ZtRETEX3/91XXM2EbU1NTs379fTk5u0aJFz549w+YHGAYCQIDBwFsegyjCswbxZh1PzGCVowRaWlosLS03btzI0VlhMswElixZ4uHhUVJSgtkPMP8FAkVFRT4+PvPnz6c2D6BUwciRI2fNmrV9+3Z/f386nS4wKohOp/v7+2/fvn3WrFnk+UJUyOQhSAsWLPDx8SkqKvoCM15vnjdv3rJly/Ly8njdUfAPCAgBAbzlMYgiPEsMb9bxxAxWOU3gw4cP2traPj4+HU/Mdutbto0dz0PdbWpqoq6pC7aN1F246CSBjIwMZ2fnYcOGTZ8+/dKlS3DMUSe5YelWVFQUFBS0YcOGcePGkRvEMasFCQkJXV1dGxsbZ2fno0ePRkREZGZm8rhSyszMjIiIOHr0qLOzs42Nja6uLvOLVWR0YmJi48eP37BhQ1BQEP8KIeYF09rayvwjXAMBIICRAN7yGEQRntTjzTqemMFqLxB48eKFvLw8293MGhsbAwMDJ06cGBISQllmbqytrc3OziZv1dbWPnnyhLx+8+ZNeHh4fHw88/sAmZmZ4eHhFRUVDAYjJCRk4sSJgYGBzMqKbSNlFy66RKCxsfH69etOTk5dGgWdMRJobGx8/PhxYGCgq6vrzJkzWb9HovSSioqKsbGxra3tmjVr3N3djx07duXKlfDw8LS0tLy8vF5VTXl5eWlpaeHh4VeuXDl27Ji7u/uaNWtsbW2NjY1VVFQoD9tdyMvLW1lZubq6BgYGPn78mPm3HiPwbpt+/fr1pUuXuj0cBgIBINCrBPCWxyCKejW5X5wcb9a/6Bbc4EMCMTExNBrt5cuXlO8VFRVubm7Kysp2dnaUXmJtTExM1NXVJUclJibq6+szGIyCggJVVVUXF5clS5aMGDGioaGBwWAsW7bsm2++cXFx0dTUDAsLYzAYMTExdnZ2ysrKbm5upFL6UiPlFVz0kEDpP58eTgLDuUbg/fv3dDo9KCho3759P/7448SJE8mzg9pJDtYfFRQUVFRUNDQ0Jv/zsbS0/IHp4+jo6Mru4+joyNTrB0tLS3K4hoaGioqKgoICqyHWFhqNNmnSpKVLl+7bty8oKIhOp79//55rxHrbUFVV1ebNm2VkZJydneE72N6mDfMDge4RwFsegyjqXtZ6Ogpv1nvqPYznMQJnz54dPXp0TU0Ng8G4d+9e//79d+7cWVVVRbnJtpGtKDp//ry1tTX5PImfn19VVdWdO3fGjh1LtuTl5cnLy1P1RFVV1Y4dO/r163fv3j3KFttG6i5cdJtAcHDw0KFDLSwsAgMDmb/E6/aEMJD7BFpbW4uLixMSEoKDgw8fPrx58+affvrp22+/NTExGT58OPMGbqyKpectQ4YMGT58+OTJky0sLH766SdXV9fDhw8HBwcnJCQUFxcL9lNk+/fvl5aW3rRpE0EQ3M87WAQCQKCTBPCWxyCKOpkmDnfDm3UOBwPT8QABZ2fnmTNntrS0lJeXOzg4KCoquri4FBQUkK6xbWQril69ejV27Nhhw4YtWbLk7t27DAZjz549ysrK1v9+REVFy8rKyO+UXFxcFBUVHRwcysvLSUMFBQWsjeQt+HfPCTQ0NFy7ds3a2lpaWvrhw4c9nxBm4EEClZWVxcXFubm5sf98wsPD/Zk+np6ee9h9PD09mXr5h4eHk8Nzc3OLi4srKyt5MFJuupSUlPTq1StuWgRbQAAIdIMA3vIYRFE3UsaBIXizzoEAYAoeI9DS0jJjxoxNmzaRfr179+7QoUMjRoz47rvvqF2V2jUmJSXp6OiQ/R88eEA+PsdgMNra2uh0+i+//CIrK3vz5s19+/bNmzcvl+mTk5Pz3XffjRgx4tChQ+/evSNnyMvLY23kMUiC4w5BEPBlkeCkEyLpBQIfP37shVlhSiAABHqXAN7yGERR72b3S7PjzfqXvIJ2viZQXV09atSoc+fOUVG0tLTcuHGDTqdTLQwGg2p8/vy5pKQkqWpWrlxJiqLDhw87ODiQ/RcuXOjl5ZWSkkKj0ciH8eLj41VVVZOTk2/cuNHuYRs6nc7ayGwXrnuPQHV19cyZM3///Xf+Oh+m94DAzMJMoKCgwN7efuTIkXCMmzAvA4idTwngLY9BFOFZNnizjidmsNr7BAoKCuTl5ePj4ztp6scffxw6dKiWlta6detIUfT27dsJEyaMGTPGyMjIzMyMlEze3t4KCgomJiYqKiq3bt3q5OTQjWsEGhoarl69OnPmTBkZmdWrV7eTwVxzAwwBAbwEcnNzlyxZIicnt3fv3g8fPuB1BqwDASDQDQJ4y2MQRd1IGQeG4M06BwKAKXiVwIMHD2g0WmFhYScdrK6uJndoYO7/+vXrdo0tLS2VlZXwl1dmSjx4XVlZ6enpefjwYR70DVwCAr1N4L///e/Bgwdra2t72xDMDwSAQC8RwFsegyjqpbR+ZVq8Wf+Kc3CbzwmcPn1aR0ennarh85jA/e4TeP78OTxW1318MBIIAAEgAAS4RQBveQyiiFt5/l87eLP+v77ATwJIYP369VZWVu1e+xHAOCGkThBYu3atjIzM2rVrU1NTO9EdugAB/iBAp9M3bdpEnRDAH06Dl0AACHRIAG95DKKow+T02k28We+1sGBiXiHQ3NxsYWGxefNmXnEI/MBKoKKi4sCBA6NGjdLR0YFt67CmAoxzgEBycvLMmTNVVFROnToFz/RyAChMAQR4hgDe8hhEEZ6FgDfreGIGq9wl8P79+5EjR54/f567ZsEaTxN4+vQpT/sHzgGBrxHYvHnziBEjfHx8Ghsbv9YX7gMBIMBnBPCWxyCK8CwXvFnHEzNY5TqB/Px8eXn5hIQErlsGg/xB4P79++vWrUtLS+MPd8FLIMBgVFRUNDc3AwkgAAQEkgDe8hhEEZ5FhTfreGIGqzgI3L9/n0ajFRUV4TAONnmdAEEQ+/fv19LS0tHR8fLyIk+j4nWnwT8hI/DkyRMhixjCBQLCSwBveQyiCM/Kw5t1PDGDVUwETp48OWbMGNimFhN+/jCblJS0cuXKP/74gz/cBS+Fg8CtW7cmTJigr68PT8oJR8IhSiDAwFsegyjCswTxZh1PzGAVH4F169bNmjULNqPDlwG+tJyfn8+XfoPT/E/g7t27RkZG+vr6169fh/3l+D+fEAEQ6CwBvOUxiKLO5omz/fBmnbOxwGy8T6C5uXn69OlbtmzhfVfBQx4h8OnTJy0trTFjxnh7e//555884hW4ISQELl++fPPmTSEJFsIEAkCAIoC3PAZRRCWCqxd4s87VUMEYbxB4//69lpbWxYsXecMd8II/CCQkJKxYsUJKSmr9+vX84TF4CQSAABAAAnxLAG95DKIIz8LBm3U8MYNV3ATy8vLk5OQSExNxOwL2+YzAx48f4WV3PssZD7j78ePHznjR3NwcEBAwZcoUOEGrM7igDxAQbAJ4y2MQRXhWF96s44kZrPIAgXv37ikoKBQXF/OAL+ACHxM4duzYkSNHXr16xccxgOu9SSAvL2/48OEd66Kmpqbz589raGhMmzYtJiamN92BuYEAEOAPAnjLYxBFeFYJ3qzjiRms8gaBEydO6Onp1dXV8YY74AVfEkhJSSjXKhYAACAASURBVLG3t5eSkrK1tQ0LC2tqauLLMMDp3iHQ3Nw8fvz4M2fOdDz9hg0bvvvuO/juumNKcBcICBUBvOUxiCI8iw1v1vHEDFZ5hsCaNWtsbGxgMzqeSQi/OvLx40d/f38LC4vq6mp+jQH87gUCbm5u1tbWX50YNtr+KiLoAASEjQDe8hhEEZ71hjfreGIGqzxDoLm5edq0aVu3buUZj8ARwSHw6dOn169fC048EEkXCSQnJ9NoNNaDgD99+nT58uUuTgbdgQAQEC4CeMtjEEV4VhverOOJGazyEoF3795pamoGBATwklPgiyAQSEhIkJKSmjNnzs2bN+GxOkHIaFdiqKur09DQaLebdn19/a+//kqj0ebNm9fxW0ZdMQV9gQAQEEACeMtjEEV4lhTerOOJGazyGIHc3Fw5ObmHDx/ymF/gDt8TqK+vv3DhwpQpU+Tk5K5fv8738UAAnSbg4OCwcuVK5u4BAQHy8vILFy58+vQpcztcAwEgAARYCeAtj0EUsWaEGy14s86NCMEGPxC4e/eugoJCSUkJPzgLPvIfgcLCwp6srvr6ev6LWYg9vnHjhoaGRrtNXNLS0nJzc4WYCoQOBIBAFwjgLY9BFHUhVRzsijfrHAwEpuJ3AseOHRs7dmy7OobfgwL/eZbAxo0bIyIimpubv+phfX29mppaWlraV3tCB14gUFVVRaPRkpOTGxoaeMEf8AEIAAF+JIC3PAZRhGfN4M06npjBKq8SWLVq1ezZs9va2njVQfBLQAi0trb6+fmZmZnJy8tv3rz5qwfC3rp1S0FB4cWLFwISv0CHYWVl5erqun37dgUFhdraWoGOFYIDAkCgtwjgLY9BFPVWXjueF2/WO/YN7gobgaampqlTp27fvl3YAod4cRF48eKFm5vbwoULv+rAuXPnNDU1+f2U2Hfv3hUXF6ekpMTGxgYEBPj/+/Hx8dnzvx8fH59/b/oHBATExsampKQUFxe/e/fuq6wwdjh48CCNRpORkVm/fn1ZWRlGT8A0EAACfE0Ab3kMogjP4sGbdTwxg1UeJvD27VsNDY1Lly7xsI/gmoATePv2LdvH6tzd3Y2NjXn8/aKPHz/m5ubeu3fPz89v9+7d9vb25ubm6urqsrKyiHMfWVlZdXV1c3Nze3v73bt3+/n53bt3Lzc3F++WbnV1dQih/v37a2lpTZ06df78+evWrXN3dz958uTVq1djY2OfPn366tWrlpYWAV/BEB4QAAI9JoC3PAZR1OMEdmsCvFnvlsswSMAJPHv2TE5OLjk5WcDjhPB4lYC7uzuNRtuyZQvrNmUODg5WVlZsJROWaD5+/JiRkXHp0qWff/7ZxsZGQ0OjY+EjJSWloqIybty4yZMn/8D0+fHHH13/9/Pjjz8y3f9h8uTJ48aNU1FRkZKS6tiEhoaGjY3Nzz//fOnSpYyMDC7LpLq6utevXz979iw2NjYkJOTUqVPu7u6Ojo4LFiyYOnWqjo6OrKxs//794cBoLMsVjAIBPiKAtzwGUYRnqeDNOp6YwSrPE7h9+7aiomJpaSnPewoOCiaBgoKCHTt2KCsrGxsbFxcXU0E2NzdbWVk5ODhQLdy/yM7O9vX1dXBw0NPTY9UnAwcO1NTUnDp16qJFi7Zs2XLs2LHr16+npKQ8ffqU4Nzn6dOnKSkp169fP3bs2JYtWxYtWjR16lRNTc2BAweyuqSnp+fg4ODr65udnc19XKwWQRGxMoEWIAAE2hHAWx6DKGqXDi79iDfrXAoSzPAhgSNHjujr6/P4o0p8yBVc7gKB1tbWP/74o7GxkXlMfX29sbGxu7s7c2OvXre1taWmpu7du9fCwkJSUpJZdfTv319XV3fOnDk7d+709/d/+PAh54RPN2d6+PChv7//zp0758yZo6ur279/f2aHJSUlLSws9u7dm5qaCluq9OqygcmBABDoCQG85TGIop7krvtj8Wa9+37DSCEg4ODgMGfOHKichCDVfBNiZWXl1q1bk5KSNDU1z50716t+l5eXX7hwYeHChTIyMsy6Ql1dfcGCBQcOHLh//35FRUU3tQu3hlVUVNy/f//AgQMLFixo93SfjIzMwoULL1y4UF5e3qskYXIgAASAQFcJ4C2PQRR1NV+c6Y8365yJAWYRUAJNTU1TpkzZsWOHgMYHYfEfgaqqqu3btyspKenr6w8ZMuTKlSscj6GsrMzb23vChAnMQkhTU3PVqlUBAQHPnz/nlpzpFTvPnz8PCAhYtWqVpqYmc4ATJkzw9vaG/eI4vpxgQiAABLpHAG95DKKoe1nr6Si8We+p9zBe0Am8efNGXV398uXLgh4oxMcHBBobG3NycoKDg93c3MzMzCQkJERERGpqajjielVV1YkTJ8zMzCipICkpaW1t/euvv9Lp9F4RKLgnpdPpn6OztrZmfibQzMzsxIkTVVVVHKEKkwABIAAEukcAb3kMoqh7WevpKLxZ76n3MF4ICDx9+lROTi41NVUIYoUQeYgAJYF27do1b948bW3tAQMGjB49et68ebt377569WpOTk51dXXPPY6Li7Ozs+vXrx8ph8TFxefOnRsQEFBaWopbtnDJfmlpaUBAwNy5c8XFxUkI/fr1s7Ozi4uL6zlemAEIAAEg0A0CeMtjEEXdSBkHhuDNOgcCgCmEgEBUVJSSkhI8WiMEqeaVEJubmyUlJdtJoHY7LvTQ19ra2pMnT+rq6pIyQExMzMrKysfHp6ioiEtahPfMFBUV+fj4WFlZiYmJkVh0dXVPnjxZW1vbQ9owHAgAASDQJQJ4y2MQRV1KFsc64806x8KAiQSdgLe3t6GhIZfPPBF0qBBfRwR67zCiDx8+eHh4SEtLk3U/eSbS48ePeU+kYPPo8ePHW7ZsUVBQIBFJS0t7eHh8+PCho4TBPSAABIAA5wjgLY9BFHEuk12ZCW/Wu+Ip9BV2AitWrJg7dy5sRifs64Cf46+pqdm7dy8lh0xMTM6dO1dWVoZNfPC24bKysnPnzpmYmFDSaO/evZx6iYuf1xH4DgSAQK8TwFsegyjq9QSzNYA362xdgkYgwJZAY2PjN9984+bmxvYuNAIBXibQ0tJy7NgxanNtU1PTGzdu8LYk4SHvbty4YWpqSkojGRmZY8eOtbS08HK6wTcgAAT4nQDe8hhEEZ71gzfreGIGq3xL4PXr1yNGjOiNfZD5Fgk4zgcEUlJSDAwMyJp+8uTJoaGhPCQ4+MeV0NDQyZMnkxgNDAxSUlL4IPfgIhAAAvxJAG95DKIIz6rBm3U8MYNVfiaQk5MjKyublpbGz0GA78JCoLq6evXq1aKiogghZWXlixcv8o8G4VFPL168qKKighASFRVdvXo1RzYAFJblCHECASDQaQJ4y2MQRZ1OFEc74s06R0OByYSFQGRkpJKSUnl5ubAEDHHyJ4H09HQ1NTWEkJiYmJOTU2FhIY/qDH5zq7Cw0MnJidyhTk1NLT09nT8XCHgNBIAA7xLAWx6DKMKzMvBmHU/MYJX/CXh5eRkZGcFmdPyfSYGN4Pjx4+TRQ3p6enFxcfymO/jA37i4uLFjxyKE+vXrd/z4cYFdSRAYEAACOAjgLY9BFOHIOYOBN+t4YgarAkHA3t5+/vz5sBmdQCRToIL49OnT/PnzyVdf7O3tS0pK+EBh8KeLJSUl9vb2JOr58+d/+vRJoFYSBAMEgAA+AnjLYxBFeDKPN+t4YgarAkGgsbHR1NR0165dAhENBCEgBOrq6szNzRFCkpKSPj4+/Kk1+MxrHx8fSUlJhJC5uXldXZ2ArCQIAwgAAawE8JbHIIrwJB9v1vHEDFYFhcDr16/V1NSCg4MFJSCIg78JVFdXk4fqyMrKPnjwgM+0BT+7++DBA1lZWYSQiYkJbL3A379F4D0Q4A0CeMtjEEV4VgHerOOJGawKEIEnT57IysrCm9YClFJ+DaW+vt7IyAghpKiomJSUxM8Sgy99T0pKUlJSQggZGRnV19fz6zICv4EAEOANAnjLYxBFeFYB3qzjiRmsChaB8PBwZWXliooKwQoLouEzAnZ2dgghVVXV9PR0vlQV/O90enr68OHDEUJ2dnZ8tnrAXSAABHiMAN7yGEQRnuWAN+t4YgarAkfg0KFD48aNg9esBS6xfBOQl5cXQkhCQiI6Orrz4uLZs2dL//389NNPjo6O586dq6ys7PwM3e6Zk5OzdOlSf3//DmZwcnJasWJFRUUF1Wf16tVOTk6VlZVubm4zZ84MCAhoF4KTk1NUVBTZn7kbNUO7i5cvXy5dupSDL19FR0dLSEgghLy8vPhm9YCjQAAI8B4BvOUxiCI8KwJv1vHEDFYFkcCyZcsWLFgAm9EJYm55PabExMQ+ffqIiIj4+vq2K/o7/jEtLY3ckkFNTW348OEDBgxACLm6unY8iiN3U1NTBw8evG3btg5mW7RoEUIoNDSU7HP79m2E0OLFi8+ePWtgYODv7y8vL3/r1i2E0ODBgzU0NEaMGNGvX78+ffr8/vvvBEEwd8vMzGRr6OnTpwihlStXsr3bvUZfX18REZE+ffokJiby+tIB/4AAEOBVAnjLYxBFeNYF3qzjiRmsCiKBhoaGyZMnu7u7C2JwEBPvEmhrayNfJVq7dm1Xi3hSFC1atIgc+Pjx4/79+6upqVHzREVFBQQEZGdnUy23bt3y9/cvLCy8c+dOWloaQRBFRUWRkZFZWVkEQRQXF0dGRlIKpN3wly9fRkZGPn36NCgo6N69e5GRkRkZGQRBMLfHxMRQtq5du4YQ+umnn8gWR0dHUiPt37/f1tb25cuX5DYnCCEqhJiYGITQDz/8QBAEc7d2JzVVVlaGh4cHBwdnZWW1E0XtfKac6dLF2rVrEULjxo2Dv5Lw7m8OeAYEeJsA3vIYRBGe1YE363hiBqsCSuDVq1fDhw+/evWqgMYHYfEigcDAQISQvLz8ixcvulS4EwTRThTFx8f37dt33LhxBEFUVFRYWlqKiIgMGjRIXFw8ICCAIAjy+KN+/fppa2sPHDhw+fLlBEGQOmTHjh0EQSQkJCCEtm7dynb4nTt3EEKampoIISsrK4TQxo0bCYJgbrezs6OiqKiooNFoQ4cOLS8vJwhCVVVVUVGxsrLyxYsXU6ZMkZSUXLduHRmClZVVTExMdHT0jh07EEJHjx4lCIK5GzUneWFpaYkQGjRokJaWFiWK2PrcbmAnf3zx4gWNRkMIBQYG8uKiAZ+AABDgeQJ4y2MQRXgWCN6s44kZrAougezsbFlZ2UePHgluiBAZDxFobGxUUVH5/PzYkSNHOlmvM3cjFUXfvn3FxcX79++PEBo6dGhERARBEGfOnPn842+//VZeXm5hYaGkpBQWFkZ+CVNRUXHw4EGEUAeiiHV4RUUFKX50dHSio6PJ2ZhFEdlOp9OZPVy3bh1CKDg4mBy7fv165ruUriOPTyX/PWbMmGfPnrXrxvxjUFAQQsjR0ZEgCDc3N0oUsfWZeWCXro8cOULue9HY2MhDKwZcAQJAgE8I4C2PQRThWSZ4s44nZrAq0ARu3ryprKxcWVkp0FFCcDxBICoq6vPXERoaGsy7EXS+didFkbGx8c6dO+Xk5IYMGULt07Bq1SqE0MyZM+fOnTtmzBiE0Pbt2xFCISEhBEHk5+ezFUXx8fHkN0Wsw7OyskhhQ76zlJyc3O6bIrbvMj148AAhtHDhQvLZOeaH68gwyRC+/fbb69evh4SE7Nu3r1+/foaGhh1A2L17N0Lo9u3bBEGkp6dTooitzx3M0/GtiooK8juxqKgonlgr4AQQAAJ8RQBveQyiCM9iwZt1PDGDVUEncPDgwfHjx8NmdIKeZ/zxLV++vCdbI5CKgnwh5/79+2JiYnJycjk5OQRBrFmzBiG0d+/e3/79eHp6fn747fLlywRB0Ol0ShTFxsaSQoh6EG7r1q2sw/Py8khR5O7uThAEqygi21mVxqhRo4YMGaKqqjp69GjWu8whkHf19PQQQoWFhaydyZYDBw4ghK5du0YQBKniyI0W2Pr8pUk6075lyxaSEv6FAh4AASDAbwTwlscgivCsF7xZxxMzWBUCAj/++OMPP/wgBIFCiNgINDU1SUtLI4QSEhI6U6Oz9mmnKMgXcmbPnk0QxJUrVxBCq1atio+PHzdunKmpaXJyspiYmJmZWVRU1KxZsyhRlJ2djRCaNGlSdHT07NmzSYHEOry8vJwURR4eHmxFEdnO6uR///tf8rk4Nzc31rtkCIaGhrt27XJzc/vpp59ERUW1tbVZe1ItsbGxoqKiZmZmkZGR1tbW1DdFbH2mRnXjgnzDSkZGpqmpCdsqAcNAAAjwJwG85TGIIjyrBm/W8cQMVoWAQENDw6RJkzw8PIQgVggRD4EnT54ghJg3i+tq4d5OFJWXlxsYGJDbAxAEsX79ejExMfJFI/JAof3794uJiYmKiv7nP/+hRNHnp+nIvbP79u27adMm6lsj1uHdE0Xp6ekiIiKioqLUpnbMYZIhkKpJRERk4MCBU6ZMSUpKYu7Deu3u7i4mJtanT5/FixcPHDiQ2pKb1WfWsV1qUVdXRwg9efIEzxIBq0AACPAtAbzlMYgiPAsHb9bxxAxWhYNAVVXV8OHDr127JhzhQpTcJkBqjKlTp3apTO9S58LCwoyMjLKyMmpUUVFRfn4+ebwPudECeSsnJyc/P5/qRl6wDm/XAeOPxcXFBQUFrA5w1udp06YhhO7cucPtxQH2gAAQ4HMCeMtjEEV4lg/erOOJGawKDYGsrCxZWdmMjAyhiRgC5R6Bc+fOMR/Rw1rf914LqyjqPVt8PfPixYsRQufOnePesgBLQAAICAQBvOUxiCI8iwhv1vHEDFaFiUBYWJiKigpBEMIUNMTKDQLkvtjOzs7clw0lJSVHjx69desW903zl8UNGzYghA4ePMiNBQE2gAAQECACeMtjEEV4lhLerOOJGawKGYH9+/dPmDDhr7/+ErK4IdzeJYDxmyL+UiYYvYVvinr3dwBmBwKCSwBveQyiCM/Kwpt1PDGDVeEjsHjx4kWLFglf3BBxLxLgwjtFGOWEYJiGd4p68RcApgYCAk0Ab3kMogjP4sKbdTwxg1XhI/DXX39NnDjxl19+Eb7QIeLeItDz3ecEQ3jwchSw+1xvrX6YFwgIOgG85TGIIjzrC2/W8cQMVoWSwJ9//qmqqhoaGtql6N+9e1dcXJySkhIbGxsQEOD/78fHx2fP/358fHz+vekfEBAQGxubkpJSXFz87t27LlmEzvxCoOfnFGGREzk5OUuXLiX3+MbiANeMwjlF/PKrBH4CAR4kgLc8BlGEZ0ngzTqemMGqsBLIzMxUU1P7+PEjM4CPHz/m5ubeu3fPz89v9+7d9vb25ubm6urqsrKy5OkrHPm3rKysurq6ubm5vb397t27/fz87t27l5ub284ZZsfgmvcJ2NvbI4RcXV25Vuj33FBqaurgwYO3bdvW86l4fAZXV1fyNCfeX0jgIRAAArxGAG95DKIIz3rAm3U8MYNVISbw5s2bjIyMS5cu/fzzzzY2NhoaGh1rHhmZwWpqiiYmY83Nx9nb21D/rF49d8+e1cz/rF49l7prb29jbj7OxGSsmpqijMyQjk1oaGjY2Nj8/PPPly5dysjIAJnER8szKirq81mrGhoaFRUV3VMIeXl5ly9f9vPzS05OJmcoKiqKjIzMysoiCKK4uDgyMjIzM7OwsDAyMvLZs2f3798PCAjIy8ujzEVFRQUEBGRnZ5MtL1++jIyMfPr0aVBQUExMzL1796Kjo5lvpaamRkZGZmRkkI2sDhAEkZKS4ufnFxUVRcXVblrKOs9eVFRUaGpqIoSioqL4aEWBq0AACPAIAbzlMYgiPMsAb9bxxAxWhYxAdna2r6+vg4ODnp4eqz4RFx+gra323XeTHBxme3is8fffExvrU1gY/ubNAwbjEaf+efPmQWFheGysj7//Hg+PNQ4Os7/7bpK2tpq4+ABWl/T09BwcHHx9fbOzs4UsV3wWbmNjo4qKCkLoyJEj3ZAHycnJ0tLSw4YNk5OTQwj98ssvBEHExMQghHbs2EEQBPkA2NatW+/fv48Qmjx5spiYGEJIXl7+4cOHFRUVlpaWIiIigwYNEhcXDwgIIAiC3P6B1AN2dnZz5swRExPLyckhCMLDwwMhdOrUKYTQxo0bCYJg64CLi4uIiAi5LCdMmEAKsHbTdiNYLg85cuQIQkhVVbWxsZHPVhW4CwSAAA8QwFsegyjCswTwZh1PzGBV0Am0tbWlpqbu3bvXwsJCUlKSWXUMGNDPwGDkokWWnp7O4eFHCgrCOCV7uj1PQUFYePgRT0/nRYssDQxGDRjQn9lhSUlJCwuLvXv3pqamtrW1CXrq+C++wMBAUqW8ePGiq3X/L7/8ghA6f/58WVnZnj17yPd8OhBFY8eOLSgoiIiIEBUV/c9//nPmzBmE0G+//VZeXm5hYaGkpFRRUUGqFx0dnejoaDqdHhYWRsktXV1dDQ2N5ORkShSxOkB+92VjY/PixQtfX1/y8TNKa1HTdjVSLvd/8eKFvLz85y/xAgMD+W9JgcdAAAjwAAG85TGIIjxLAG/W8cQMVgWUQHl5+YULFxYuXCgjI8OsK0aOVF22zPrUqW1ZWVdaW9O7rV64M7C1NT0r68qpU9uWLbMeOXI4cyAyMjILFy68cOFCeXm5gOaQ/8Jqa2szMjJCCK1du7arpX9sbKyEhARCSFJS0srK6u7du+2+KYqPj0cIUd8Ubd++nTShqamppaW1atUqhNDMmTPnzp07ZswYhFBWVhYpiphfc9LS0ho7dmx0dDRCaPfu3cyiiNWB//73vwihiIgI0tCIESO0tLQoUcQ8bVeD5Wb/tWvXIoTGjRsHf0fgv98o8BgI8AYBvOUxiCI8qwBv1vHEDFYFi0BZWZm3t/eECROY9YO2ttqmTYsjIo68exfDHTHTS1bevYuJiDiyadNibe0RzAFOmDDB29u7rKxMsJLJl9EkJib26dNHRETE19e3q6V/ZmbmL7/88v333w8cOHDw4MFlZWWxsbGkEKKkCCWKHB0dyflVVFT09PTWrFmDENq7d+9v/37y8vJIUeTu7k55snfvXoSQtbW1mJjY06dPmUURQRDtHHB3d0cIBQcHEwRRWVlJo9H09fUpT5inpebntQtfX18REZE+ffokJiby5XoCp4EAEOABAnjLYxBFeJYA3qzjiRmsCgSBqqqqEydOmJmZUVJh8GCJefOm+/ruLC291UsSBe+0paW3fH13zps3ffDgQVTUZmZmJ06cqKqqEois8msQhw4dQghJSEhQuxp0Riq4ubmJi4ufOnXqyZMnZmZmAwYMKC0tzc7ORghNmjQpOjp69uzZzN8UycjIBAYGks+8OTo6XrlyBSG0atWq+Pj4cePGmZqalpeXk6LIw8ODciA3N3fAgL9fXbO1tSXfI6Ien2N1IC4uTkxMTF9fPyQkxNHR8fP/QZBCiHVaan6euoiOjia/fPPy8uLXxQR+AwEgwAME8JbHIIrwLAG8WccTM1jlcwJxcXF2dnb9+vUjhYGExMAlS2ZGRBxpbEzBK1q4Zr2xMSUi4siSJTMlJAaSEPr162dnZxcXF8fnueVj9xcsWEC+2Z+ent5JnfD8+XNzc3Myg1JSUmfOnCEHLlq0CCHUt2/fTZs2MYuiKVOmDBny92aGZmZm5P4H69evJ7deGDp0KPlKElv1YmdnhxAKCQlpJ4rYOuDr60u+kCMmJrZ27dry8nLqmyJmrdXJGLnZLT09XVVVFSFkZ2fHxysJXAcCQIAHCOAtj0EU4VkCeLOOJ2awyp8EamtrT548qaurSxaRYmJ9586dHhLi+enTQ66pEV4z9OnTw5AQz7lzp4uJ9SWx6Orqnjx5sra2lj+TzMde19fXGxoaIoQUFRWTkpI6LwYKCgqysrKoza/JgTk5Ofn5+dQk5O5zO3bsKC8vf/bsGdVOEERhYWFGRkZZWRlzY5euWR2oqKjIzMwsLS3t0jx4OyclJSkqKn5+IcrIyKi+vp6PVxK4DgSAAA8QwFsegyjCswTwZh1PzGCV3wh8+PDBw8NDWlqarPuVlOQ8PNb8+ec9XpMoGP358897Hh5rlJT+3nELISQtLe3h4fHhwwd+SzV/+1tdXT1p0qTP217Lyso+ePCAgyKBEkUcnFOQpnrw4AF52rKJiUl1dTV/LyPwHggAAR4ggLc8BlGEZwngzTqemMEq/xCoqanZu3cvJYemTjW6ft2ruTkNo/zgZdPNzWnXr3tNnTqOkkZ79+6tqanhn4Tzvad1dXVTp04lN5Tz8fHhlPB4/vz50aNHu/TCEqdM8/48Pj4+5M775ubmdXV1fL+GIAAgAAR4gADe8hhEEZ4lgDfreGIGq/xAoKWl5dixY9Tm2tOmjU9IOMfLgoSnfEtIODdtmjEpjWRkZI4dO9bS0sIPaRcEHz99+jRv3jwSvr29fUlJCe/rCj71sKSkxN7enkQ9f/78T58+CcICghiAABDgAQJ4y2MQRXiWAN6s44kZrPI8gZSUFAMDA7LWMTcfFxfny1OSg1+ciYvzNTcfT2I0MDBISUnh+cwLjoPHjx8n9wLR09OLi4vjU9XBy27HxcXp6ekhhPr163f8+HHBWToQCRAAAjxAAG95DKIIzxLAm3U8MYNVHiZQXV29evVqUVFRhNDw4Qo3bx5mVSCZmb87Oi6wtjZbt25+SspF1g4cbGlroxcUhHFwQu5PdfPm4eHD/34BXVRUdPXq1fDGBdeWf3p6+vDhfx+/KyYm5uTkVFhYyMsag498KywsdHJyIrfdU1NTS09P51pOwRAQAAJCQgBveQyiCM8yw5t1PDGDVV4lkJ6erqam9k8R2Xf7dvuPH5NYJcTVqwf79u0jITFw/HgdCYmBIiIiFy+6s3bjSEtDQ7KJydg1a+ZyZDaMk3z8mLR9uz25Qx0UkdxcCgOKLwAAIABJREFU/swiX1lZ+eLFi3ykPXjT1YsXLyorK4PI5+YyBltAQAgJ4C2PQRThWXJ4s44nZrDKkwSox42MjLSfPQthKyHq6hKGDBmkpCRXUXGbwXhUUhIpJSVpaDiK6lxYGB4a6pWWFtDams5gPPrrr+SUlIuvX99//vzajRveBHGX6pmWFhAZebSq6g+qhcF49OxZSGioF51+iWx8+PACQug//5mWm3udwXjU0JB8//7pq1cPpqf/3aG+PjEl5eKbNw/u3TuZk3OVmicz8/esrCvkjzU18SkpF3lko7xnz0KMjEbD40bcX/4pKSn6+vrkc4yTJ08ODQ3lTb3B416FhoZOnjwZHgfl/gIGi0BACAngLY9BFOFZcnizjidmsMpjBD59+jR//nyy1nF0XNDQkEwJjHYXERFHEEK7dq2k2t+8eUBd79q1UkREhJzHzMzgw4e43NzrCCFTU31x8QEiIiKDBonn5FxtbU2fPXuqiIiIpKS4hMTAyMij5AxOTn8fcNm3bx+E0KJFlgzGI339keRslpYmNTXxI0eqioqKSklJIoQ2bFhIp19CCGlr//3V1k8/zaLcWLTIsk8f0Vev/pZbXl4bEEK9/YwfZfqrFw0NyY6Of4eJEIIX07n5e9Bu4xBTU9MbN27wuAjhHfdu3LhhampKrlvYOISb6xZsAQGhJYC3PAZRhGfh4c06npjBKi8RqKurMzc3RwgNHiwREuLZcVl/6tQ2hJCf3y7WbmlpAQihBQss6uoSrl07hBBycrIjRZGRkfbHj0lhYb9+fjBv/37HoKADCKHAwL0tLenW1maqqrTW1vSkpPMIoa1blzU3p/3887IpU4wI4m5hYThCaNky6/fvY168uLFhw8LMzN/b2ugTJuiqqSmSokhff2R2dlBp6S3KpT/+OIUQOn16O4PxaMIE3ZEjValbPHIREuI5ePAghBBsYczlX4V2W8ybmJicO3euJ+eu8o5u6Q1PysrKzp07Z2JiQsohaWlp2GKeyysWzAEBoSWAtzwGUYRn4eHNOp6YwSrPEKiuriYrHnl5mceP//8jZx0oh/Pnd38+AebwYReqD/Xe0YED6xFCDx9eIG9paamOHj2CFEXbt9szGI9IhePm5rBp02LyobglS2YaGo5CCBHE3SNHNrN+pVNdHYsQot4punfv5MqVc3R01BFCCgrDSFHk7r6acoa8aG1NV1WlTZ1qVFp66/NXT/v2ObbrwAs/Pn58RV5+GEIIDrvk/m9Du8OIaTTali1bHj9+3Bu6gk/nfPz48ZYtW2g0GiWH4DBi7i9UsAgEhJkA3vIYRBGetYc363hiBqu8QaC+vt7IyAghpKIin5/fqR3ecnKuIoS+/34yqSuamlI1NJSnTzdmMB4dPfq3qvnjj1MMxqO2NrqSktz48TqkKCJ1S3FxBEJo584VmzcvQQgdO+YaGLiX/OfDh7jTp7dTw8vKoqKjz9TVJTCLops3DyOEnJ1/SE31nzFjopKSHCmKmBUapXZ27VopKirq6vqjiIhISUkk1c5TF/n5YSoqCgghIyOj+vp63lgUQuRFbW3tyZMndXR0yLpfTEzMysrKx8enqKiIT5VMz90uKiry8fGxsrIid5ZDCOnq6p48ebK2tlaIVgaECgSAAA8QwFsegyjCswTwZh1PzGCVNwjY2f39csuIEYpdkg22tlMQQkuWzPTz2zVz5t9vXf/88zIG41FBQZiYWN/x43UePDi9desy8gsltqLo7t3fEEKbNi1+/vyaicnYadPGt7Sk5+WF9u3bhzwTadasb0RERAoKwurrExFC3347ITXVf8eOFQihGze8c3KuysgMlpeXIUXR0aObWaVOUVGEiIiIqKioufk41ru801JSEjlixN8bednZ2fHGohBGL+Li4uzs7MhDjRBC4uLic+fODQgIKC0t7bnM4IsZSktLAwIC5s6dKy4uTkrEfv362dnZxcXFCeOCgJiBABDgAQJ4y2MQRXiWAN6s44kZrPIAAS8vL4TQoEHiT54Ed0kk1NcnLl9u26+f2D+7qIk5Oi5obk4jZ7h27ZCioizZ7ur6Y0tLOltR9HlXum3bfiJnkJWVDg8/Qg6/eNF98GAJhJCExMCTJ7eSjdOm/X34qampfl5eqJKSHEJIVZVmYzNFVFT0zp0TCCG2oojBeGRuPu7zUUu9t114l6B10PnJk+BBg/6O2svLiwfWhfC6UFVVdeLECTMzM1IVfFb1kpKS1tbWv/76K51O5wtt01Un6XT65+isra0lJf/evIT8mJmZnThxoqqqSniXAkT+/9q7E6ioz3v/4w/gBgrRSdUYKhIkivFPXMilJXoDRhqbk8tRSSRa/SsWIyYtxsQlC6kLtW5VI8bQikZBzeIupqKE/IW4DSK0QS22Uq9GcUm8RFEhLjDzh/xuphNgwMEZv8Pw5nhS/C3P8vo+9jyfMz9+IICAAwjIbo8JRTJLQLbqMnOmV2mB/fv3u7m5ubi4bN68sJ79ej2nyssPnj276/btnBrXVFbmFhen1z5e4zKjMa+s7MC5c+mmQKVdUFmZe/78bvPbDYYjFy9mGAxHjMa8iorcCxf2aN/XbtD8iPYyBg+PNteu7TM/7pjfb9680MXFxc3Nbf/+/dJLg/6NZ8+eXbx4cXBw8A8xofp//f39X3rppdTU1MLCQmuzh0NdX1hYmJqa+tJLL/n7+5tPMDg4ePHixWfPnmUFIIAAAo4gILs9JhTJrAHZqsvMmV5FBQwGQ1BQ9Y8STZ06xjFDwj2OavXq33XvXv1M2owZ1c/1NYk/U6f+X6VUUFCQwWAQXR10/m+Bc+fOrVmzZuTIkTqdzjw/+Pn5jRgxYt68eZmZmcXFxQ6VeWoPpri4ODMzc968eSNGjPDzq35JielLp9ONHDlyzZo1586d+/e0+Q4BBBBwAAHZ7TGhSGYJyFZdZs70Kiqwfv167e1t1683gU9RGhFpqh4InDVr4rp11a/8bsTtIrdcv76vS5fqhwPXr18vujrovA4Bg8GQk5OTkJAQHh5u/qSZUqp169a9e/ceNmxYfHx8SkrKwYMHa8eS+3zk4MGDKSkp8fHxw4YN6927d+vWrU0pSHsmMDw8PCEhIScnhwReR7E5hAACjiEguz0mFMmsAtmqy8yZXuUEbt265ePTteqNcx98MFNk90+nlgS01537+PjcunVLboHQc8MCBQUFycnJMTExgYGB5nlD+97d3d3f3z80NHTUqFHTpk1btmzZli1b9Hr98ePHbZiOjh8/rtfrt2zZsmzZsmnTpo0aNSo0NNTf39/d3b32kAIDA2NiYpKTkwsKChqeHlcggAACDiAguz0mFMksAdmqy8yZXuUEdu3apZTq2bNbZWWT+RTFUopwsuOVlbk9e1Y/3bRr1y65BULP1gmUlZXl5+evW7du+vTpERER3bt3r51JzI+0b9++a9euQUFBTz755ItmX2PGjJn6468xY8aYnX/xySefDAoK6tq1a/v27c0brP199+7dIyIipk+fvm7duvz8/LKyMuumxNUIIICAAwjIbo8JRTJLQLbqMnOmVzmB8eOjq3ZRs2fX/IWnThYwmuh0Zs+OVUqNHz9eboHQ870KlJWVnThxIiMjY/Xq1TNnzoyOjg4LC/Pz8+vYsfrFjLb66tixo5+fX1hYWHR09MyZM1evXp2RkXHixAki0L3Wj/sRQMAxBGS3x4QimVUgW3WZOdOrkMDt27d1ug5KqRMntojHhm++yYyNjTS9j7vGeOo/q/1+2JMn7+oXztZo2ZH/qr3BXKfT3b59W2iN0K19BUpKSk6fPq3X67OyslJTU1N++Fq5cuXsH3+tXLnyh5MpqampWVlZer3+9OnTJSUl9h0irSOAAAIOICC7PSYUySwB2arLzJlehQSOHj36/cuFuzpCMPjv/975wAPt5s59pc7B1H/25s1DISGPx8ZG1nlvkz7o799NKXX06FGhNUK3CCCAAAIIyAvIbo8JRTIrQLbqMnOmVyGB3bt3K6Weeebn9xIbrl7NTk9fvnXroqKi7Vo75eUH9fq158/vrvqtrN99d0ivX1tcnF5a+oVev7a09Isvv/woI2NFWdmB7747lJmZ9MUXydpdN29WX3nuXLp2yzffZBYWbt6+ffGFC3uMxjzTWe3iGp0ePLhGKTV8+KATJ7bcuLFfr197+fLnGRkrjh3bqN2bmZm0ceP83Nx12u21r9GOO+B/n3lmgFJq9+7dQmuEbhFAAAEEEJAXkN0eE4pkVoBs1WXmTK9CAqtWrVJKxcQMbXQY+Ne/djz44AOdOukeeuhBpVRi4jSjMe/YsY1V7yaeP/+3RmOe9gDY73//cmZmklLqP/+zn4dHG6XU448/2ru3X9u21a/G0n59UFHRdqVUfPyvtVsGDOjj4dHGxcWlXTuPY8c2ms4ajXm1O+3Tp4f2sxlDhoQcObJOKRUQ4KuUGjfuv0pLv+jRw8fV1bV9e0+l1OTJI43GvBrXNHr69+HGmJhIpdSqVauE1gjdIoAAAgggIC8guz0mFMmsANmqy8yZXoUE5s+fr5R6663xjd7cJyZOq0o427b98c6dw0uXvq79RFA9oWjo0NCKityxY5/TUtOdO4f9/LwffdTHaMwzxR4tFPXvH1BWdmDbtj8qpf7wh1dMZ43GvNqdnjqVppQaO/a5b7/dqwWePn16FBR8/NVXfykq2j558si//vVDg+FIcHBvX9+HTaHIdE2jp38fbnzrrV9/bzVfaI3QLQIIIIAAAvICsttjQpHMCpCtusyc6VVI4N4/KTp+fFO7dh5KKS+vtpGRT+flra/xSVFh4WallOmToqSkN6teijBz5ktKqePHNxmNeU891f+nP+1UOxS9+Wa00ZinpZ133okxD0W1O71yJUsppf1MkRaKZs369/v0MjJWTJgw7LHHql9v3aXLT0yhyPya+xBvGtdFTMxwPikS+vdBtwgggAACjiIguz0mFMmsA9mqy8yZXoUEbPIzRcXF6YmJ04YNC/PwaPPAA+3u3Dl8/PgmLQiZ4ocpFK1a9U5VNpg1a6JSSvsZpNDQ/t7edYQiLbGcPr1Te6bOPBQZjXk1Or18+fMaoWjJkte0ELJjxxKlVFzcizk5Kb/4xc+0vrTgZLqmcXHl/tzFzxQJ/eOgWwQQQAABBxKQ3R4TimSWgmzVZeZMr0IC9/72uYULJ7dt6/7hh3O//vqzwYOD3d1b37qlv3TpM6XUU0/1Lyj4eOTIZ8w/KbJJKKrd6bff7lVKDR4cnJOTogWed999XQstb79d/fjZ9u2Ljx3bqNN5de6sM0U10zX3J940rhfePif0j4NuEUAAAQQcSEB2e0woklkKslWXmTO9Cgl8/3uK2t/L7ykqKdk7ZEiI9pIDnc7r44/naVv/mJihSqkWLdzeeSfG5qGozk4HDXpCKTVgQJ8aoegf/9jq7d1JKeXj81BExFOurq4XLuypcU3j4sp9uEv78SqllKenp7e3d0BAQHBwcHh4+PDhw8eNGxcXFxcfH79gwYKkpKQNGzakpaVlZWXl5+cXFRVdunSpvLxcaFnRLQIIIIAAAjYWkN0eE4psXM67bE626nc5SC5zGoHx48dVRZrZs//9EziN2Otfu7bv/PndlZW55vd+801maekX5kds+32NTg2GIxcvZhgMR2r3UlGRe+HCnjpP1b7YoY7Mnl39nOH48eOvXbtWXFxcWFh4+PDhzMzMrVu3pqSkLF++fO7cuTNmzHj55ZdHjx4dERERFhbWv39/f3//Tp06ubu7t2jRokOHDt26dQsMDBwwYMAvf/nLqKioCRMmvPbaa7NmzVqyZMmqVas++eST9PT0AwcOFBQUaL8JlF8U6zT/upkIAggg4DQCsttjQpHMQpKtusyc6VVOYNeuXUqpnj271Yg0DpUNmudgKitze/Z8RCm1a9euxi2QO3fulJSUnDlz5ujRowcOHEhPT9+4ceOqVauWLFkye/bs119/fcKECVFRUc8+++yAAQMCAwN9fX11Ol2LFi3atGnTqVMnf3//fv36hYaGRkREjB49etKkSTNmzJg7d25iYuLatWu3bt2amZmZk5NTWFhYXFxcWlpqMBgaN07uQgABBBBAoH4B2e0xoaj+6tjrrGzV7TUr2nVUgVu3bvn4/FQp9cEHM5tn9nDYWX/wwczvn/rzuXXr1n1ePuXl5V9//XVRUVF+fn52dvbOnTs3bNiQlJS0cOHC+Pj4uLi46OjoyMjI8PDw4ODgXr16eXt7e3p6urm58Zjffa4U3SGAAALNREB2e0wokllmslWXmTO9igqsX79ee1f19ev7HDYhNLeBXb++r0uXjkqp9evXi64OKzo3GAw85meFF5cigAACCNy1gOz2mFB014Wy6YWyVbfpVGisaQgYDIagoH5KqalTxzS37OGw8506dYxSKigoqDk8k8Zjfk3j/ykYJQIIICAnILs9JhTJVF626jJzpldpgf3797u5ubm4uGzevNBhc0LzGdjmzQtdXFzc3Nz2798vvTQcun8e83Po8jA4BBBAwHYCsttjQpHtKmlNS7JVt2akXOtUAosWLVRKtWvncfToJ42LHzdu7I+Njdy0aYGl2w2GIydPbrN09u6PN9hR/U1Ze/uiRZNjYyMLCj42Nfs///P/YmMjY2MjJ016/je/ifr9718uLk43GvPOn99dv4CphXq+OXr0k3btPJRSixYtcqoV5jCT4TE/hykFA0EAAQTuVkB2e0wouts62fY62arbdi601rQEoqJeUEo98sjDZ858Ws+u3dKpy5c/V0q9+uqoOi+4efNQSMjjsbGRdZ616mD9HTXYlFW3X7iwp0ULN6VUdHSEqeXTp3cqpby82nbv/tOf/KT6Fz116fKTb7/de+zYxnoETLfX882ZM58+8oi3UioqKqppLZ7mMFoe82sOVWaOCCDgmAKy22NCkcyqkK26zJzp1TEEbty40b9/36o30XXt2vmf/7zbj3QMhiMHDnzw2Wfvnz+/2xQJbt48lJmZtHHj/NzcdVoGOHhwjVJq+PBBJ05s0Y6cOpW2deuiw4dTTW8Dv3o1Oz19+dati4qKttdODnV2pF12+HDqp5++e+nSZ9pf62zH0u017q3R77x5v1FK+fo+7O7e+urVbO2sFopiYoYajXmVlblxcS8qpdaunXWPoeif/9zWtetDSqn+/fvfuHHDMRYFo7CBAI/52QCRJhBAoHkLyG6PCUUyq0+26jJzpleHEbhy5UpIyM+UUp0767788qMaCaHOvw4dGqqU8vT06NWr+pfqvPrqqNLSL3r08HF1dW3f3lMpNXnySKMxr0+fHlW/JVYpNWRISFWW+N3vJri4uGhHBg7se/Vq9r/+tePBBx/o1En30EMPKqUSE6fV6K52R1omGTo01MXFxdPTo21b908/fddSO7Vvr6zMrXFvjR6Nxjx//649e3b78MO5Sqn33puhXWAeiozGvISESVUfFq1c+fa9hKIvv/yoc+fqiYeEhFy5csVhVgQDERPgMT8xejpGAAHHE5DdHhOKZFaEbNVl5kyvjiRw/fr1sLCntMfD6vkBIS0eZGSsUEpNnz7WaMxbtGiyFoqKirZPnjzyr3/90GA4Ehzc29f3YaMx79SpNKXU2LHPffvt3sOHU5VSI0aEX7++b/Pm6p9l+u1voxITpymltm374507h5cufT0tbal5RKmzI6Mx7+OP533/3uqEiorc554b6OPz0LJlU2u3U+ftte81fWaldZ2VtVIp9Yc/vFJeftDLq21goL95KOratfNzzw0cOLCvq6vrgw8+cP787kaHok2bFnh5tVNKhYWFXb9+3ZGWA2NpegI85tf0asaIEUCgIQHZ7TGhqKH62Oe8bNXtMydabWIC5eXlL7zwvPYxziuvjLh585B5PjH/fvHiKUop7Rm5M2c+NT0+l5GxYsKEYY895qf9vI3RmHflSpZSSvuZIu2ZtIMH12hNPfqoT69ejxw/vkl7wYCXV9vIyKfz8tbfTUdTpvxKeypv9Ohn+/XrqZTKylpZu506x1n73gsX9ph3Onr0s0qp+Phf/+lPb2mfdB06VD1m7ZOizp11Awf2ffrp/4iJGXr8+CajMa8RoejmzUOvvDJCo37hhRfKy8ub2FphuE4kwGN+TlRMpoKAswnIbo8JRTLrSbbqMnOmV4cUSExMbNWq5fc/4hLw979Xb/pr/3n//TeUUnv3/tlozCss3KyFoh07liil4uJezMlJ+cUvfubt3alGKHr33deVUp999r7RmGcwHPH27vTEE48ZjXnFxemJidOGDQvz8GjzwAPt7tw5bOqxzo6MxrzXXx+tlFq2bOr69Qnan6tXs2u3U+ftdd5r6vHKlSx399ZaXDH9V3vdQo3H50y3WBuK/v73Tf37ByilWrVqlZiY6JCrgEEh0IAAj/k1AMRpBBCwhYDs9phQZIsaWt+GbNWtHy93OLNAbm6ur69P1SNkLVu2ePPN6LKyA6YAoH1z/PgmV1fXwYOD9fq1zz//tBaK3n7710qp7dsXHzu2Uafz6txZZzTm3bixXyk1eHBwTk7KyZPbWrZs8cQTj33+edKMGWOrfiRpyZLXFi6c3Lat+4cfzv36688GDw52d29965be1F2dHRmNeXv2vKeUmjLlV4WFm0NCHh806In58+Nqt1Pn7bXvrajINfW4YsUMpdSf//z29ev7tD8BAb7a6xbuPRSVlR14883oli1bfP8WB9/c3FxnXkbMDYG6BHjMry4VjiGAQN0CsttjQlHdVbH3Udmq23t2tN/kBK5cuTJx4kRXV9eqF6x169Zlx44lptigfbNkyWstW7Zwc3OdMGGYh0ebV18d9Y9/bPX27qSU8vF5KCLiKVdXV+2xtEGDnlBKDRjQx2jM27x54cMPd/z+Q5KWU6eOqajILSnZO2RIiPaZjE7n9fHH8xrsSLvgjTfGaZ9odezYIS1tqaV2ao/TaMyrca95j/369WzTplVp6Remg9oPTb333ox7DEU7dizp1q2LUqpKZuLEibxWocn9o2DAsgI85ifrT+8IiAjIbo8JRSJFN8pWXWbO9OrwAnq9vm/fPlpiCQsLys5ONkWFqmjx3XeHrl3bZ36koiL3woU9BsMR84MGw5GLFzNMBysrc4uL02/fzjG/5tq1fefP767xwgPTBbU70k6VlR04dy7d/HG7Otup8/ba95q6s/k32dnJYWFBGmPfvn31er3DV54BIuAkAjzm5ySFZBrNVUB2e0wokll3slWXmTO9NgWBioqKZcuW6XQdtD39oEFP7Nu3yuaxwVkb3LdvlfZBmVJKp9MtW7asoqKiKZSdMSLQ3AV4zK+5rwDm7xgCsttjQpHMKpCtusyc6bXpCJSWliYkJHTo0F6LRqGh/bdsWWT+EY2zpprGzevOncNbtiwKDe2vcXXo0CEhIaG0tLTpFJyRIoBAIwV4zK+RcNyGQF0CsttjQlFdNbH/Mdmq239+9OAMAlevXp0zZ44pGnl7d5ozJ/bixYzGJQenvOvixYw5c2K1n62q+l20HTp0mDNnztWrV52h/MwBAQTsJsBjfnajpeGmLSC7PSYUyawe2arLzJlem6bAtWvXVqxY0bv3Y9rHIC1btoiMfHrTpgXl5QedMufczaTKyw9u2rQgMvJp7c1ySqnevXuvWLHi2rVrTbPIjBoBBJqGAI/5NY06McrGCshujwlFja3bvd0nW/V7Gzt3N1OB7OzsqKioVq1aaemobVv30aOf3blzqfk7te8mUTTda27d0u/cuXT06GfbtnXXEFq1ahUVFZWdnd1M1wTTRgCBJiLAY35NpFDNfZiy22NCkcz6k626zJzp1SkELl26tHz58oEDB2ipQCnl5dX2+eefTk6O/+qrvzTdwFPPyL/66i/JyfHPP/+0l1db06wHDhy4fPnyS5cuOUVVmQQCCCBQhwCP+dWBwiF7CshujwlF9qyt5bZlq255XJxB4G4Fzp49u3jx4uDg/zDlBKVUQIDvlCm/2rmz+vcI1RMzHP9UScnenTuXTpnyq4AAX/MJBgcHL168+OzZs3fLxHUIIIBA8xPgMb/mV3PbzFh2e0wosk0VrW1FturWjpbrEahH4Ny5c2vWrBk5cqTpRd5aiujRw2fs2Ofef/+Nv/3tI0u/kshx0lFlZe7f/vbR+++/MXbscz16+JgHIZ1ON3LkyDVr1pw7d64eB04hgAACCNyjAI/53SNgU79ddntMKJJZP7JVl5kzvTq7gMFgyMnJSUhICA8P9/RsZ54r2rRp1bdvj1GjhixYEJeWtvTkyW3icejkyW1paUsXLIgbNWpI37492rT535+V0obt6ekZHh6ekJCQk5NjMBicvXTMDwEEEGjCAjzm14SL9+Ohy26PCUU/rsb9+pts1e/XLOmnWQsUFBQkJyfHxMQEBv4f84Ckfe/h0SYgwPeZZ34eEzN0zpzYlJTZWVkrT51Ku3z5cxvmpcuXPz91Ki0ra2VKyuw5c2JjYoY+88zPAwJ8PTza1B5SYGBgTExMcnJyQUFBs64ck0cAAQSahwCP+TlanWW3x4QimfUgW3WZOdNrMxYoKyvLz89ft27d9OnTIyIiunf3q51JzI/odF6+vg+HhDweFhYUHR1h+jNxYuTs2RPN/0ycGGk6Gx0dERYWFBLyuK/vwzqdl3mDtb/v3r17RETE9OnT161bl5+fX1ZW1ozrw9QRQAABBKwQ4DE/K7CsuVR2e0wosqZWtrtWtuq2mwctIdBIgbKyshMnTmRkZKxevXrmzJnR0dFhYWF+fn4dO3asHWAafaRjx45+fn5hYWHR0dEzZ85cvXp1RkbGiRMniECNLBu3IYAAAgg0VoDH/BqUk90eE4oaLJBdLpCtul2mRKMI2E6gpKTk9OnTer0+KysrNTU15YevlStXzv7x18qVK384mZKampqVlaXX60+fPl1SUmK74dASAgho6n78AAAIlElEQVQggAACYgLN5zE/2e0xoUhmictWXWbO9IoAAggggAACCCBwvwSa3GN+sttjQtH9Wpg/7ke26j8eC39DAAEEEEAAAQQQQKBaQPAxP9ntMaFI5h+AbNVl5kyvCCCAAAIIIIAAAk4qcO+P+SmlQkNDIyIiRo8ePWnSpBkzZsydOzcxMXHt2rVbt27NzMzMyckpLCwsLi4uLS21+S/MIBTJLExCkYw7vSKAAAIIIIAAAgg4koDpMT+lVHZ29s6dOzds2JCUlLRw4cL4+Pi4uLjo6OjIyMjw8PDg4OBevXp5e3t7enq6ubl5enp6e3sHBAQEBweHh4cPHz583LhxcXFx8fHxCxYsSEpK2rBhQ1paWlZWVn5+flFR0aVLl8rLyy1NnVBkSca+xwlF9vWldQQQQAABBBBAAIEmJWDV9tjmj/kRimQWi1VVlxkivSKAAAIIIIAAAgggcL8E7s/22NJjfoSi+1XnH/dzf6r+4z75GwIIIIAAAggggAACDioguz0mFMksC9mqy8yZXhFAAAEEEEAAAQQQsCAguz0mFFkoi50Py1bdzpOjeQQQQAABBBBAAAEErBOQ3R4Tiqyrlq2ulq26rWZBOwgggAACCCCAAAII2ERAdntMKLJJEa1uRLbqVg+XGxBAAAEEEEAAAQQQsKeA7PaYUGTP2lpuW7bqlsfFGQQQQAABBBBAAAEEBARkt8eEIoGSG41G2arLzJleEUAAAQQQQAABBBCwICC7PSYUWSiLnQ/LVt3Ok6N5BBBAAAEEEEAAAQSsE5DdHhOKrKuWra6WrbqtZkE7CCCAAAIIIIAAAgjYREB2e0woskkRrW5EtupWD5cbEEAAAQQQQAABBBCwp4Ds9phQZM/aWm5btuqWx8UZBBBAAAEEEEAAAQQEBGS3x4QigZLzogUZdHpFAAEEEEAAAQQQcFQBQpGjVsae45Ktuj1nRtsIIIAAAggggAACCFgtILs95pMiqwtmkxtkq26TKdAIAggggAACCCCAAAK2EpDdHhOKbFVH69qRrbp1Y+VqBBBAAAEEEEAAAQTsLCC7PSYU2bm8FpqXrbqFQXEYAQQQQAABBBBAAAEZAdntMaGoOVZdZs70igACCCCAAAIIIICABQFCkQUYpz4sW3WnpmVyCCCAAAIIIIAAAk1PQHZ7zCdFMitGtuoyc6ZXBBBAAAEEEEAAAQQsCMhujwlFFspi58OyVbfz5GgeAQQQQAABBBBAAAHrBGS3x4Qi66plq6tlq26rWdAOAggggAACCCCAAAI2EZDdHhOKbFJEqxuRrbrVw+UGBBBAAAEEEEAAAQTsKSC7PSYU2bO2ltuWrbrlcXEGAQQQQAABBBBAAAEBAdntMaFIoORGo1G26jJzplcEEEAAAQQQQAABBCwIyG6PCUUWymLnw7JVt/PkaB4BBBBAAAEEEEAAAesEZLfHhCLrqmWrq2WrbqtZ0A4CCCCAAAIIIIAAAjYRkN0eE4psUkSrG5GtutXD5QYEEEAAAQQQQAABBOwpILs9JhTZs7aW25atuuVxcQYBBBBAAAEEEEAAAQEB2e0xoUig5LxoQQadXhFAAAEEEEAAAQQcVYBQ5KiVsee4ZKtuz5nRNgIIIIAAAggggAACVgvIbo/5pMjqgtnkBtmq22QKNIIAAggggAACCCCAgK0EZLfHhCJb1dG6dmSrbt1YuRoBBBBAAAEEEEAAATsLyG6PCUV2Lq+F5mWrbmFQHEYAAQQQQAABBBBAQEZAdntMKGqOVZeZM70igAACCCCAAAIIIGBBgFBkAcapD8tW3alpmRwCCCCAAAIIIIBA0xOQ3R7zSZHMipGtusyc6RUBBBBAAAEEEEAAAQsCsttjQpGFstj5sGzV7Tw5mkcAAQQQQAABBBBAwDoB2e0xoci6atnqatmq22oWtIMAAggggAACCCCAgE0EZLfHhCKbFNHqRmSrbvVwuQEBBBBAAAEEEEAAAXsKyG6PCUX2rK3ltmWrbnlcnEEAAQQQQAABBBBAQEBAdntMKBIoudFolK26zJzpFQEEEEAAAQQQQAABCwKy22NCkYWy2PmwbNXtPDmaRwABBBBAAAEEEEDAOgHZ7TGhyLpq2epq2arbaha0gwACCCCAAAIIIICATQRkt8eEIpsU0epGZKtu9XC5AQEEEEAAAQQQQAABewrIbo8JRfasreW2ZatueVycQQABBBBAAAEEEEBAQEB2e0woEig5L1qQQadXBBBAAAEEEEAAAUcVIBQ5amXsOS7FFwIIIIAAAggggAACCJgJ2HP33UDbfFLUABCnEUAAAQQQQAABBBBAwLkFCEXOXV9mhwACCCCAAAIIIIAAAg0IEIoaAOI0AggggAACCCCAAAIIOLcAoci568vsEEAAAQQQQAABBBBAoAEBQlEDQJxGAAEEEEAAAQQQQAAB5xYgFDl3fZkdAggggAACCCCAAAIINCBAKGoAiNMIIIAAAggggAACCCDg3AKEIueuL7NDAAEEEEAAAQQQQACBBgQIRQ0AcRoBBBBAAAEEEEAAAQScW4BQ5Nz1ZXYIIIAAAggggAACCCDQgAChqAEgTiOAAAIIIIAAAggggIBzCxCKnLu+zA4BBBBAAAEEEEAAAQQaECAUNQDEaQQQQAABBBBAAAEEEHBuAUKRc9eX2SGAAAIIIIAAAggggEADAoSiBoA4jQACCCCAAAIIIIAAAs4tQChy7voyOwQQQAABBBBAAAEEEGhAgFDUABCnEUAAAQQQQAABBBBAwLkFCEXOXV9mhwACCCCAAAIIIIAAAg0IEIoaAOI0AggggAACCCCAAAIIOLcAoci568vsEEAAAQQQQAABBBBAoAEBQlEDQJxGAAEEEEAAAQQQQAAB5xYgFDl3fZkdAggggAACCCCAAAIINCBAKGoAiNMIIIAAAggggAACCCDg3AL/H3JSJAzQ/GN7AAAAAElFTkSuQmCC;" vertex="1" parent="1">
          <mxGeometry x="142" y="130" width="1116" height="531" as="geometry" />
        </mxCell>
      </root>
    </mxGraphModel>
  </diagram>
</mxfile>
